<?xml version="1.0" standalone="no"?>
<!DOCTYPE svg PUBLIC "-//W3C//DTD SVG 1.1//EN" "http://www.w3.org/Graphics/SVG/1.1/DTD/svg11.dtd" >
<svg xmlns="http://www.w3.org/2000/svg" width="100%" height="100%">
<metadata>
Created by FontXChange 20110222 at Thu Jul 30 12:40:17 2015
 By István Szécsényi
Copyright 1997, 2007 International Typeface Corporation. All rights reserved.
</metadata>
<defs>
<font id="ConduitITCPro-Bold" horiz-adv-x="507" >
  <font-face 
    font-family="ConduitITCPro"
    font-weight="700"
    font-stretch="normal"
    units-per-em="1000"
    panose-1="2 0 8 6 3 0 0 2 0 4"
    ascent="703"
    descent="-297"
    x-height="457"
    cap-height="630"
    bbox="-72 -251 1286 892"
    underline-thickness="86"
    underline-position="-26"
    stemh="105"
    stemv="115"
    unicode-range="U+0020-FB04"
  />
<missing-glyph horiz-adv-x="500" 
d="M12 0v665h475v-665h-475zM250 375l161 243h-323zM60 91l161 242l-161 242v-484zM440 90v485l-162 -242zM88 48h323l-161 242z" />
    <glyph glyph-name="fi" unicode="fi" horiz-adv-x="502" 
d="M454 573c0 -36 -31 -67 -67 -67s-66 31 -66 67s30 67 66 67s67 -31 67 -67zM435 0h-95c-7 0 -10 3 -10 10v438c0 7 3 10 10 10h95c7 0 10 -3 10 -10v-438c0 -7 -3 -10 -10 -10zM177 0h-95c-7 0 -10 3 -10 10v290c0 7 -3 10 -10 10h-23c-7 0 -10 3 -10 10v85
c0 7 3 10 10 10h23c7 0 10 3 10 10v28c0 80 51 150 134 176c22 7 45 10 56 10c6 0 10 -3 10 -10v-85c0 -6 -3 -10 -9 -10c-52 -4 -76 -35 -76 -71v-38c0 -7 3 -10 10 -10h65c7 0 10 -3 10 -10v-85c0 -7 -3 -10 -10 -10h-65c-7 0 -10 -3 -10 -10v-290c0 -7 -3 -10 -10 -10z
" />
    <glyph glyph-name="fl" unicode="fl" horiz-adv-x="506" 
d="M177 0h-95c-7 0 -10 3 -10 10v290c0 7 -3 10 -10 10h-23c-7 0 -10 3 -10 10v85c0 7 3 10 10 10h23c7 0 10 3 10 10v19c0 103 83 186 186 186h180c7 0 10 -3 10 -10v-610c0 -7 -3 -10 -10 -10h-95c-7 0 -10 3 -10 10v505c0 7 -3 10 -10 10h-65c-40 0 -71 -32 -71 -72v-28
c0 -7 3 -10 10 -10h65c7 0 10 -3 10 -10v-85c0 -7 -3 -10 -10 -10h-65c-7 0 -10 -3 -10 -10v-290c0 -7 -3 -10 -10 -10z" />
    <glyph glyph-name="f_f" unicode="ff" horiz-adv-x="553" 
d="M177 0h-95c-7 0 -10 3 -10 10v290c0 7 -3 10 -10 10h-23c-7 0 -10 3 -10 10v85c0 7 3 10 10 10h23c7 0 10 3 10 10v28c0 102 84 187 186 187c54 0 100 -15 128 -35c3 -2 8 -7 12 -7s9 5 12 7c29 21 68 35 109 35c21 0 47 -3 64 -7c5 -1 8 -4 8 -8s-2 -10 -4 -15l-27 -74
c-1 -4 -4 -8 -8 -8s-15 7 -33 7c-41 0 -71 -31 -71 -72v-38c0 -7 3 -10 10 -10h66c7 0 10 -3 10 -10v-85c0 -7 -3 -10 -10 -10h-66c-7 0 -10 -3 -10 -10v-290c0 -7 -3 -10 -10 -10h-95c-7 0 -10 3 -10 10v290c0 7 -3 10 -10 10h-126c-7 0 -10 -3 -10 -10v-290
c0 -7 -3 -10 -10 -10zM197 415h126c7 0 10 3 10 10v28c0 27 5 36 5 41c0 6 -2 10 -9 16c-18 16 -50 25 -71 25c-40 0 -71 -30 -71 -72v-38c0 -7 3 -10 10 -10z" />
    <glyph glyph-name="f_f_i" unicode="ffi" horiz-adv-x="757" 
d="M715 573c0 -36 -30 -67 -66 -67s-67 31 -67 67s31 67 67 67s66 -31 66 -67zM696 0h-95c-7 0 -10 3 -10 10v438c0 7 3 10 10 10h95c7 0 10 -3 10 -10v-438c0 -7 -3 -10 -10 -10zM177 0h-95c-7 0 -10 3 -10 10v290c0 7 -3 10 -10 10h-23c-7 0 -10 3 -10 10v85
c0 7 3 10 10 10h23c7 0 10 3 10 10v28c0 102 84 187 186 187c54 0 100 -15 128 -35c3 -2 8 -7 12 -7s9 5 13 7c39 27 94 35 113 35c6 0 10 -3 10 -10v-86c0 -6 -3 -10 -9 -10c-53 -4 -77 -35 -77 -71v-38c0 -7 3 -10 10 -10h66c7 0 10 -3 10 -10v-85c0 -7 -3 -10 -10 -10
h-66c-7 0 -10 -3 -10 -10v-290c0 -7 -3 -10 -10 -10h-95c-7 0 -10 3 -10 10v290c0 7 -3 10 -10 10h-126c-7 0 -10 -3 -10 -10v-290c0 -7 -3 -10 -10 -10zM197 415h126c7 0 10 3 10 10v28c0 27 5 36 5 41c0 6 -2 10 -9 16c-18 16 -50 25 -71 25c-40 0 -71 -30 -71 -72v-38
c0 -7 3 -10 10 -10z" />
    <glyph glyph-name="f_f_l" unicode="ffl" horiz-adv-x="766" 
d="M177 0h-95c-7 0 -10 3 -10 10v290c0 7 -3 10 -10 10h-23c-7 0 -10 3 -10 10v85c0 7 3 10 10 10h23c7 0 10 3 10 10v28c0 102 84 187 186 187c60 0 108 -18 135 -40c3 -2 7 -7 11 -7s10 6 13 8c29 20 64 29 102 29h180c7 0 10 -3 10 -10v-610c0 -7 -3 -10 -10 -10h-95
c-7 0 -10 3 -10 10v505c0 7 -3 10 -10 10h-65c-40 0 -71 -30 -71 -72v-28c0 -7 3 -10 10 -10h66c7 0 10 -3 10 -10v-85c0 -7 -3 -10 -10 -10h-66c-7 0 -10 -3 -10 -10v-290c0 -7 -3 -10 -10 -10h-95c-7 0 -10 3 -10 10v290c0 7 -3 10 -10 10h-126c-7 0 -10 -3 -10 -10v-290
c0 -7 -3 -10 -10 -10zM197 415h126c7 0 10 3 10 10v28c0 22 6 35 6 40c0 6 -2 10 -9 16c-18 16 -51 26 -72 26c-40 0 -71 -30 -71 -72v-38c0 -7 3 -10 10 -10z" />
    <glyph glyph-name="IJ" unicode="IJ" horiz-adv-x="678" 
d="M172 0h-95c-7 0 -10 3 -10 10v610c0 7 3 10 10 10h95c7 0 10 -3 10 -10v-610c0 -7 -3 -10 -10 -10zM258 118l76 36c9 4 15 7 18 7c4 0 6 -2 8 -6c16 -43 43 -60 71 -60c40 0 71 32 71 72v453c0 7 3 10 10 10h95c7 0 10 -3 10 -10v-443c0 -104 -84 -187 -186 -187
c-57 0 -115 33 -154 79c-15 18 -26 35 -26 41c0 3 2 6 7 8z" />
    <glyph glyph-name="ij" unicode="ij" horiz-adv-x="460" 
d="M182 573c0 -36 -31 -67 -67 -67s-67 31 -67 67s31 67 67 67s67 -31 67 -67zM162 0h-94c-7 0 -10 3 -10 10v438c0 7 3 10 10 10h94c7 0 10 -3 10 -10v-438c0 -7 -3 -10 -10 -10zM412 573c0 -36 -31 -67 -67 -67s-67 31 -67 67s31 67 67 67s67 -31 67 -67zM202 -225v85
c0 6 3 10 9 10c52 4 77 35 77 71v507c0 7 3 10 10 10h94c7 0 10 -3 10 -10v-498c0 -74 -43 -137 -114 -167c-24 -10 -58 -18 -76 -18c-6 0 -10 3 -10 10z" />
    <glyph glyph-name="napostrophe" unicode="&#x22;n" horiz-adv-x="488" 
d="M162 0h-94c-7 0 -10 3 -10 10v438c0 7 3 10 10 10h85c7 0 10 -2 10 -9s3 -11 8 -11c3 0 4 1 7 2c21 11 46 18 66 18c113 0 186 -72 186 -176v-272c0 -7 -3 -10 -10 -10h-95c-7 0 -10 3 -10 10v272c0 40 -31 71 -71 71s-72 -31 -72 -71v-272c0 -7 -3 -10 -10 -10zM-1 506
l-23 34c-1 2 -2 4 -2 7s1 6 3 8l7 9c15 24 22 64 22 104v21c0 7 2 9 7 9h67c4 0 7 -2 7 -9v-22c0 -71 -22 -129 -76 -164c-2 -1 -4 -1 -5 -1c-3 0 -6 1 -7 4z" />
    <glyph glyph-name="f_f.sc" unicode="&#xe012;&#xe012;" horiz-adv-x="878" 
d="M619 0h-97c-4 0 -7 2 -7 8v485c0 6 3 8 7 8h317c4 0 8 -2 8 -8v-82c0 -5 -3 -7 -8 -7h-203c-7 0 -9 -3 -9 -9v-84c0 -5 2 -8 9 -8h167c4 0 9 -2 9 -7v-83c0 -6 -5 -8 -9 -8h-167c-7 0 -9 -3 -9 -8v-189c0 -6 -3 -8 -8 -8zM180 0h-97c-4 0 -7 2 -7 8v485c0 6 3 8 7 8h317
c4 0 8 -2 8 -8v-82c0 -5 -3 -7 -8 -7h-203c-7 0 -9 -3 -9 -9v-84c0 -5 2 -8 9 -8h167c4 0 9 -2 9 -7v-83c0 -6 -5 -8 -9 -8h-167c-7 0 -9 -3 -9 -8v-189c0 -6 -3 -8 -8 -8z" />
    <glyph glyph-name="f_f_i.sc" unicode="&#xe012;&#xe012;&#xe015;" horiz-adv-x="1142" 
d="M1058 0h-97c-4 0 -7 2 -7 8v485c0 6 3 8 7 8h97c3 0 8 -2 8 -8v-485c0 -6 -3 -8 -8 -8zM619 0h-97c-4 0 -7 2 -7 8v485c0 6 3 8 7 8h317c4 0 8 -2 8 -8v-82c0 -5 -3 -7 -8 -7h-203c-7 0 -9 -3 -9 -9v-84c0 -5 2 -8 9 -8h167c4 0 9 -2 9 -7v-83c0 -6 -5 -8 -9 -8h-167
c-7 0 -9 -3 -9 -8v-189c0 -6 -3 -8 -8 -8zM180 0h-97c-4 0 -7 2 -7 8v485c0 6 3 8 7 8h317c4 0 8 -2 8 -8v-82c0 -5 -3 -7 -8 -7h-203c-7 0 -9 -3 -9 -9v-84c0 -5 2 -8 9 -8h167c4 0 9 -2 9 -7v-83c0 -6 -5 -8 -9 -8h-167c-7 0 -9 -3 -9 -8v-189c0 -6 -3 -8 -8 -8z" />
    <glyph glyph-name="f_f_l.sc" unicode="&#xe012;&#xe012;&#xe01c;" horiz-adv-x="1297" 
d="M1278 0h-317c-4 0 -7 2 -7 8v485c0 6 3 8 7 8h97c4 0 8 -2 8 -8v-387c0 -5 2 -8 9 -8h203c4 0 8 -2 8 -8v-82c0 -6 -3 -8 -8 -8zM619 0h-97c-4 0 -7 2 -7 8v485c0 6 3 8 7 8h317c4 0 8 -2 8 -8v-82c0 -5 -3 -7 -8 -7h-203c-7 0 -9 -3 -9 -9v-84c0 -5 2 -8 9 -8h167
c4 0 9 -2 9 -7v-83c0 -6 -5 -8 -9 -8h-167c-7 0 -9 -3 -9 -8v-189c0 -6 -3 -8 -8 -8zM180 0h-97c-4 0 -7 2 -7 8v485c0 6 3 8 7 8h317c4 0 8 -2 8 -8v-82c0 -5 -3 -7 -8 -7h-203c-7 0 -9 -3 -9 -9v-84c0 -5 2 -8 9 -8h167c4 0 9 -2 9 -7v-83c0 -6 -5 -8 -9 -8h-167
c-7 0 -9 -3 -9 -8v-189c0 -6 -3 -8 -8 -8z" />
    <glyph glyph-name=".notdef" horiz-adv-x="500" 
d="M12 0v665h475v-665h-475zM250 375l161 243h-323zM60 91l161 242l-161 242v-484zM440 90v485l-162 -242zM88 48h323l-161 242z" />
    <glyph glyph-name="space" unicode=" " horiz-adv-x="177" 
 />
    <glyph glyph-name="exclam" unicode="!" horiz-adv-x="306" 
d="M179 172h-50c-6 0 -9 3 -10 9l-23 178v261c0 7 3 10 10 10h94c7 0 10 -3 10 -10v-261l-21 -178c-1 -6 -4 -9 -10 -9zM220 57c0 -36 -31 -67 -67 -67s-67 31 -67 67s31 67 67 67s67 -31 67 -67z" />
    <glyph glyph-name="quotedbl" unicode="&#x22;" horiz-adv-x="316" 
d="M250 430h-49c-6 0 -9 3 -10 9l-20 150c-2 12 -4 26 -4 32s4 9 10 9h96c6 0 10 -3 10 -9c0 -5 -2 -19 -4 -33l-19 -149c-1 -6 -4 -9 -10 -9zM116 430h-49c-6 0 -9 3 -10 9l-20 150c-2 12 -4 26 -4 32s4 9 10 9h96c6 0 10 -3 10 -9c0 -5 -2 -19 -4 -33l-19 -149
c-1 -6 -4 -9 -10 -9z" />
    <glyph glyph-name="numbersign" unicode="#" horiz-adv-x="556" 
d="M130 0h-60c-7 0 -10 4 -10 9c0 6 2 12 4 18l35 122c1 4 3 10 3 15s-3 8 -10 8h-57c-5 0 -7 2 -7 6s3 13 4 18l19 71c2 7 5 10 12 10h64c5 0 9 3 10 8l13 45c1 5 4 11 4 15c0 5 -4 8 -11 8h-64c-5 0 -7 2 -7 6c0 6 2 11 4 18l19 71c2 7 5 10 12 10h73c5 0 9 3 10 8l44 157
c1 5 5 7 10 7h60c7 0 11 -4 11 -9c0 -4 -2 -9 -4 -15l-34 -121c-2 -7 -4 -13 -4 -18s3 -9 10 -9h77c5 0 9 3 10 8l46 157c1 5 5 7 10 7h60c7 0 11 -4 11 -9c0 -3 -2 -9 -4 -15l-34 -121c-2 -7 -4 -14 -4 -18c0 -5 3 -9 10 -9h57c6 0 8 -2 8 -6c0 -3 -2 -10 -3 -15l-20 -74
c-2 -7 -6 -10 -13 -10h-65c-5 0 -9 -1 -10 -6l-12 -43c-2 -7 -4 -13 -4 -18s3 -9 10 -9h65c6 0 8 -2 8 -6s-2 -11 -3 -15l-20 -74c-2 -7 -6 -10 -13 -10h-72c-5 0 -9 -1 -10 -6l-46 -159c-1 -5 -5 -7 -10 -7h-59c-7 0 -10 4 -10 9c0 6 3 13 4 18l33 122c1 5 3 11 3 15
c0 5 -3 8 -10 8h-78c-5 0 -9 -1 -10 -6l-45 -159c-1 -5 -5 -7 -10 -7zM232 277h77c5 0 9 3 10 8l13 45c2 5 4 12 4 15c0 5 -4 8 -11 8h-77c-5 0 -9 -1 -10 -6l-12 -43c-2 -6 -5 -15 -5 -18c0 -5 4 -9 11 -9z" />
    <glyph glyph-name="dollar" unicode="$" 
d="M288 -57h-52c-7 0 -10 3 -10 10v27c0 7 -3 10 -10 10c-73 3 -113 30 -141 69c-16 22 -26 44 -26 50c0 3 2 6 6 8l76 38c6 3 11 6 15 6c3 0 6 -2 8 -6c9 -23 20 -38 32 -47c11 -8 24 -12 30 -12s10 3 10 10v157c0 4 -2 7 -6 9c-77 36 -175 79 -175 191
c0 98 64 171 171 177c6 0 10 4 10 10v27c0 7 3 10 10 10h52c7 0 10 -3 10 -10v-29c0 -6 2 -9 8 -10c63 -6 101 -34 128 -72c14 -20 24 -38 24 -44c0 -3 -2 -6 -6 -8l-71 -35c-7 -4 -17 -9 -21 -9c-3 0 -6 2 -8 6c-8 17 -16 30 -25 39c-7 7 -17 13 -21 13c-5 0 -8 -4 -8 -11
v-141c0 -4 3 -7 5 -8c75 -36 165 -84 165 -201c0 -98 -63 -167 -162 -176c-6 -1 -8 -4 -8 -10v-28c0 -7 -3 -10 -10 -10zM226 413v110c0 7 -4 11 -9 11c-6 0 -19 -6 -29 -13c-18 -13 -29 -34 -29 -58c0 -19 10 -32 27 -44c10 -7 25 -17 32 -17c5 0 8 4 8 11zM298 219v-108
c0 -7 3 -11 8 -11s17 8 25 15c14 13 23 31 23 52s-10 37 -25 50c-9 8 -18 13 -23 13s-8 -4 -8 -11z" />
    <glyph glyph-name="percent" unicode="%" horiz-adv-x="547" 
d="M46 439v93c0 56 39 98 100 98c62 0 101 -39 101 -95v-96c0 -56 -39 -95 -101 -95c-61 0 -100 39 -100 95zM170 0h-53c-7 0 -10 3 -10 8s4 14 13 34l249 582c2 4 5 6 9 6h53c7 0 10 -3 10 -8s-4 -12 -13 -34l-249 -582c-2 -4 -5 -6 -9 -6zM301 95v96c0 56 39 95 100 95
s100 -39 100 -95v-96c0 -56 -39 -95 -100 -95s-100 39 -100 95zM166 439v96c0 10 -10 19 -20 19c-11 0 -19 -8 -19 -19v-96c0 -11 8 -19 19 -19c10 0 20 9 20 19zM420 95v96c0 11 -8 19 -19 19s-19 -8 -19 -19v-96c0 -11 8 -19 19 -19s19 8 19 19z" />
    <glyph glyph-name="ampersand" unicode="&#x26;" horiz-adv-x="612" 
d="M268 -10h-29c-114 0 -186 71 -186 185v24c0 40 22 82 50 109c4 4 9 8 9 12c0 3 -5 8 -9 12c-30 30 -50 69 -50 119c0 114 71 189 186 189c114 0 186 -73 186 -187v-19c0 -53 -29 -101 -75 -123c-4 -2 -6 -4 -6 -8c0 -3 3 -5 7 -8c8 -6 15 -13 23 -22c3 -3 5 -4 8 -4
c4 0 7 2 9 7c27 60 86 96 165 96h31c7 0 10 -3 10 -10v-94c0 -7 -3 -10 -10 -10h-39c-40 0 -59 -31 -72 -69l-4 -12c-2 -5 -1 -9 3 -13c31 -29 71 -53 113 -58c6 -1 9 -4 9 -10v-96c0 -7 -4 -10 -10 -10c-49 0 -110 18 -154 54c-4 4 -10 9 -14 9s-6 -4 -10 -8
c-29 -32 -73 -55 -141 -55zM311 444v19c0 39 -33 72 -72 72c-41 0 -72 -33 -72 -72c0 -38 28 -62 61 -85c7 -4 11 -8 16 -8s12 3 17 5c31 12 50 39 50 69zM239 95h29c24 0 45 11 59 29c5 6 10 13 10 16c0 5 -5 10 -10 16c-18 22 -40 45 -65 65c-13 11 -28 19 -43 29
c-6 4 -11 7 -14 7c-5 0 -9 -3 -14 -8c-14 -13 -24 -33 -24 -53v-29c0 -43 33 -72 72 -72z" />
    <glyph glyph-name="quoteright" unicode="&#x2019;" horiz-adv-x="189" 
d="M47 387l-22 43c-3 5 -6 10 -6 14c0 3 2 6 6 8c26 11 39 38 39 57c0 6 -4 10 -10 10h-8c-7 0 -10 3 -10 10v91c0 7 3 10 10 10h99c7 0 10 -3 10 -10v-69c0 -77 -23 -120 -62 -149c-15 -11 -34 -21 -38 -21c-3 0 -6 2 -8 6z" />
    <glyph glyph-name="parenleft" unicode="(" horiz-adv-x="394" 
d="M312 -76v-86c0 -7 -4 -10 -10 -10c-15 0 -50 5 -77 15c-75 27 -113 89 -113 171v525c0 80 36 140 105 168c32 13 66 18 85 18c6 0 10 -3 10 -10v-86c0 -6 -3 -10 -9 -10c-52 -4 -77 -34 -77 -70v-544c0 -36 25 -67 77 -71c6 0 9 -4 9 -10z" />
    <glyph glyph-name="parenright" unicode=")" horiz-adv-x="394" 
d="M82 -162v86c0 6 3 10 9 10c52 4 77 35 77 71v544c0 36 -25 66 -77 70c-6 0 -9 4 -9 10v86c0 7 4 10 10 10c19 0 53 -5 85 -18c69 -28 105 -88 105 -168v-525c0 -82 -38 -144 -113 -171c-27 -10 -62 -15 -77 -15c-6 0 -10 3 -10 10z" />
    <glyph glyph-name="asterisk" unicode="*" horiz-adv-x="390" 
d="M235 331h-79c-6 0 -10 3 -10 9c0 5 2 18 3 25l6 46c1 5 2 13 2 17c0 6 -3 10 -7 10c-3 0 -6 -2 -9 -4l-64 -50c-3 -2 -4 -3 -7 -3s-6 2 -8 6l-40 70c-1 2 -2 4 -2 6c0 3 2 6 7 8l77 31c5 2 7 6 7 9s-2 7 -7 9l-76 33c-5 2 -7 5 -7 8c0 2 1 4 2 6l40 69c2 4 5 6 8 6
c2 0 4 -1 7 -3l63 -52c3 -2 6 -3 8 -3c5 0 8 5 8 11c0 4 -2 14 -3 24l-6 43c-1 5 -2 13 -2 17c0 6 4 9 10 9h79c6 0 10 -3 10 -9c0 -5 -1 -12 -2 -17l-6 -44c-1 -8 -3 -19 -3 -24c0 -6 3 -11 8 -11c2 0 5 1 8 3l67 53c3 2 5 3 7 3c3 0 6 -2 8 -6l39 -68c1 -2 2 -4 2 -6
c0 -3 -2 -6 -7 -8l-79 -34c-5 -2 -7 -6 -7 -9s2 -7 7 -9l80 -31c5 -2 7 -5 7 -8c0 -2 -1 -4 -2 -6l-40 -68c-2 -4 -5 -6 -8 -6c-2 0 -5 1 -7 3l-68 49c-3 2 -6 3 -9 3c-4 0 -7 -2 -7 -8c0 -5 1 -13 2 -18l7 -49c1 -8 3 -19 3 -23c0 -6 -4 -9 -10 -9z" />
    <glyph glyph-name="plus" unicode="+" 
d="M286 29h-66c-7 0 -10 3 -10 10v151c0 7 -3 10 -10 10h-151c-7 0 -10 3 -10 10v66c0 7 3 10 10 10h151c7 0 10 3 10 10v152c0 7 3 10 10 10h66c7 0 10 -3 10 -10v-152c0 -7 3 -10 10 -10h152c7 0 10 -3 10 -10v-66c0 -7 -3 -10 -10 -10h-152c-7 0 -10 -3 -10 -10v-151
c0 -7 -3 -10 -10 -10z" />
    <glyph glyph-name="comma" unicode="," horiz-adv-x="230" 
d="M63 -123l-23 45c-3 6 -6 10 -6 14s2 6 6 8c27 15 39 45 39 62c0 6 -4 9 -10 9h-11c-7 0 -10 3 -10 10v97c0 7 3 10 10 10h114c7 0 10 -3 10 -10v-73c0 -80 -28 -125 -70 -155c-19 -14 -36 -23 -41 -23c-3 0 -6 2 -8 6z" />
    <glyph glyph-name="hyphen" unicode="-" horiz-adv-x="278" 
d="M229 172h-180c-7 0 -10 3 -10 10v94c0 7 3 10 10 10h180c7 0 10 -3 10 -10v-94c0 -7 -3 -10 -10 -10z" />
    <glyph glyph-name="period" unicode="." horiz-adv-x="230" 
d="M182 57c0 -36 -31 -67 -67 -67s-67 31 -67 67s31 67 67 67s67 -31 67 -67z" />
    <glyph glyph-name="slash" unicode="/" horiz-adv-x="330" 
d="M66 0h-63c-7 0 -10 3 -10 8c0 4 3 10 6 18l256 598c2 4 5 6 9 6h63c7 0 10 -3 10 -8c0 -4 -2 -10 -5 -16l-257 -600c-2 -4 -5 -6 -9 -6z" />
    <glyph glyph-name="zero" unicode="0" 
d="M268 -10h-29c-114 0 -186 73 -186 177v296c0 104 72 177 186 177h29c113 0 186 -73 186 -177v-296c0 -104 -73 -177 -186 -177zM239 95h29c40 0 71 32 71 72v296c0 40 -31 72 -71 72h-29c-39 0 -72 -33 -72 -72v-296c0 -39 33 -72 72 -72z" />
    <glyph glyph-name="one" unicode="1" 
d="M432 0h-323c-7 0 -10 3 -10 10v85c0 7 3 10 10 10h94c7 0 10 3 10 10v293c0 7 -3 11 -8 11c-4 0 -6 -1 -9 -4l-30 -31c-2 -3 -5 -4 -7 -4c-3 0 -4 2 -7 4l-62 61c-3 2 -4 5 -4 7c0 3 2 4 4 7l164 165c4 4 7 6 12 6h52c7 0 10 -3 10 -10v-505c0 -7 3 -10 10 -10h94
c7 0 10 -3 10 -10v-85c0 -7 -3 -10 -10 -10z" />
    <glyph glyph-name="two" unicode="2" 
d="M430 0h-353c-7 0 -10 3 -10 10v115c0 117 76 176 149 221c58 35 117 61 117 117c0 39 -33 72 -72 72h-36c-27 0 -53 -16 -71 -59c-2 -5 -5 -7 -8 -7c-4 0 -8 3 -12 5l-80 41c-4 2 -6 4 -6 7c0 6 10 22 19 37c30 47 75 81 158 81h36c114 0 186 -73 186 -177
c0 -117 -83 -166 -160 -213c-54 -33 -105 -63 -105 -125v-10c0 -7 3 -10 10 -10h238c7 0 10 -3 10 -10v-85c0 -7 -3 -10 -10 -10z" />
    <glyph glyph-name="three" unicode="3" 
d="M253 -10h-28c-83 0 -128 34 -158 81c-9 15 -19 31 -19 37c0 3 2 5 6 7l80 41c4 2 8 5 12 5c3 0 6 -2 8 -7c18 -43 44 -59 71 -59h28c39 0 72 33 72 72v34c0 40 -32 71 -72 71h-90c-7 0 -10 3 -10 10v85c0 7 3 10 10 10h90c39 0 72 33 72 72v14c0 39 -33 72 -72 72h-28
c-27 0 -53 -16 -71 -59c-2 -5 -5 -7 -8 -7c-4 0 -8 3 -12 5l-80 41c-4 2 -6 4 -6 7c0 6 10 22 19 37c30 47 75 81 158 81h28c114 0 187 -73 187 -187v-14c0 -37 -25 -80 -54 -108c-3 -2 -4 -4 -4 -7c0 -2 1 -5 4 -7c29 -28 54 -76 54 -113v-29c0 -114 -73 -185 -187 -185z
" />
    <glyph glyph-name="four" unicode="4" 
d="M387 0h-95c-7 0 -10 3 -10 10v118c0 7 -3 10 -10 10h-236c-7 0 -10 3 -10 10v85l261 393c2 2 5 4 8 4h92c7 0 10 -3 10 -10v-367c0 -7 3 -10 10 -10h65c7 0 10 -3 10 -10v-85c0 -7 -3 -10 -10 -10h-65c-7 0 -10 -3 -10 -10v-118c0 -7 -3 -10 -10 -10zM169 243h103
c7 0 10 3 10 10v155c0 7 -4 12 -9 12c-3 0 -6 -2 -9 -6l-103 -155c-2 -3 -3 -6 -3 -8c0 -5 4 -8 11 -8z" />
    <glyph glyph-name="five" unicode="5" 
d="M269 -10h-28c-83 0 -128 34 -158 81c-9 15 -19 31 -19 37c0 3 2 5 6 7l80 41c4 2 8 5 12 5c3 0 6 -2 8 -7c18 -43 44 -59 71 -59h28c40 0 71 32 71 72v34c0 40 -31 71 -71 71h-167c-7 0 -10 3 -10 10v338c0 7 3 10 10 10h333c7 0 10 -3 10 -10v-85c0 -7 -3 -10 -10 -10
h-218c-7 0 -10 -3 -10 -10v-128c0 -7 3 -10 10 -10h52c113 0 186 -70 186 -184v-18c0 -114 -73 -185 -186 -185z" />
    <glyph glyph-name="six" unicode="6" 
d="M269 -10h-30c-113 0 -186 73 -186 177v296c0 104 73 177 186 177h31c83 0 128 -34 158 -81c9 -15 19 -31 19 -37c0 -3 -2 -5 -6 -7l-80 -41c-4 -2 -8 -5 -12 -5c-3 0 -6 2 -8 7c-18 43 -44 59 -71 59h-31c-40 0 -71 -32 -71 -72v-91c0 -7 3 -11 8 -11c3 0 4 1 7 2
c21 11 46 19 66 19h30c98 0 177 -73 177 -177v-38c0 -104 -73 -177 -187 -177zM239 95h30c39 0 72 33 72 72v38c0 39 -33 72 -72 72h-30c-40 0 -71 -32 -71 -72v-38c0 -40 31 -72 71 -72z" />
    <glyph glyph-name="seven" unicode="7" 
d="M200 0h-94c-7 0 -10 3 -10 10v157c0 109 66 158 129 202c54 37 110 68 110 136v10c0 7 -3 10 -10 10h-238c-7 0 -10 3 -10 10v85c0 7 3 10 10 10h352c7 0 10 -3 10 -10v-115c0 -128 -79 -181 -149 -228c-47 -32 -90 -59 -90 -110v-157c0 -7 -3 -10 -10 -10z" />
    <glyph glyph-name="eight" unicode="8" 
d="M268 -10h-29c-114 0 -186 71 -186 185v24c0 37 25 85 53 113c3 3 4 5 4 7s-1 5 -4 7c-28 27 -53 71 -53 108v19c0 114 72 187 186 187h29c113 0 186 -73 186 -187v-19c0 -37 -25 -81 -53 -108c-3 -2 -4 -4 -4 -7c0 -2 1 -4 4 -7c28 -28 53 -76 53 -113v-24
c0 -114 -73 -185 -186 -185zM239 372h29c40 0 71 32 71 72v19c0 40 -31 72 -71 72h-29c-39 0 -72 -33 -72 -72v-19c0 -39 33 -72 72 -72zM239 95h29c40 0 71 32 71 72v29c0 40 -31 71 -71 71h-29c-40 0 -72 -31 -72 -71v-29c0 -39 33 -72 72 -72z" />
    <glyph glyph-name="nine" unicode="9" 
d="M269 -10h-28c-83 0 -128 34 -158 81c-9 15 -19 31 -19 37c0 3 2 5 6 7l80 41c4 2 8 5 12 5c3 0 6 -2 8 -7c18 -43 44 -59 71 -59h28c39 0 72 33 72 72v57c0 7 -3 11 -8 11c-3 0 -4 -1 -7 -2c-21 -11 -46 -18 -66 -18h-30c-98 0 -177 72 -177 176v72c0 104 73 177 186 177
h30c114 0 187 -73 187 -177v-296c0 -104 -73 -177 -187 -177zM239 320h30c40 0 72 31 72 71v72c0 39 -33 72 -72 72h-30c-40 0 -71 -32 -71 -72v-72c0 -40 31 -71 71 -71z" />
    <glyph glyph-name="colon" unicode=":" horiz-adv-x="230" 
d="M182 315c0 -36 -31 -67 -67 -67s-67 31 -67 67s31 67 67 67s67 -31 67 -67zM182 57c0 -36 -31 -67 -67 -67s-67 31 -67 67s31 67 67 67s67 -31 67 -67z" />
    <glyph glyph-name="semicolon" unicode=";" horiz-adv-x="230" 
d="M182 315c0 -36 -31 -67 -67 -67s-67 31 -67 67s31 67 67 67s67 -31 67 -67zM63 -123l-23 45c-3 6 -6 10 -6 14s2 6 6 8c27 15 39 45 39 62c0 6 -4 9 -10 9h-11c-7 0 -10 3 -10 10v97c0 7 3 10 10 10h114c7 0 10 -3 10 -10v-73c0 -80 -28 -125 -70 -155
c-19 -14 -36 -23 -41 -23c-3 0 -6 2 -8 6z" />
    <glyph glyph-name="less" unicode="&#x3c;" 
d="M365 25l-301 176c-3 2 -5 5 -5 9v69c0 5 2 7 5 9l306 179c8 5 11 7 15 7s6 -2 8 -6l30 -49c3 -5 6 -9 6 -13c0 -3 -2 -6 -6 -8l-248 -144c-4 -3 -7 -6 -7 -9s3 -6 7 -9l247 -142c4 -2 6 -5 6 -8c0 -4 -3 -7 -6 -13l-29 -52c-2 -4 -5 -6 -8 -6s-11 5 -20 10z" />
    <glyph glyph-name="equal" unicode="=" 
d="M458 286h-409c-7 0 -10 3 -10 10v66c0 7 3 10 10 10h409c7 0 10 -3 10 -10v-66c0 -7 -3 -10 -10 -10zM458 115h-409c-7 0 -10 3 -10 10v65c0 7 3 10 10 10h409c7 0 10 -3 10 -10v-65c0 -7 -3 -10 -10 -10z" />
    <glyph glyph-name="greater" unicode="&#x3e;" 
d="M114 21l-29 52c-3 6 -6 9 -6 13c0 3 2 6 6 8l247 142c4 3 7 6 7 9s-3 6 -7 9l-248 144c-4 2 -6 5 -6 8c0 4 3 8 6 13l30 49c2 4 4 6 8 6s7 -2 15 -7l306 -179c3 -2 5 -4 5 -9v-69c0 -4 -2 -7 -5 -9l-301 -176c-9 -5 -17 -10 -20 -10s-6 2 -8 6z" />
    <glyph glyph-name="question" unicode="?" horiz-adv-x="475" 
d="M238 172h-95c-6 0 -9 3 -10 8c-3 19 -6 41 -6 60c0 93 65 119 120 147c34 17 64 34 64 76c0 40 -31 72 -71 72h-36c-27 0 -53 -16 -71 -59c-2 -5 -5 -7 -8 -7c-4 0 -8 3 -12 5l-80 41c-4 2 -6 4 -6 7c0 6 10 22 19 37c30 47 75 81 158 81h36c113 0 186 -73 186 -177
c0 -117 -70 -145 -126 -171c-31 -15 -58 -28 -58 -66c0 -24 6 -39 6 -46c0 -6 -3 -8 -10 -8zM268 57c0 -36 -31 -67 -67 -67s-67 31 -67 67s31 67 67 67s67 -31 67 -67z" />
    <glyph glyph-name="at" unicode="@" horiz-adv-x="707" 
d="M530 0h-262c-114 0 -186 73 -186 177v276c0 104 72 177 186 177h172c113 0 186 -73 186 -177v-205c0 -56 -39 -95 -101 -95h-12c-27 0 -52 10 -69 24c-3 2 -6 5 -10 5s-7 -3 -11 -6c-21 -15 -48 -23 -70 -23c-81 0 -132 50 -132 125v79c0 74 52 124 132 124
c12 0 27 -3 40 -8c4 -2 11 -5 15 -5c5 0 7 3 7 7s3 6 8 6h52c7 0 10 -3 10 -10v-218c0 -17 12 -29 29 -29h11c17 0 29 14 29 29v200c0 62 -45 105 -114 105h-172c-70 0 -115 -43 -115 -105v-276c0 -62 45 -105 115 -105h262c7 0 10 -3 10 -10v-52c0 -7 -3 -10 -10 -10z
M415 285v64c0 33 -29 60 -62 60c-34 0 -60 -26 -60 -60v-64c0 -34 26 -61 60 -61c33 0 62 28 62 61z" />
    <glyph glyph-name="A" unicode="A" horiz-adv-x="450" 
d="M103 0h-100c-7 0 -11 3 -11 8c0 4 3 10 5 18l182 597c1 5 5 7 10 7h72c5 0 9 -2 10 -7l182 -597c2 -6 5 -14 5 -18c0 -5 -4 -8 -11 -8h-101c-5 0 -9 2 -10 7l-30 105c-1 5 -5 6 -10 6h-143c-5 0 -9 -1 -10 -6l-30 -105c-1 -5 -5 -7 -10 -7zM188 223h73c7 0 11 4 11 9
c0 4 -3 13 -5 19l-29 117c-2 7 -9 47 -11 55h-3c-2 -8 -10 -47 -12 -55l-30 -116c-2 -7 -5 -16 -5 -20c0 -5 4 -9 11 -9z" />
    <glyph glyph-name="B" unicode="B" horiz-adv-x="536" 
d="M302 0h-225c-7 0 -10 3 -10 10v610c0 7 3 10 10 10h225c114 0 186 -73 186 -186v-10c0 -37 -24 -80 -53 -108c-3 -2 -4 -5 -4 -7s1 -5 4 -7c29 -28 53 -76 53 -113v-15c0 -113 -72 -184 -186 -184zM192 372h110c39 0 72 33 72 72v9c0 39 -33 72 -72 72h-110
c-7 0 -10 -3 -10 -10v-133c0 -7 3 -10 10 -10zM192 105h110c39 0 72 31 72 72v19c0 40 -32 71 -72 71h-110c-7 0 -10 -3 -10 -10v-142c0 -7 3 -10 10 -10z" />
    <glyph glyph-name="C" unicode="C" horiz-adv-x="484" 
d="M288 -10h-49c-114 0 -186 73 -186 177v296c0 104 72 177 186 177h49c83 0 128 -34 158 -81c9 -15 19 -31 19 -37c0 -3 -2 -5 -6 -7l-80 -41c-4 -2 -8 -5 -12 -5c-3 0 -6 2 -8 7c-18 43 -44 59 -71 59h-49c-39 0 -72 -33 -72 -72v-296c0 -39 33 -72 72 -72h49
c27 0 53 16 71 59c2 5 5 7 8 7c4 0 8 -3 12 -5l80 -41c4 -2 6 -4 6 -7c0 -6 -10 -22 -19 -37c-30 -47 -75 -81 -158 -81z" />
    <glyph glyph-name="D" unicode="D" horiz-adv-x="541" 
d="M302 0h-225c-7 0 -10 3 -10 10v610c0 7 3 10 10 10h225c114 0 186 -73 186 -186v-258c0 -114 -72 -186 -186 -186zM192 105h110c39 0 72 31 72 72v276c0 39 -33 72 -72 72h-110c-7 0 -10 -3 -10 -10v-400c0 -7 3 -10 10 -10z" />
    <glyph glyph-name="E" unicode="E" horiz-adv-x="478" 
d="M430 0h-353c-7 0 -10 3 -10 10v610c0 7 3 10 10 10h353c7 0 10 -3 10 -10v-85c0 -7 -3 -10 -10 -10h-238c-7 0 -10 -3 -10 -10v-133c0 -7 3 -10 10 -10h195c7 0 10 -3 10 -10v-85c0 -7 -3 -10 -10 -10h-195c-7 0 -10 -3 -10 -10v-142c0 -7 3 -10 10 -10h238
c7 0 10 -3 10 -10v-85c0 -7 -3 -10 -10 -10z" />
    <glyph glyph-name="F" unicode="F" horiz-adv-x="454" 
d="M172 0h-95c-7 0 -10 3 -10 10v610c0 7 3 10 10 10h353c7 0 10 -3 10 -10v-85c0 -7 -3 -10 -10 -10h-238c-7 0 -10 -3 -10 -10v-133c0 -7 3 -10 10 -10h195c7 0 10 -3 10 -10v-85c0 -7 -3 -10 -10 -10h-195c-7 0 -10 -3 -10 -10v-247c0 -7 -3 -10 -10 -10z" />
    <glyph glyph-name="G" unicode="G" horiz-adv-x="527" 
d="M288 -10h-49c-114 0 -186 73 -186 177v296c0 104 72 177 186 177h66c83 0 128 -34 158 -81c9 -15 19 -31 19 -37c0 -3 -2 -5 -6 -7l-80 -41c-4 -2 -8 -5 -12 -5c-3 0 -6 2 -8 7c-18 43 -44 59 -71 59h-66c-39 0 -72 -33 -72 -72v-296c0 -39 33 -72 72 -72h49
c40 0 71 32 71 72v47c0 7 -3 10 -10 10h-94c-7 0 -10 3 -10 10v85c0 7 3 10 10 10h209c7 0 10 -3 10 -10v-152c0 -104 -73 -177 -186 -177z" />
    <glyph glyph-name="H" unicode="H" horiz-adv-x="570" 
d="M172 0h-95c-7 0 -10 3 -10 10v610c0 7 3 10 10 10h95c7 0 10 -3 10 -10v-238c0 -7 3 -10 10 -10h186c7 0 10 3 10 10v238c0 7 3 10 10 10h94c7 0 10 -3 10 -10v-610c0 -7 -3 -10 -10 -10h-94c-7 0 -10 3 -10 10v247c0 7 -3 10 -10 10h-186c-7 0 -10 -3 -10 -10v-247
c0 -7 -3 -10 -10 -10z" />
    <glyph glyph-name="I" unicode="I" horiz-adv-x="249" 
d="M172 0h-95c-7 0 -10 3 -10 10v610c0 7 3 10 10 10h95c7 0 10 -3 10 -10v-610c0 -7 -3 -10 -10 -10z" />
    <glyph glyph-name="J" unicode="J" horiz-adv-x="429" 
d="M9 118l76 36c9 4 15 7 18 7c4 0 6 -2 8 -6c16 -43 43 -60 71 -60c40 0 71 32 71 72v453c0 7 3 10 10 10h95c7 0 10 -3 10 -10v-443c0 -104 -84 -187 -186 -187c-57 0 -115 33 -154 79c-15 18 -26 35 -26 41c0 3 2 6 7 8z" />
    <glyph glyph-name="K" unicode="K" horiz-adv-x="521" 
d="M172 0h-95c-7 0 -10 3 -10 10v610c0 7 3 10 10 10h95c7 0 10 -3 10 -10v-222c0 -7 4 -12 9 -12c3 0 6 2 9 6l178 234c2 2 5 4 8 4h115c7 0 11 -3 11 -8c0 -2 -1 -5 -3 -8l-188 -233c-4 -5 -7 -9 -7 -13c0 -3 2 -6 6 -13l205 -332c4 -7 7 -11 7 -15c0 -5 -4 -8 -11 -8
h-117c-3 0 -6 2 -8 5l-157 251c-3 4 -6 7 -9 7s-6 -2 -8 -5l-32 -43c-5 -7 -8 -14 -8 -24v-181c0 -7 -3 -10 -10 -10z" />
    <glyph glyph-name="L" unicode="L" horiz-adv-x="454" 
d="M430 0h-353c-7 0 -10 3 -10 10v610c0 7 3 10 10 10h95c7 0 10 -3 10 -10v-505c0 -7 3 -10 10 -10h238c7 0 10 -3 10 -10v-85c0 -7 -3 -10 -10 -10z" />
    <glyph glyph-name="M" unicode="M" horiz-adv-x="637" 
d="M172 0h-95c-7 0 -10 3 -10 10v610c0 7 3 10 10 10h84c4 0 7 -2 9 -6l133 -318c3 -7 11 -37 13 -45h3c2 8 11 38 14 45l133 318c2 4 5 6 9 6h84c7 0 10 -3 10 -10v-610c0 -7 -3 -10 -10 -10h-94c-7 0 -10 3 -10 10v105c0 79 9 218 11 242l-4 1c-3 -8 -14 -54 -26 -80
l-83 -186c-2 -4 -5 -6 -9 -6h-51c-4 0 -7 2 -9 6l-83 186c-12 26 -23 72 -26 80l-4 -1c2 -24 11 -163 11 -242v-105c0 -7 -3 -10 -10 -10z" />
    <glyph glyph-name="N" unicode="N" horiz-adv-x="550" 
d="M172 0h-95c-7 0 -10 3 -10 10v610c0 7 3 10 10 10h84c4 0 7 -2 9 -5l179 -328c4 -7 18 -43 21 -51l4 1c-2 24 -6 168 -6 247v126c0 7 3 10 10 10h94c7 0 10 -3 10 -10v-610c0 -7 -3 -10 -10 -10h-83c-4 0 -7 2 -9 5l-179 326c-4 7 -18 43 -21 51l-4 -1
c2 -24 6 -168 6 -247v-124c0 -7 -3 -10 -10 -10z" />
    <glyph glyph-name="O" unicode="O" horiz-adv-x="527" 
d="M288 -10h-49c-114 0 -186 73 -186 177v296c0 104 72 177 186 177h49c113 0 186 -73 186 -177v-296c0 -104 -73 -177 -186 -177zM239 95h49c40 0 71 32 71 72v296c0 40 -31 72 -71 72h-49c-39 0 -72 -33 -72 -72v-296c0 -39 33 -72 72 -72z" />
    <glyph glyph-name="P" unicode="P" horiz-adv-x="483" 
d="M172 0h-95c-7 0 -10 3 -10 10v610c0 7 3 10 10 10h205c114 0 186 -74 186 -186c0 -99 -72 -177 -186 -177h-90c-7 0 -10 -3 -10 -10v-247c0 -7 -3 -10 -10 -10zM192 372h90c39 0 72 33 72 72v9c0 39 -33 72 -72 72h-90c-7 0 -10 -3 -10 -10v-133c0 -7 3 -10 10 -10z" />
    <glyph glyph-name="Q" unicode="Q" horiz-adv-x="527" 
d="M306 -86h-85c-7 0 -10 3 -10 10v59c0 6 -4 9 -10 10c-93 14 -148 82 -148 174v296c0 104 72 177 186 177h49c113 0 186 -73 186 -177v-296c0 -92 -58 -160 -151 -174c-5 -1 -7 -4 -7 -10v-59c0 -7 -3 -10 -10 -10zM215 114l13 40c2 5 5 7 10 7h51c5 0 8 -2 10 -7l13 -42
c2 -6 5 -8 8 -8c6 0 15 9 20 14c11 13 19 30 19 49v296c0 40 -31 72 -71 72h-49c-39 0 -72 -33 -72 -72v-296c0 -17 6 -34 17 -46c7 -8 17 -15 22 -15c4 0 7 3 9 8z" />
    <glyph glyph-name="R" unicode="R" horiz-adv-x="527" 
d="M172 0h-95c-7 0 -10 3 -10 10v610c0 7 3 10 10 10h225c114 0 186 -73 186 -186v-10c0 -51 -43 -110 -81 -136c-3 -2 -4 -4 -4 -8c0 -3 2 -8 5 -16l86 -250c2 -7 5 -13 5 -16c0 -5 -3 -8 -10 -8h-103c-4 0 -8 3 -9 7l-88 254c-1 4 -4 6 -8 6h-89c-7 0 -10 -3 -10 -10v-247
c0 -7 -3 -10 -10 -10zM192 372h110c39 0 72 33 72 72v9c0 39 -33 72 -72 72h-110c-7 0 -10 -3 -10 -10v-133c0 -7 3 -10 10 -10z" />
    <glyph glyph-name="S" unicode="S" horiz-adv-x="472" 
d="M251 -10h-40c-83 0 -128 34 -158 81c-9 15 -19 31 -19 37c0 3 2 5 6 7l80 41c4 2 8 5 12 5c3 0 6 -2 8 -7c18 -43 44 -59 71 -59h40c39 0 72 33 72 72c0 54 -53 74 -107 99c-79 38 -166 79 -166 197c0 104 72 177 186 177h16c83 0 128 -34 158 -81c9 -15 19 -31 19 -37
c0 -3 -2 -5 -6 -7l-80 -41c-4 -2 -8 -5 -12 -5c-3 0 -6 2 -8 7c-18 43 -44 59 -71 59h-16c-39 0 -72 -33 -72 -72c0 -51 58 -66 116 -93c76 -35 157 -82 157 -203c0 -104 -72 -177 -186 -177z" />
    <glyph glyph-name="T" unicode="T" horiz-adv-x="402" 
d="M248 0h-94c-7 0 -10 3 -10 10v505c0 7 -3 10 -10 10h-109c-7 0 -10 3 -10 10v85c0 7 3 10 10 10h352c7 0 10 -3 10 -10v-85c0 -7 -3 -10 -10 -10h-109c-7 0 -10 -3 -10 -10v-505c0 -7 -3 -10 -10 -10z" />
    <glyph glyph-name="U" unicode="U" horiz-adv-x="527" 
d="M288 -10h-49c-114 0 -186 73 -186 177v453c0 7 3 10 10 10h94c7 0 10 -3 10 -10v-453c0 -39 33 -72 72 -72h49c40 0 71 32 71 72v453c0 7 3 10 10 10h95c7 0 10 -3 10 -10v-453c0 -104 -73 -177 -186 -177z" />
    <glyph glyph-name="V" unicode="V" horiz-adv-x="450" 
d="M261 0h-72c-5 0 -9 2 -10 7l-182 596c-2 7 -5 14 -5 19s4 8 11 8h100c5 0 9 -2 10 -7l99 -360c2 -8 8 -38 10 -46h5c2 8 8 37 10 44l99 362c1 5 5 7 10 7h101c7 0 11 -3 11 -8c0 -4 -3 -11 -4 -15l-183 -600c-1 -5 -5 -7 -10 -7z" />
    <glyph glyph-name="W" unicode="W" horiz-adv-x="657" 
d="M218 0h-73c-5 0 -9 3 -10 8l-127 587c-2 11 -5 22 -5 27c0 6 3 8 10 8h102c5 0 9 -3 10 -8l58 -309c1 -7 8 -54 10 -62h5c2 8 11 54 13 62l82 312c1 5 5 7 10 7h50c5 0 9 -2 10 -7l82 -312c2 -8 11 -54 13 -62h5c2 8 8 53 10 62l59 309c1 5 5 8 10 8h102c7 0 10 -2 10 -8
c0 -4 -3 -17 -5 -27l-127 -587c-1 -5 -5 -8 -10 -8h-73c-5 0 -9 2 -10 7l-87 302c-2 7 -10 47 -12 55h-3c-2 -8 -10 -47 -12 -55l-87 -302c-1 -5 -5 -7 -10 -7z" />
    <glyph glyph-name="X" unicode="X" horiz-adv-x="458" 
d="M124 0h-107c-7 0 -11 3 -11 8c0 4 5 12 11 25l135 267c4 8 6 12 6 16s-2 7 -5 14l-139 273c-3 6 -8 14 -8 19s4 8 11 8h106c4 0 7 -3 9 -6l89 -184c2 -5 6 -8 9 -8s7 3 9 8l86 184c2 4 5 6 9 6h108c7 0 11 -3 11 -8c0 -4 -4 -10 -8 -18l-137 -273c-4 -7 -5 -12 -5 -16
s1 -8 5 -15l135 -270c5 -10 10 -18 10 -22c0 -5 -4 -8 -11 -8h-109c-4 0 -7 2 -9 6l-85 181c-2 5 -6 8 -9 8s-7 -3 -9 -8l-88 -181c-2 -3 -5 -6 -9 -6z" />
    <glyph glyph-name="Y" unicode="Y" horiz-adv-x="450" 
d="M272 0h-95c-7 0 -10 3 -10 10v264c0 10 -1 15 -7 27l-163 305c-4 7 -7 12 -7 16c0 5 4 8 11 8h111c4 0 7 -3 9 -6l95 -196c2 -5 6 -8 9 -8s7 3 9 8l95 196c2 3 5 6 9 6h110c7 0 11 -3 11 -8c0 -4 -4 -10 -7 -16l-163 -305c-5 -10 -7 -16 -7 -28v-263c0 -7 -3 -10 -10 -10
z" />
    <glyph glyph-name="Z" unicode="Z" horiz-adv-x="456" 
d="M396 0h-375c-7 0 -10 3 -10 8c0 4 3 10 7 19l211 471c4 8 7 16 7 19c0 5 -3 8 -10 8h-182c-7 0 -10 3 -10 10v85c0 7 3 10 10 10h355c7 0 10 -3 10 -8c0 -4 -3 -9 -7 -19l-213 -473c-4 -8 -6 -13 -6 -17c0 -5 3 -8 10 -8h203c7 0 10 -3 10 -10v-85c0 -7 -3 -10 -10 -10z
" />
    <glyph glyph-name="bracketleft" unicode="[" horiz-adv-x="394" 
d="M302 -172h-180c-7 0 -10 3 -10 10v877c0 7 3 10 10 10h180c7 0 10 -3 10 -10v-85c0 -7 -3 -10 -10 -10h-66c-7 0 -10 -3 -10 -10v-667c0 -7 3 -10 10 -10h66c7 0 10 -3 10 -10v-85c0 -7 -3 -10 -10 -10z" />
    <glyph glyph-name="backslash" unicode="\" horiz-adv-x="330" 
d="M327 0h-63c-4 0 -7 2 -9 6l-257 600c-3 6 -5 12 -5 16c0 5 3 8 10 8h63c4 0 7 -2 9 -6l256 -598c3 -8 6 -14 6 -18c0 -5 -3 -8 -10 -8z" />
    <glyph glyph-name="bracketright" unicode="]" horiz-adv-x="394" 
d="M272 -172h-180c-7 0 -10 3 -10 10v85c0 7 3 10 10 10h65c7 0 10 3 10 10v667c0 7 -3 10 -10 10h-65c-7 0 -10 3 -10 10v85c0 7 3 10 10 10h180c7 0 10 -3 10 -10v-877c0 -7 -3 -10 -10 -10z" />
    <glyph glyph-name="asciicircum" unicode="^" 
d="M20 271l195 369h74l198 -369h-105l-129 266h-3l-124 -266h-106z" />
    <glyph glyph-name="underscore" unicode="_" horiz-adv-x="230" 
d="M232 -215h-228c-7 0 -10 3 -10 10v52c0 7 3 10 10 10h228c7 0 10 -3 10 -10v-52c0 -7 -3 -10 -10 -10z" />
    <glyph glyph-name="quoteleft" unicode="&#x2018;" horiz-adv-x="189" 
d="M143 426h-99c-7 0 -10 3 -10 10v69c0 77 23 120 62 149c15 11 34 21 38 21c3 0 6 -2 8 -6l22 -43c3 -5 6 -10 6 -14c0 -3 -2 -6 -6 -8c-26 -11 -39 -38 -39 -57c0 -6 4 -10 10 -10h8c7 0 10 -3 10 -10v-91c0 -7 -3 -10 -10 -10z" />
    <glyph glyph-name="a" unicode="a" horiz-adv-x="465" 
d="M226 0h-38c-79 0 -141 54 -141 134v5c0 82 62 134 141 134h96c7 0 10 4 10 10v12c0 39 -32 68 -73 68c-24 0 -49 -15 -73 -57c-2 -4 -5 -6 -8 -6c-4 0 -8 3 -12 5l-76 40c-4 2 -6 4 -6 7c0 5 11 25 21 40c32 48 77 76 154 76c114 0 187 -72 187 -176v-282
c0 -7 -3 -10 -10 -10h-85c-7 0 -10 2 -10 8c0 8 -2 13 -7 13c-3 0 -6 -1 -9 -3c-22 -12 -42 -18 -61 -18zM188 105h38c32 0 63 27 68 56v16h-106c-15 0 -27 -13 -27 -28v-15c0 -16 11 -29 27 -29z" />
    <glyph glyph-name="b" unicode="b" horiz-adv-x="473" 
d="M153 0h-85c-7 0 -10 3 -10 10v610c0 7 3 10 10 10h94c7 0 10 -3 10 -10v-171c0 -7 3 -11 8 -11c3 0 5 1 8 2c21 11 46 18 65 18c99 0 177 -72 177 -176v-105c0 -104 -73 -177 -186 -177c-20 0 -45 7 -66 18c-3 1 -5 2 -8 2c-5 0 -7 -4 -7 -11c0 -5 -3 -9 -10 -9zM315 177
v105c0 40 -31 71 -71 71s-72 -31 -72 -71v-105c0 -41 33 -72 72 -72c40 0 71 31 71 72z" />
    <glyph glyph-name="c" unicode="c" horiz-adv-x="429" 
d="M326 153l75 -37c4 -2 6 -5 6 -8c0 -4 -7 -17 -15 -30c-31 -51 -75 -88 -162 -88c-114 0 -187 73 -187 177v124c0 104 73 177 187 177c87 0 131 -37 162 -88c8 -13 15 -26 15 -30c0 -3 -2 -6 -6 -8l-75 -37c-8 -4 -14 -7 -17 -7s-6 2 -8 6c-18 43 -45 59 -71 59
c-41 0 -72 -33 -72 -72v-124c0 -39 31 -72 72 -72c26 0 53 16 71 59c2 4 5 6 8 6s9 -3 17 -7z" />
    <glyph glyph-name="d" unicode="d" horiz-adv-x="473" 
d="M406 0h-85c-7 0 -10 2 -10 9s-3 11 -8 11c-2 0 -4 -1 -7 -2c-21 -11 -47 -18 -66 -18c-114 0 -187 73 -187 177v105c0 104 79 176 177 176c20 0 45 -7 66 -18c3 -1 4 -2 7 -2c5 0 8 4 8 11v171c0 7 3 10 10 10h95c7 0 10 -3 10 -10v-610c0 -7 -3 -10 -10 -10zM301 177
v105c0 40 -31 71 -71 71c-41 0 -72 -31 -72 -71v-105c0 -41 31 -72 72 -72c40 0 71 31 71 72z" />
    <glyph glyph-name="e" unicode="e" horiz-adv-x="459" 
d="M326 153l75 -37c4 -2 6 -5 6 -8c0 -4 -7 -17 -15 -30c-31 -51 -75 -88 -162 -88c-114 0 -187 73 -187 177v124c0 83 73 177 187 177c113 0 186 -94 186 -177v-81c0 -7 -3 -10 -10 -10h-238c-7 0 -10 -3 -10 -10v-23c0 -39 31 -72 72 -72c26 0 53 16 71 59c2 4 5 6 8 6
s9 -3 17 -7zM170 296h119c7 0 11 4 11 9c0 12 -20 58 -70 58c-49 0 -71 -45 -71 -58c0 -5 4 -9 11 -9z" />
    <glyph glyph-name="f" unicode="f" horiz-adv-x="292" 
d="M177 0h-95c-7 0 -10 3 -10 10v290c0 7 -3 10 -10 10h-23c-7 0 -10 3 -10 10v85c0 7 3 10 10 10h23c7 0 10 3 10 10v28c0 102 84 187 186 187c21 0 47 -3 64 -7c5 -1 8 -4 8 -8s-2 -10 -4 -15l-27 -74c-1 -4 -4 -8 -8 -8s-15 7 -33 7c-41 0 -71 -31 -71 -72v-38
c0 -7 3 -10 10 -10h65c7 0 10 -3 10 -10v-85c0 -7 -3 -10 -10 -10h-65c-7 0 -10 -3 -10 -10v-290c0 -7 -3 -10 -10 -10z" />
    <glyph glyph-name="g" unicode="g" horiz-adv-x="459" 
d="M315 -225h-128c-81 0 -144 44 -144 124v29c0 41 21 74 51 97c2 2 4 5 4 8c0 9 -19 19 -19 56c0 41 22 55 22 61c0 3 -1 5 -3 7c-33 32 -55 70 -55 121v14c0 104 82 166 187 166c16 0 36 -5 55 -13c7 -3 13 -7 18 -7s8 4 8 11c0 6 3 9 10 9h85c7 0 10 -3 10 -10v-165
c0 -104 -82 -173 -186 -173h-24c-10 0 -20 -11 -20 -28c0 -18 9 -30 22 -30h107c81 0 144 -43 144 -124v-29c0 -80 -63 -124 -144 -124zM301 278v14c0 40 -31 69 -71 69c-41 0 -72 -29 -72 -69v-14c0 -39 31 -65 72 -65c40 0 71 25 71 65zM187 -130h128c17 0 29 14 29 29v29
c0 17 -12 29 -29 29h-128c-17 0 -29 -12 -29 -29v-29c0 -15 12 -29 29 -29z" />
    <glyph glyph-name="h" unicode="h" horiz-adv-x="483" 
d="M162 0h-94c-7 0 -10 3 -10 10v610c0 7 3 10 10 10h94c7 0 10 -3 10 -10v-171c0 -7 3 -11 8 -11c3 0 4 1 7 2c21 11 47 18 66 18c100 0 177 -72 177 -176v-272c0 -7 -3 -10 -10 -10h-95c-7 0 -10 3 -10 10v272c0 40 -31 71 -71 71s-72 -31 -72 -71v-272
c0 -7 -3 -10 -10 -10z" />
    <glyph glyph-name="i" unicode="i" horiz-adv-x="230" 
d="M182 573c0 -36 -31 -67 -67 -67s-67 31 -67 67s31 67 67 67s67 -31 67 -67zM162 0h-94c-7 0 -10 3 -10 10v438c0 7 3 10 10 10h94c7 0 10 -3 10 -10v-438c0 -7 -3 -10 -10 -10z" />
    <glyph glyph-name="j" unicode="j" horiz-adv-x="230" 
d="M182 573c0 -36 -31 -67 -67 -67s-67 31 -67 67s31 67 67 67s67 -31 67 -67zM-28 -225v85c0 6 3 10 9 10c52 4 77 35 77 71v507c0 7 3 10 10 10h94c7 0 10 -3 10 -10v-498c0 -74 -43 -137 -114 -167c-24 -10 -58 -18 -76 -18c-6 0 -10 3 -10 10z" />
    <glyph glyph-name="k" unicode="k" horiz-adv-x="449" 
d="M162 0h-94c-7 0 -10 3 -10 10v610c0 7 3 10 10 10h94c7 0 10 -3 10 -10v-274c0 -7 4 -11 9 -11c3 0 5 1 8 4l102 112c4 4 7 7 14 7h116c7 0 11 -3 11 -8c0 -3 -1 -6 -4 -9l-134 -137c-4 -5 -6 -8 -6 -12s2 -7 6 -14l159 -257c3 -5 6 -9 6 -13c0 -5 -4 -8 -11 -8h-117
c-4 0 -7 2 -9 5l-115 189c-2 4 -5 6 -8 6c-2 0 -5 -1 -8 -4l-14 -14c-4 -4 -5 -7 -5 -11v-161c0 -7 -3 -10 -10 -10z" />
    <glyph glyph-name="l" unicode="l" horiz-adv-x="230" 
d="M162 0h-94c-7 0 -10 3 -10 10v610c0 7 3 10 10 10h94c7 0 10 -3 10 -10v-610c0 -7 -3 -10 -10 -10z" />
    <glyph glyph-name="m" unicode="m" horiz-adv-x="707" 
d="M162 0h-94c-7 0 -10 3 -10 10v438c0 7 3 10 10 10h85c7 0 10 -3 10 -10v-1c0 -7 3 -11 8 -11c3 0 4 1 7 2c24 13 51 20 66 20c36 0 76 -11 103 -36c2 -2 5 -3 7 -3s5 1 7 3c26 25 71 36 112 36c101 0 177 -72 177 -176v-272c0 -7 -3 -10 -10 -10h-95c-7 0 -10 3 -10 10
v272c0 39 -31 71 -62 71c-29 0 -62 -32 -62 -71v-272c0 -7 -3 -10 -10 -10h-95c-7 0 -10 3 -10 10v272c0 39 -31 71 -62 71c-28 0 -62 -32 -62 -71v-272c0 -7 -3 -10 -10 -10z" />
    <glyph glyph-name="n" unicode="n" horiz-adv-x="488" 
d="M162 0h-94c-7 0 -10 3 -10 10v438c0 7 3 10 10 10h85c7 0 10 -2 10 -9s3 -11 8 -11c3 0 4 1 7 2c21 11 46 18 66 18c113 0 186 -72 186 -176v-272c0 -7 -3 -10 -10 -10h-95c-7 0 -10 3 -10 10v272c0 40 -31 71 -71 71s-72 -31 -72 -71v-272c0 -7 -3 -10 -10 -10z" />
    <glyph glyph-name="o" unicode="o" horiz-adv-x="459" 
d="M43 167v124c0 104 73 177 187 177c113 0 186 -73 186 -177v-124c0 -104 -73 -177 -186 -177c-114 0 -187 73 -187 177zM301 167v124c0 40 -31 72 -71 72c-41 0 -72 -33 -72 -72v-124c0 -39 31 -72 72 -72c40 0 71 32 71 72z" />
    <glyph glyph-name="p" unicode="p" horiz-adv-x="473" 
d="M162 -225h-94c-7 0 -10 3 -10 10v663c0 7 3 10 10 10h85c7 0 10 -3 10 -9c0 -7 3 -11 8 -11c3 0 4 1 7 2c21 11 46 18 66 18c113 0 186 -72 186 -176v-105c0 -104 -78 -177 -177 -177c-19 0 -45 7 -66 18c-3 1 -4 2 -7 2c-5 0 -8 -4 -8 -11v-224c0 -7 -3 -10 -10 -10z
M315 177v105c0 40 -31 71 -71 71s-72 -31 -72 -71v-105c0 -41 33 -72 72 -72c40 0 71 31 71 72z" />
    <glyph glyph-name="q" unicode="q" horiz-adv-x="473" 
d="M406 -225h-95c-7 0 -10 3 -10 10v224c0 7 -3 11 -8 11c-3 0 -4 -1 -7 -2c-21 -11 -46 -18 -66 -18c-98 0 -177 73 -177 177v105c0 104 73 176 187 176c19 0 45 -7 66 -18c3 -1 4 -2 7 -2c5 0 8 4 8 11c0 6 3 9 10 9h85c7 0 10 -3 10 -10v-663c0 -7 -3 -10 -10 -10z
M301 177v105c0 40 -31 71 -71 71c-41 0 -72 -31 -72 -71v-105c0 -41 31 -72 72 -72c40 0 71 31 71 72z" />
    <glyph glyph-name="r" unicode="r" horiz-adv-x="304" 
d="M162 0h-94c-7 0 -10 3 -10 10v438c0 7 3 10 10 10h85c7 0 10 -1 10 -9v-14c0 -6 4 -10 8 -10s5 1 7 3c10 11 44 30 76 30c10 0 20 -1 28 -3c5 -1 8 -5 8 -10v-101c0 -7 -5 -11 -10 -11c-6 0 -15 9 -36 9c-41 0 -72 -30 -72 -70v-262c0 -7 -3 -10 -10 -10z" />
    <glyph glyph-name="s" unicode="s" horiz-adv-x="451" 
d="M234 -10h-29c-82 0 -127 35 -155 79c-10 16 -18 33 -18 38c0 3 2 6 6 8l72 35c6 3 12 6 15 6s6 -2 8 -7c15 -38 43 -57 72 -57h29c38 0 58 21 58 43c0 38 -55 35 -110 46c-72 14 -145 39 -145 132c0 98 78 155 168 155h29c80 0 125 -32 153 -74c10 -15 21 -37 21 -42
c0 -3 -2 -6 -6 -8l-76 -37c-4 -2 -7 -4 -11 -4c-3 0 -6 2 -8 6c-15 38 -44 57 -73 57h-29c-38 0 -55 -14 -55 -38c0 -38 55 -36 109 -48c72 -15 147 -40 147 -131c0 -85 -59 -159 -172 -159z" />
    <glyph glyph-name="t" unicode="t" horiz-adv-x="321" 
d="M277 86v-86c0 -7 -4 -10 -10 -10c-19 0 -55 6 -85 18c-69 28 -105 86 -105 159v176c0 7 -3 10 -10 10h-52c-7 0 -10 3 -10 9s1 27 2 54l115 122c3 3 7 6 12 6h47c7 0 10 -3 10 -10v-66c0 -7 3 -10 10 -10h66c7 0 10 -3 10 -10v-85c0 -7 -3 -10 -10 -10h-66
c-7 0 -10 -3 -10 -10v-176c0 -36 25 -67 77 -71c6 0 9 -4 9 -10z" />
    <glyph glyph-name="u" unicode="u" horiz-adv-x="478" 
d="M410 0h-85c-7 0 -10 4 -10 9c0 7 -3 11 -8 11c-3 0 -4 -1 -7 -2c-21 -11 -46 -18 -66 -18c-113 0 -186 73 -186 177v271c0 7 3 10 10 10h95c7 0 10 -3 10 -10v-271c0 -41 31 -72 71 -72c39 0 72 31 72 72v271c0 7 3 10 10 10h94c7 0 10 -3 10 -10v-438
c0 -7 -3 -10 -10 -10z" />
    <glyph glyph-name="v" unicode="v" horiz-adv-x="430" 
d="M251 0h-72c-4 0 -7 2 -9 6l-172 426c-3 8 -6 14 -6 18c0 5 3 8 10 8h101c4 0 7 -2 9 -6l90 -231c2 -6 10 -35 11 -44h4c1 9 9 38 11 44l90 231c2 4 5 6 9 6h102c7 0 10 -3 10 -8c0 -4 -2 -9 -5 -16l-174 -428c-2 -4 -5 -6 -9 -6z" />
    <glyph glyph-name="w" unicode="w" horiz-adv-x="599" 
d="M216 0h-70c-5 0 -9 2 -10 7l-127 418c-4 12 -7 21 -7 25c0 5 4 8 11 8h98c5 0 9 -2 10 -7l49 -190c4 -14 8 -45 10 -62h4c4 20 9 43 14 61l51 191c1 5 5 7 10 7h84c5 0 9 -2 10 -7l50 -191c6 -21 11 -46 14 -62h4c2 17 5 40 11 63l48 190c1 5 5 7 10 7h97
c7 0 11 -3 11 -8c0 -4 -4 -16 -7 -25l-128 -418c-1 -5 -5 -7 -10 -7h-69c-5 0 -9 2 -10 7l-60 211c-5 18 -9 38 -12 54h-4c-3 -16 -9 -39 -13 -54l-59 -211c-1 -5 -5 -7 -10 -7z" />
    <glyph glyph-name="x" unicode="x" horiz-adv-x="409" 
d="M111 0h-96c-7 0 -11 3 -11 8c0 4 4 10 9 19l109 187c4 7 6 12 6 16s-2 8 -7 16l-125 191c-3 5 -6 10 -6 13c0 5 3 8 10 8h112c3 0 6 -2 8 -5l76 -122c2 -4 4 -6 7 -6s6 2 8 6l77 122c2 3 5 5 8 5h113c7 0 11 -3 11 -8c0 -3 -3 -8 -7 -14l-127 -193c-4 -6 -6 -9 -6 -13
s2 -8 6 -14l127 -195c4 -6 6 -9 6 -13c0 -5 -3 -8 -10 -8h-112c-4 0 -7 2 -9 5l-75 121c-3 4 -6 7 -9 7s-6 -3 -9 -7l-75 -121c-2 -3 -6 -5 -9 -5z" />
    <glyph glyph-name="y" unicode="y" horiz-adv-x="478" 
d="M64 -110l80 40c5 3 8 4 11 4s6 -2 8 -6c17 -42 44 -58 71 -58c39 0 72 33 72 72v62c0 7 -2 11 -7 11c-3 0 -5 -1 -7 -2c-19 -9 -39 -13 -58 -13c-113 0 -186 73 -186 177v271c0 7 3 10 10 10h95c7 0 10 -3 10 -10v-271c0 -41 31 -72 71 -72c39 0 72 31 72 72v271
c0 7 3 10 10 10h94c7 0 10 -3 10 -10v-497c0 -107 -63 -186 -186 -186c-78 0 -123 30 -153 73c-16 22 -23 39 -23 44c0 3 2 6 6 8z" />
    <glyph glyph-name="z" unicode="z" horiz-adv-x="430" 
d="M390 0h-372c-7 0 -11 3 -11 8c0 4 4 10 11 22l174 290c7 11 12 20 12 24c0 5 -4 8 -11 8h-154c-7 0 -10 3 -10 10v85c0 7 3 10 10 10h355c7 0 11 -3 11 -8c0 -4 -5 -13 -12 -24l-175 -290c-7 -11 -11 -18 -11 -22c0 -5 4 -8 11 -8h172c7 0 10 -3 10 -10v-85
c0 -7 -3 -10 -10 -10z" />
    <glyph glyph-name="braceleft" unicode="{" horiz-adv-x="418" 
d="M344 -76v-86c0 -7 -4 -10 -10 -10c-23 0 -60 8 -87 19c-68 29 -103 89 -103 167v139c0 36 -25 66 -77 70c-6 0 -9 4 -9 10v87c0 6 3 10 9 10c52 4 77 35 77 71v138c0 80 36 139 104 168c35 15 67 18 86 18c6 0 10 -3 10 -10v-86c0 -6 -3 -10 -9 -10
c-52 -4 -77 -34 -77 -70v-158c0 -37 -25 -81 -53 -108c-3 -2 -4 -5 -4 -7s1 -4 4 -7c28 -28 53 -76 53 -113v-151c0 -36 25 -67 77 -71c6 0 9 -4 9 -10z" />
    <glyph glyph-name="bar" unicode="|" horiz-adv-x="250" 
d="M82 -250v1000h86v-1000h-86z" />
    <glyph glyph-name="braceright" unicode="}" horiz-adv-x="418" 
d="M74 -162v86c0 6 3 10 9 10c52 4 77 35 77 71v151c0 37 25 85 53 113c3 3 4 5 4 7s-1 5 -4 7c-28 27 -53 71 -53 108v158c0 36 -25 66 -77 70c-6 0 -9 4 -9 10v86c0 7 4 10 10 10c19 0 51 -3 86 -18c68 -29 104 -88 104 -168v-138c0 -36 25 -67 77 -71c6 0 9 -4 9 -10v-87
c0 -6 -3 -10 -9 -10c-52 -4 -77 -34 -77 -70v-139c0 -78 -35 -138 -103 -167c-27 -11 -64 -19 -87 -19c-6 0 -10 3 -10 10z" />
    <glyph glyph-name="asciitilde" unicode="~" 
d="M83 167l-56 64c31 47 69 86 132 86c38 0 70 -11 101 -30c34 -21 58 -32 86 -32c34 0 61 31 79 64l56 -63c-33 -53 -72 -87 -131 -87c-35 0 -71 11 -103 31c-27 18 -55 32 -85 32c-35 0 -62 -34 -79 -65z" />
    <glyph glyph-name="exclamdown" unicode="&#xa1;" horiz-adv-x="306" 
d="M220 401c0 -36 -31 -67 -67 -67s-67 31 -67 67s31 67 67 67s67 -31 67 -67zM200 -172h-94c-7 0 -10 3 -10 10v261l21 178c1 6 4 9 10 9h50c6 0 9 -3 10 -9l23 -178v-261c0 -7 -3 -10 -10 -10z" />
    <glyph glyph-name="cent" unicode="&#xa2;" 
d="M297 -60h-52c-7 0 -10 3 -10 10v57c0 6 -4 10 -10 10c-103 9 -167 78 -167 176v124c0 98 64 167 167 176c6 0 10 4 10 10v57c0 7 3 10 10 10h52c7 0 10 -3 10 -10v-56c0 -6 2 -10 8 -10c73 -4 114 -35 143 -77c13 -19 21 -34 21 -39c0 -4 -2 -7 -6 -9l-75 -37
c-5 -3 -13 -7 -17 -7c-3 0 -6 2 -8 6c-10 21 -22 37 -34 47c-9 7 -18 11 -24 11s-8 -5 -8 -12v-244c0 -7 2 -10 7 -10c7 0 23 9 31 16c10 9 20 23 28 42c2 4 5 6 8 6c4 0 10 -3 17 -7l75 -37c4 -2 6 -5 6 -9c0 -5 -7 -17 -19 -36c-29 -45 -70 -77 -145 -82
c-6 0 -8 -4 -8 -10v-56c0 -7 -3 -10 -10 -10zM235 134v242c0 7 -3 12 -9 12s-16 -5 -25 -12c-17 -13 -28 -34 -28 -59v-124c0 -26 11 -47 30 -60c5 -4 18 -10 23 -10c6 0 9 4 9 11z" />
    <glyph glyph-name="sterling" unicode="&#xa3;" 
d="M444 0h-438c-7 0 -10 3 -10 10v85c0 7 3 10 10 10h56c36 6 63 35 63 72v80c0 7 -3 10 -10 10h-23c-7 0 -10 3 -10 10v85c0 7 3 10 10 10h23c7 0 10 3 10 10v71c0 102 84 187 186 187c75 0 119 -29 150 -70c16 -21 27 -41 27 -47c0 -4 -2 -7 -6 -9l-72 -36
c-11 -5 -16 -8 -20 -8c-3 0 -6 2 -8 6c-18 43 -45 59 -71 59c-39 0 -72 -33 -72 -72v-81c0 -7 3 -10 10 -10h66c7 0 10 -3 10 -10v-85c0 -7 -3 -10 -10 -10h-66c-7 0 -10 -3 -10 -10v-90c0 -26 -11 -46 -11 -53c0 -5 3 -9 10 -9h206c7 0 10 -3 10 -10v-85
c0 -7 -3 -10 -10 -10z" />
    <glyph glyph-name="fraction" unicode="&#x2044;" horiz-adv-x="193" 
d="M-1 0h-54c-7 0 -10 3 -10 8c0 4 3 10 6 18l256 598c2 4 5 6 9 6h54c7 0 10 -3 10 -8c0 -4 -2 -10 -5 -16l-257 -600c-2 -4 -5 -6 -9 -6z" />
    <glyph glyph-name="yen" unicode="&#xa5;" 
d="M301 0h-95c-7 0 -10 3 -10 10v66c0 7 -3 10 -10 10h-142c-7 0 -10 3 -10 10v76c0 7 3 10 10 10h142c7 0 10 3 10 10v46c0 7 -3 10 -10 10h-142c-7 0 -10 3 -10 10v76c0 7 3 10 10 10h105c7 0 11 3 11 8c0 4 -4 11 -6 15l-129 240c-4 7 -6 11 -6 15c0 5 4 8 11 8h110
c4 0 7 -3 9 -6l95 -196c2 -5 6 -8 9 -8s7 3 9 8l95 196c2 3 5 6 9 6h111c7 0 11 -3 11 -8c0 -4 -4 -10 -9 -20l-125 -234c-3 -6 -7 -12 -7 -16c0 -5 4 -8 11 -8h105c7 0 10 -3 10 -10v-76c0 -7 -3 -10 -10 -10h-142c-7 0 -10 -3 -10 -10v-46c0 -7 3 -10 10 -10h142
c7 0 10 -3 10 -10v-76c0 -7 -3 -10 -10 -10h-142c-7 0 -10 -3 -10 -10v-66c0 -7 -3 -10 -10 -10z" />
    <glyph glyph-name="florin" unicode="&#x192;" 
d="M40 -205l27 74c1 4 4 8 8 8s15 -7 33 -7c41 0 71 31 71 72v315c0 7 -3 10 -10 10h-23c-7 0 -10 3 -10 10v85c0 7 3 10 10 10h23c7 0 10 3 10 10v71c0 102 84 187 186 187c21 0 47 -3 64 -7c5 -1 8 -4 8 -8s-2 -10 -4 -15l-27 -74c-1 -4 -4 -8 -8 -8s-15 7 -33 7
c-41 0 -72 -31 -72 -72v-81c0 -7 3 -10 10 -10h66c7 0 10 -3 10 -10v-85c0 -7 -3 -10 -10 -10h-66c-7 0 -10 -3 -10 -10v-305c0 -102 -84 -187 -186 -187c-21 0 -46 3 -63 7c-5 1 -8 4 -8 8s2 10 4 15z" />
    <glyph glyph-name="section" unicode="&#xa7;" 
d="M269 -235h-40c-83 0 -128 34 -158 81c-9 15 -19 31 -19 37c0 3 2 5 6 7l80 41c4 2 8 5 12 5c3 0 6 -2 8 -7c18 -43 44 -59 71 -59h40c40 0 71 32 71 72c0 133 -273 93 -273 296v20c0 33 7 62 21 88c4 7 6 10 6 14c0 3 -2 7 -6 14c-14 24 -21 52 -21 89
c0 104 73 177 186 177h16c83 0 128 -34 158 -81c9 -15 19 -31 19 -37c0 -3 -2 -5 -6 -7l-80 -41c-4 -2 -8 -5 -12 -5c-3 0 -6 2 -8 7c-18 43 -44 59 -71 59h-16c-40 0 -71 -32 -71 -72c0 -118 273 -82 273 -296v-20c0 -32 -8 -59 -21 -84c-4 -8 -7 -12 -7 -15s1 -5 5 -12
c14 -26 23 -56 23 -94c0 -104 -73 -177 -186 -177zM340 140v27c0 64 -67 84 -134 112c-5 2 -10 5 -15 5c-6 0 -9 -5 -9 -15v-31c0 -56 66 -73 131 -101c9 -4 14 -7 19 -7s8 3 8 10z" />
    <glyph glyph-name="currency" unicode="&#xa4;" horiz-adv-x="615" 
d="M533 175c-18 -18 -35 -36 -52 -54c-23 23 -46 45 -68 68c-34 -24 -75 -37 -116 -37c-35 0 -79 9 -116 37c-23 -23 -46 -45 -68 -68c-18 18 -35 36 -53 54c23 21 46 44 69 65c-24 36 -36 76 -36 114s11 79 36 114l-69 66c18 18 35 36 53 54c22 -23 45 -45 68 -68
c39 27 81 36 116 36c36 0 81 -11 115 -36c23 23 46 45 69 68c17 -18 34 -36 52 -54l-69 -66c27 -38 37 -80 37 -114c0 -37 -12 -77 -37 -114c23 -21 46 -44 69 -65zM426 355c0 75 -64 128 -129 128c-74 0 -130 -59 -130 -128c0 -70 59 -129 130 -129s129 58 129 129z" />
    <glyph glyph-name="quotesingle" unicode="'" horiz-adv-x="182" 
d="M116 430h-49c-6 0 -9 3 -10 9l-20 150c-2 12 -4 26 -4 32s4 9 10 9h96c6 0 10 -3 10 -9c0 -5 -2 -19 -4 -33l-19 -149c-1 -6 -4 -9 -10 -9z" />
    <glyph glyph-name="quotedblleft" unicode="&#x201c;" horiz-adv-x="346" 
d="M300 426h-99c-7 0 -10 3 -10 10v69c0 77 23 120 62 149c15 11 34 21 38 21c3 0 6 -2 8 -6l22 -43c3 -5 6 -10 6 -14c0 -3 -2 -6 -6 -8c-26 -11 -39 -38 -39 -57c0 -6 4 -10 10 -10h8c7 0 10 -3 10 -10v-91c0 -7 -3 -10 -10 -10zM143 426h-99c-7 0 -10 3 -10 10v69
c0 77 23 120 62 149c15 11 34 21 38 21c3 0 6 -2 8 -6l22 -43c3 -5 6 -10 6 -14c0 -3 -2 -6 -6 -8c-26 -11 -39 -38 -39 -57c0 -6 4 -10 10 -10h8c7 0 10 -3 10 -10v-91c0 -7 -3 -10 -10 -10z" />
    <glyph glyph-name="guillemotleft" unicode="&#xab;" horiz-adv-x="574" 
d="M499 84l-217 153c-2 2 -4 5 -4 8v71c0 3 2 6 4 8l217 154c3 2 5 3 8 3c5 0 8 -4 8 -11v-89c0 -3 -2 -6 -4 -8l-118 -84c-3 -2 -5 -5 -5 -8s2 -5 5 -8l118 -85c2 -2 4 -5 4 -8v-88c0 -7 -3 -11 -8 -11c-3 0 -5 1 -8 3zM268 84l-216 153c-2 2 -4 5 -4 8v71c0 3 2 6 4 8
l216 154c3 2 5 3 8 3c5 0 8 -4 8 -11v-89c0 -4 -2 -6 -4 -8l-118 -84c-3 -2 -5 -5 -5 -8c0 -4 2 -5 5 -8l118 -85c2 -2 4 -5 4 -8v-88c0 -7 -3 -11 -8 -11c-3 0 -5 1 -8 3z" />
    <glyph glyph-name="guilsinglleft" unicode="&#x2039;" horiz-adv-x="343" 
d="M268 84l-216 153c-2 2 -4 5 -4 8v71c0 3 2 6 4 8l216 154c3 2 6 3 8 3c5 0 8 -4 8 -11v-89c0 -3 -2 -6 -4 -8l-118 -84c-3 -2 -5 -5 -5 -8s2 -5 5 -8l118 -85c2 -2 4 -5 4 -8v-88c0 -7 -3 -11 -8 -11c-2 0 -5 1 -8 3z" />
    <glyph glyph-name="guilsinglright" unicode="&#x203a;" horiz-adv-x="343" 
d="M59 92v88c0 3 2 6 4 8l117 85c3 3 5 5 5 8s-2 5 -5 8l-117 84c-2 2 -4 5 -4 8v89c0 7 3 11 8 11c2 0 5 -1 8 -3l216 -154c2 -2 4 -5 4 -8v-71c0 -3 -2 -6 -4 -8l-216 -153c-3 -2 -6 -3 -8 -3c-5 0 -8 4 -8 11z" />
    <glyph glyph-name="endash" unicode="&#x2013;" horiz-adv-x="555" 
d="M506 200h-457c-7 0 -10 3 -10 10v66c0 7 3 10 10 10h457c7 0 10 -3 10 -10v-66c0 -7 -3 -10 -10 -10z" />
    <glyph glyph-name="dagger" unicode="&#x2020;" horiz-adv-x="401" 
d="M220 -225h-38c-7 0 -10 3 -10 10l-19 531c5 31 8 51 8 56c0 6 -3 8 -9 8s-136 -13 -143 -13c-6 0 -9 4 -9 10v84c0 6 4 10 10 10c5 0 139 -12 145 -12s9 3 9 9c0 7 -12 148 -12 152c0 6 3 10 10 10h78c7 0 10 -4 10 -10c0 -5 -12 -146 -12 -152s3 -9 9 -9
c5 0 140 12 144 12c6 0 10 -4 10 -10v-84c0 -6 -3 -10 -9 -10s-136 13 -142 13s-9 -2 -9 -8s4 -29 8 -56l-19 -531c0 -7 -3 -10 -10 -10z" />
    <glyph glyph-name="daggerdbl" unicode="&#x2021;" horiz-adv-x="401" 
d="M220 -225h-38c-7 0 -10 3 -10 10l-12 377c0 6 -4 10 -10 10c-5 0 -135 -12 -140 -12c-6 0 -10 4 -10 10v84c0 6 3 10 9 10c7 0 133 -12 138 -12c7 0 9 4 9 10s-1 19 -3 55c5 31 8 50 8 55c0 6 -3 8 -9 8s-136 -13 -143 -13c-6 0 -9 4 -9 10v84c0 6 4 10 10 10
c5 0 138 -12 145 -12c6 0 9 3 9 9c0 7 -12 146 -12 152s3 10 10 10h78c7 0 10 -4 10 -10c0 -7 -12 -145 -12 -152c0 -6 3 -9 9 -9s138 12 144 12s10 -4 10 -10v-84c0 -6 -3 -10 -9 -10c-7 0 -137 13 -142 13c-6 0 -9 -2 -9 -8s3 -24 8 -54c-2 -37 -3 -51 -3 -56
c0 -6 2 -10 9 -10c8 0 131 12 137 12s9 -4 9 -10v-84c0 -6 -4 -10 -10 -10c-4 0 -135 12 -139 12c-6 0 -10 -4 -10 -10l-12 -377c0 -7 -3 -10 -10 -10z" />
    <glyph glyph-name="periodcentered" unicode="&#xb7;" 
d="M321 243c0 -36 -31 -67 -67 -67s-68 31 -68 67s31 67 67 67s68 -31 68 -67z" />
    <glyph glyph-name="paragraph" unicode="&#xb6;" horiz-adv-x="637" 
d="M358 -225h-95c-7 0 -10 3 -10 10v291c0 7 -3 10 -10 10h-4c-114 0 -186 77 -186 176v182c0 112 72 186 186 186h321c7 0 10 -3 10 -10v-835c0 -7 -3 -10 -10 -10h-95c-7 0 -10 3 -10 10v730c0 7 -3 10 -10 10h-67c-7 0 -10 -3 -10 -10v-730c0 -7 -3 -10 -10 -10z" />
    <glyph glyph-name="bullet" unicode="&#x2022;" horiz-adv-x="500" 
d="M252 157h-4c-95 0 -157 61 -157 148v20c0 87 62 147 157 147h4c95 0 157 -60 157 -147v-20c0 -87 -62 -148 -157 -148z" />
    <glyph glyph-name="quotesinglbase" unicode="&#x201a;" horiz-adv-x="189" 
d="M47 -109l-22 43c-3 5 -6 10 -6 14c0 3 2 6 6 8c26 11 39 38 39 57c0 6 -4 10 -10 10h-8c-7 0 -10 3 -10 10v91c0 7 3 10 10 10h99c7 0 10 -3 10 -10v-69c0 -77 -23 -120 -62 -149c-15 -11 -34 -21 -38 -21c-3 0 -6 2 -8 6z" />
    <glyph glyph-name="quotedblbase" unicode="&#x201e;" horiz-adv-x="346" 
d="M204 -109l-22 43c-3 5 -6 10 -6 14c0 3 2 6 6 8c26 11 39 38 39 57c0 6 -4 10 -10 10h-8c-7 0 -10 3 -10 10v91c0 7 3 10 10 10h99c7 0 10 -3 10 -10v-69c0 -77 -23 -120 -62 -149c-15 -11 -34 -21 -38 -21c-3 0 -6 2 -8 6zM47 -109l-22 43c-3 5 -6 10 -6 14c0 3 2 6 6 8
c26 11 39 38 39 57c0 6 -4 10 -10 10h-8c-7 0 -10 3 -10 10v91c0 7 3 10 10 10h99c7 0 10 -3 10 -10v-69c0 -77 -23 -120 -62 -149c-15 -11 -34 -21 -38 -21c-3 0 -6 2 -8 6z" />
    <glyph glyph-name="quotedblright" unicode="&#x201d;" horiz-adv-x="346" 
d="M204 387l-22 43c-3 5 -6 10 -6 14c0 3 2 6 6 8c26 11 39 38 39 57c0 6 -4 10 -10 10h-8c-7 0 -10 3 -10 10v91c0 7 3 10 10 10h99c7 0 10 -3 10 -10v-69c0 -77 -23 -120 -62 -149c-15 -11 -34 -21 -38 -21c-3 0 -6 2 -8 6zM47 387l-22 43c-3 5 -6 10 -6 14c0 3 2 6 6 8
c26 11 39 38 39 57c0 6 -4 10 -10 10h-8c-7 0 -10 3 -10 10v91c0 7 3 10 10 10h99c7 0 10 -3 10 -10v-69c0 -77 -23 -120 -62 -149c-15 -11 -34 -21 -38 -21c-3 0 -6 2 -8 6z" />
    <glyph glyph-name="guillemotright" unicode="&#xbb;" horiz-adv-x="574" 
d="M290 92v88c0 3 2 6 4 8l118 85c3 3 5 5 5 8s-2 6 -5 8l-118 84c-2 2 -4 5 -4 8v89c0 7 3 11 8 11c3 0 5 -1 8 -3l216 -154c2 -2 4 -5 4 -8v-71c0 -3 -2 -6 -4 -8l-216 -153c-3 -2 -5 -3 -8 -3c-5 0 -8 4 -8 11zM59 92v88c0 3 2 6 4 8l117 85c3 3 5 5 5 8s-2 5 -5 8
l-117 84c-2 2 -4 5 -4 8v89c0 7 3 11 8 11c3 0 5 -1 8 -3l216 -154c2 -2 4 -5 4 -8v-71c0 -3 -2 -6 -4 -8l-216 -153c-3 -2 -5 -3 -8 -3c-5 0 -8 4 -8 11z" />
    <glyph glyph-name="ellipsis" unicode="&#x2026;" horiz-adv-x="1000" 
d="M864 57c0 -36 -31 -67 -67 -67s-67 31 -67 67s31 67 67 67s67 -31 67 -67zM566 57c0 -36 -31 -67 -67 -67s-67 31 -67 67s31 67 67 67s67 -31 67 -67zM268 57c0 -36 -31 -67 -67 -67s-67 31 -67 67s31 67 67 67s67 -31 67 -67z" />
    <glyph glyph-name="perthousand" unicode="&#x2030;" horiz-adv-x="788" 
d="M543 95v96c0 56 39 95 100 95s100 -39 100 -95v-96c0 -56 -39 -95 -100 -95s-100 39 -100 95zM46 439v93c0 56 39 98 100 98c62 0 101 -39 101 -95v-96c0 -56 -39 -95 -101 -95c-61 0 -100 39 -100 95zM170 0h-53c-7 0 -10 3 -10 8s4 14 13 34l249 582c2 4 5 6 9 6h53
c7 0 10 -3 10 -8s-4 -12 -13 -34l-249 -582c-2 -4 -5 -6 -9 -6zM301 95v96c0 56 39 95 100 95s100 -39 100 -95v-96c0 -56 -39 -95 -100 -95s-100 39 -100 95zM662 95v96c0 11 -8 19 -19 19s-19 -8 -19 -19v-96c0 -11 8 -19 19 -19s19 8 19 19zM166 439v96
c0 10 -10 19 -20 19c-11 0 -19 -8 -19 -19v-96c0 -11 8 -19 19 -19c10 0 20 9 20 19zM420 95v96c0 11 -8 19 -19 19s-19 -8 -19 -19v-96c0 -11 8 -19 19 -19s19 8 19 19z" />
    <glyph glyph-name="questiondown" unicode="&#xbf;" horiz-adv-x="475" 
d="M341 401c0 -36 -31 -67 -67 -67s-67 31 -67 67s31 67 67 67s67 -31 67 -67zM271 -182h-36c-113 0 -186 73 -186 177c0 117 70 145 126 171c31 15 58 28 58 66c0 24 -6 39 -6 46c0 6 3 8 10 8h95c6 0 9 -3 10 -8c3 -19 6 -41 6 -60c0 -93 -65 -119 -120 -147
c-34 -17 -64 -34 -64 -76c0 -40 31 -72 71 -72h36c27 0 53 16 71 59c2 5 5 7 8 7c4 0 8 -3 12 -5l80 -41c4 -2 6 -4 6 -7c0 -6 -10 -22 -19 -37c-30 -47 -75 -81 -158 -81z" />
    <glyph glyph-name="grave" unicode="`" horiz-adv-x="500" 
d="M299 523h-68c-6 0 -11 3 -16 7l-142 140c-4 4 -7 7 -7 12s4 8 11 8h122c5 0 11 -3 14 -8l90 -138c3 -5 6 -9 6 -13c0 -5 -3 -8 -10 -8z" />
    <glyph glyph-name="acute" unicode="&#xb4;" horiz-adv-x="500" 
d="M269 523h-68c-7 0 -10 3 -10 8c0 4 3 8 6 13l90 138c3 5 9 8 14 8h122c7 0 11 -3 11 -8s-3 -8 -7 -12l-142 -140c-5 -4 -10 -7 -16 -7z" />
    <glyph glyph-name="circumflex" unicode="&#x2c6;" horiz-adv-x="500" 
d="M202 523h-81c-7 0 -11 3 -11 8c0 3 1 5 3 8l104 147c2 2 5 4 8 4h49c3 0 6 -2 8 -4l105 -147c2 -3 3 -6 3 -8c0 -5 -4 -8 -11 -8h-81c-3 0 -6 2 -8 5l-33 51c-2 4 -5 6 -8 6c-2 0 -5 -2 -7 -6l-32 -51c-2 -3 -5 -5 -8 -5z" />
    <glyph glyph-name="tilde" unicode="&#x2dc;" horiz-adv-x="500" 
d="M130 551l-34 25c-3 2 -4 4 -4 8s5 14 14 28c27 42 55 58 87 58c23 0 44 -9 68 -26l17 -12c8 -6 20 -11 28 -11c13 0 26 6 43 34c2 4 5 6 8 6c4 0 7 -3 11 -6l36 -29c3 -2 4 -5 4 -8c0 -4 -7 -17 -18 -34c-26 -38 -54 -55 -84 -55c-22 0 -43 13 -69 29l-18 11
c-8 5 -18 10 -26 10c-13 0 -25 -7 -41 -31c-2 -4 -5 -6 -8 -6s-8 4 -14 9z" />
    <glyph glyph-name="macron" unicode="&#xaf;" horiz-adv-x="500" 
d="M364 539h-228c-7 0 -10 3 -10 10v85c0 7 3 10 10 10h228c7 0 10 -3 10 -10v-85c0 -7 -3 -10 -10 -10z" />
    <glyph glyph-name="breve" unicode="&#x2d8;" horiz-adv-x="500" 
d="M271 523h-43c-61 0 -100 39 -100 95v62c0 7 3 10 10 10h51c7 0 10 -3 10 -10v-43c0 -15 14 -28 29 -28h43c16 0 28 12 28 28v43c0 7 3 10 10 10h52c7 0 10 -3 10 -10v-62c0 -56 -39 -95 -100 -95z" />
    <glyph glyph-name="dotaccent" unicode="&#x2d9;" horiz-adv-x="500" 
d="M312 595c0 -35 -27 -62 -62 -62s-62 27 -62 62s27 62 62 62s62 -27 62 -62z" />
    <glyph glyph-name="dieresis" unicode="&#xa8;" horiz-adv-x="500" 
d="M396 595c0 -35 -27 -62 -62 -62s-62 27 -62 62s27 62 62 62s62 -27 62 -62zM227 595c0 -35 -27 -62 -62 -62s-62 27 -62 62s27 62 62 62s62 -27 62 -62z" />
    <glyph glyph-name="ring" unicode="&#x2da;" horiz-adv-x="500" 
d="M150 605v29c0 56 39 95 100 95s100 -39 100 -95v-29c0 -56 -39 -95 -100 -95s-100 39 -100 95zM279 605v29c0 15 -14 29 -29 29s-29 -14 -29 -29v-29c0 -15 14 -28 29 -28s29 13 29 28z" />
    <glyph glyph-name="cedilla" unicode="&#xb8;" horiz-adv-x="500" 
d="M229 -215h-59c-7 0 -10 3 -10 10v66c0 7 3 10 10 10h59c9 0 18 8 18 17v8c0 9 -9 18 -18 18h-40c-7 0 -10 3 -10 8c0 4 3 10 8 20l51 107c2 4 5 6 9 6c3 0 10 -2 20 -4l44 -10c6 -1 9 -4 9 -8c0 -3 -3 -9 -5 -13l-16 -32c-2 -5 -5 -10 -5 -13s1 -5 4 -7
c26 -14 42 -40 42 -72v-8c0 -62 -49 -103 -111 -103z" />
    <glyph glyph-name="hungarumlaut" unicode="&#x2dd;" horiz-adv-x="500" 
d="M317 523h-40c-7 0 -10 3 -10 8c0 3 2 10 8 26l43 126c1 4 5 7 9 7h83c7 0 11 -3 11 -8c0 -4 -4 -12 -9 -19l-86 -135c-2 -3 -6 -5 -9 -5zM199 523h-48c-7 0 -10 3 -10 8c0 3 2 10 8 26l43 126c1 4 5 7 9 7h83c7 0 11 -3 11 -8c0 -4 -5 -12 -9 -19l-78 -135
c-2 -3 -6 -5 -9 -5z" />
    <glyph glyph-name="ogonek" unicode="&#x2db;" horiz-adv-x="500" 
d="M361 -138v-66c0 -6 -3 -10 -9 -10c-15 0 -47 8 -66 17c-51 25 -82 72 -82 125v119c0 7 3 10 10 10h73c7 0 10 -3 10 -10v-125c0 -24 16 -45 55 -50c6 -1 9 -4 9 -10z" />
    <glyph glyph-name="caron" unicode="&#x2c7;" horiz-adv-x="500" 
d="M274 523h-49c-3 0 -6 2 -8 4l-97 137c-6 9 -10 14 -10 18c0 5 4 8 11 8h81c3 0 6 -2 8 -5l32 -51c2 -4 4 -6 7 -6s6 2 8 6l33 51c2 3 5 5 8 5h81c7 0 11 -3 11 -8c0 -4 -5 -11 -10 -18l-98 -137c-2 -2 -5 -4 -8 -4z" />
    <glyph glyph-name="caron.alt" unicode="&#xe503;" horiz-adv-x="500" 
d="M211 506l-23 34c-1 2 -2 4 -2 7s1 6 3 8l7 9c15 24 22 64 22 104v21c0 7 2 9 7 9h67c4 0 7 -2 7 -9v-22c0 -71 -22 -129 -76 -164c-2 -1 -4 -1 -5 -1c-3 0 -6 1 -7 4z" />
    <glyph glyph-name="emdash" unicode="&#x2014;" horiz-adv-x="813" 
d="M764 200h-715c-7 0 -10 3 -10 10v66c0 7 3 10 10 10h715c7 0 10 -3 10 -10v-66c0 -7 -3 -10 -10 -10z" />
    <glyph glyph-name="AE" unicode="&#xc6;" horiz-adv-x="686" 
d="M41 0h-102c-7 0 -11 3 -11 8c0 4 5 12 11 22l351 595c2 3 5 5 9 5h339c7 0 10 -3 10 -10v-85c0 -7 -3 -10 -10 -10h-238c-7 0 -10 -3 -10 -10v-133c0 -7 3 -10 10 -10h195c7 0 10 -3 10 -10v-85c0 -7 -3 -10 -10 -10h-195c-7 0 -10 -3 -10 -10v-142c0 -7 3 -10 10 -10
h238c7 0 10 -3 10 -10v-85c0 -7 -3 -10 -10 -10h-353c-7 0 -10 3 -10 10v118c0 7 -3 10 -10 10h-133c-3 0 -8 -1 -10 -4l-72 -129c-2 -3 -6 -5 -9 -5zM204 243h61c7 0 10 3 10 10v40c0 48 4 99 6 123l-4 1c-3 -8 -19 -44 -23 -51l-55 -101c-3 -6 -6 -11 -6 -14
c0 -5 4 -8 11 -8z" />
    <glyph glyph-name="ordfeminine" unicode="&#xaa;" horiz-adv-x="331" 
d="M158 302h-21c-58 0 -104 40 -104 99v3c0 61 46 99 104 99h62c5 0 7 2 7 7v4c0 24 -20 42 -45 42c-23 0 -37 -18 -48 -37c-2 -4 -5 -7 -9 -7s-10 4 -16 7l-49 25c-5 2 -7 5 -7 9s6 17 15 31c23 36 57 56 113 56c83 0 136 -53 136 -129v-197c0 -9 -3 -12 -12 -12h-59
c-8 0 -10 4 -10 13c0 6 -2 9 -5 9c-4 0 -7 -2 -10 -5c-14 -13 -30 -17 -42 -17zM137 385h30c20 0 36 13 39 32v3c0 4 -3 6 -6 6h-63c-7 0 -14 -7 -14 -15v-10c0 -8 6 -16 14 -16z" />
    <glyph glyph-name="Lslash" unicode="&#x141;" horiz-adv-x="454" 
d="M430 0h-353c-7 0 -10 3 -10 10v186c0 7 -2 10 -5 10c-2 0 -4 -2 -6 -4l-6 -6c-3 -3 -5 -4 -8 -4s-5 1 -7 3l-50 46c-3 2 -4 5 -4 7c0 3 1 4 4 7l71 70c7 7 11 15 11 25v270c0 7 3 10 10 10h95c7 0 10 -3 10 -10v-157c0 -5 1 -7 4 -7c2 0 3 1 5 3l6 6c2 2 5 4 7 4
s5 -2 7 -4l49 -46c3 -2 4 -5 4 -7c0 -3 -1 -4 -4 -7l-69 -69c-6 -6 -9 -12 -9 -21v-200c0 -7 3 -10 10 -10h238c7 0 10 -3 10 -10v-85c0 -7 -3 -10 -10 -10z" />
    <glyph glyph-name="Oslash" unicode="&#xd8;" horiz-adv-x="527" 
d="M288 -10h-49c-114 0 -186 73 -186 177v296c0 104 72 177 186 177h49c113 0 186 -73 186 -177v-296c0 -104 -73 -177 -186 -177zM181 247l133 267c1 3 2 5 2 7c0 5 -3 9 -7 10c-7 2 -13 4 -21 4h-49c-39 0 -72 -33 -72 -72v-212c0 -6 3 -9 7 -9c2 0 5 1 7 5zM239 95h49
c40 0 71 32 71 72v261c0 5 -3 8 -6 8s-5 -1 -7 -5l-149 -299c-2 -5 -4 -9 -4 -13c0 -5 2 -8 6 -11c12 -8 25 -13 40 -13z" />
    <glyph glyph-name="OE" unicode="&#x152;" horiz-adv-x="750" 
d="M268 -10h-29c-114 0 -186 73 -186 177v296c0 104 72 177 186 177h29c23 0 46 -4 64 -10h370c7 0 10 -3 10 -10v-85c0 -7 -3 -10 -10 -10h-244c-7 0 -11 -3 -11 -8c0 -6 7 -17 7 -54v-81c0 -7 3 -10 10 -10h195c7 0 10 -3 10 -10v-85c0 -7 -3 -10 -10 -10h-195
c-7 0 -10 -3 -10 -10v-90c0 -35 -7 -48 -7 -54c0 -5 4 -8 11 -8h244c7 0 10 -3 10 -10v-85c0 -7 -3 -10 -10 -10h-372c-18 -6 -39 -10 -62 -10zM239 95h29c40 0 71 32 71 72v296c0 40 -31 72 -71 72h-29c-39 0 -72 -33 -72 -72v-296c0 -39 33 -72 72 -72z" />
    <glyph glyph-name="ordmasculine" unicode="&#xba;" horiz-adv-x="321" 
d="M25 424v87c0 75 53 129 136 129c82 0 135 -54 135 -129v-87c0 -76 -53 -129 -135 -129c-83 0 -136 53 -136 129zM206 424v87c0 25 -20 45 -45 45c-26 0 -45 -21 -45 -45v-87c0 -24 19 -46 45 -46c25 0 45 21 45 46z" />
    <glyph glyph-name="ae" unicode="&#xe6;" horiz-adv-x="719" 
d="M237 -10h-47c-81 0 -144 54 -144 134v19c0 80 63 134 144 134h104c7 0 10 3 10 10v2c0 40 -31 72 -71 72c-27 0 -54 -16 -71 -58c-2 -4 -5 -6 -8 -6s-8 2 -13 5l-78 39c-4 2 -6 5 -6 8c0 5 5 15 16 33c30 48 76 84 160 84c46 0 88 -13 119 -36c3 -2 8 -7 12 -7s9 4 12 7
c31 24 69 38 114 38c113 0 186 -94 186 -177v-81c0 -7 -3 -10 -10 -10h-238c-7 0 -10 -3 -10 -10v-23c0 -39 31 -72 72 -72c26 0 53 16 71 59c2 4 5 6 8 6s9 -3 17 -7l75 -37c4 -2 6 -5 6 -8c0 -4 -7 -17 -15 -30c-31 -51 -75 -88 -162 -88c-59 0 -104 19 -134 49
c-3 3 -4 4 -7 4c-2 0 -5 -1 -7 -4c-29 -31 -77 -49 -105 -49zM430 296h119c7 0 11 4 11 9c0 12 -20 58 -70 58c-49 0 -71 -45 -71 -58c0 -5 4 -9 11 -9zM190 95h47c30 0 56 30 67 56v23c0 5 -4 8 -10 8h-104c-17 0 -29 -14 -29 -29v-29c0 -15 12 -29 29 -29z" />
    <glyph glyph-name="dotlessi" unicode="&#x131;" horiz-adv-x="230" 
d="M162 0h-94c-7 0 -10 3 -10 10v438c0 7 3 10 10 10h94c7 0 10 -3 10 -10v-438c0 -7 -3 -10 -10 -10z" />
    <glyph glyph-name="lslash" unicode="&#x142;" horiz-adv-x="230" 
d="M162 0h-94c-7 0 -10 3 -10 10v186c0 7 -2 10 -5 10c-2 0 -4 -2 -6 -4l-6 -6c-3 -3 -5 -4 -8 -4s-5 1 -7 3l-50 46c-3 2 -4 5 -4 7c0 3 1 4 4 7l71 70c7 7 11 15 11 25v270c0 7 3 10 10 10h94c7 0 10 -3 10 -10v-157c0 -5 1 -7 4 -7c2 0 3 1 5 3l6 6c2 2 5 4 7 4
s5 -2 7 -4l49 -46c3 -2 4 -5 4 -7c0 -3 -1 -4 -4 -7l-69 -69c-6 -6 -9 -12 -9 -21v-305c0 -7 -3 -10 -10 -10z" />
    <glyph glyph-name="oslash" unicode="&#xf8;" horiz-adv-x="459" 
d="M43 167v124c0 104 73 177 187 177c113 0 186 -73 186 -177v-124c0 -104 -73 -177 -186 -177c-114 0 -187 73 -187 177zM168 192l69 154c1 3 2 6 2 8c0 5 -3 9 -9 9c-41 0 -72 -33 -72 -72v-97c0 -5 1 -8 4 -8s4 2 6 6zM301 167v120c0 6 -3 9 -6 9s-5 -2 -7 -7l-78 -174
c-2 -3 -2 -6 -2 -9c0 -5 3 -9 9 -10c4 -1 8 -1 13 -1c40 0 71 32 71 72z" />
    <glyph glyph-name="oe" unicode="&#x153;" horiz-adv-x="716" 
d="M583 153l75 -37c4 -2 6 -5 6 -8c0 -4 -7 -17 -15 -30c-31 -51 -75 -88 -162 -88c-48 0 -86 12 -115 32c-4 3 -9 8 -14 8s-10 -5 -14 -8c-29 -20 -69 -32 -114 -32c-114 0 -187 73 -187 177v124c0 104 73 177 187 177c48 0 88 -13 120 -37c4 -3 7 -7 12 -7c4 0 10 5 13 7
c31 22 67 37 112 37c113 0 186 -94 186 -177v-81c0 -7 -3 -10 -10 -10h-238c-7 0 -10 -3 -10 -10v-23c0 -39 31 -72 72 -72c26 0 53 16 71 59c2 4 5 6 8 6s9 -3 17 -7zM427 296h119c7 0 11 4 11 9c0 12 -20 58 -70 58c-49 0 -71 -45 -71 -58c0 -5 4 -9 11 -9zM301 167v124
c0 40 -31 72 -71 72c-41 0 -72 -33 -72 -72v-124c0 -39 31 -72 72 -72c40 0 71 32 71 72z" />
    <glyph glyph-name="germandbls" unicode="&#xdf;" horiz-adv-x="491" 
d="M176 0h-94c-7 0 -10 3 -10 10v290c0 7 -3 10 -10 10h-23c-7 0 -10 3 -10 10v85c0 7 3 10 10 10h23c7 0 10 3 10 10v28c0 102 84 187 186 187c113 0 186 -73 186 -187v-19c0 -37 -25 -81 -53 -108c-3 -2 -4 -5 -4 -7c0 -3 1 -4 4 -7c28 -28 53 -76 53 -113v-24
c0 -85 -41 -146 -119 -172c-27 -9 -59 -13 -72 -13c-6 0 -10 3 -10 10v86c0 6 3 10 9 10c53 4 77 35 77 71v29c0 36 -24 66 -77 70c-6 0 -9 4 -9 10v87c0 6 3 10 9 10c53 4 77 35 77 71v19c0 40 -31 72 -71 72c-43 0 -72 -33 -72 -72v-453c0 -7 -3 -10 -10 -10z" />
    <glyph glyph-name="one.superior" unicode="&#xb9;" horiz-adv-x="335" 
d="M296 348h-234c-3 0 -6 1 -6 6v67c0 4 3 6 6 6h64c6 0 8 2 8 7v104c0 3 -2 4 -4 4c-1 0 -2 0 -4 -1l-16 -13c-1 -1 -7 -6 -9 -6s-4 0 -6 2l-43 39c-4 4 -7 7 -7 9c0 1 0 3 2 5l120 112c2 1 6 3 9 3h42c4 0 6 -2 6 -7v-251c0 -5 2 -7 9 -7h63c4 0 6 -2 6 -6v-67
c0 -5 -2 -6 -6 -6z" />
    <glyph glyph-name="logicalnot" unicode="&#xac;" 
d="M458 115h-75c-7 0 -10 3 -10 10v151c0 7 -3 10 -10 10h-314c-7 0 -10 3 -10 10v66c0 7 3 10 10 10h409c7 0 10 -3 10 -10v-237c0 -7 -3 -10 -10 -10z" />
    <glyph glyph-name="mu" unicode="&#xb5;" horiz-adv-x="478" 
d="M153 -160h-95c-7 0 -10 3 -10 10v598c0 7 3 10 10 10h95c7 0 10 -3 10 -10v-271c0 -41 31 -72 71 -72c39 0 72 31 72 72v271c0 7 3 10 10 10h94c7 0 10 -3 10 -10v-438c0 -7 -3 -10 -10 -10h-85c-7 0 -10 4 -10 9c0 7 -3 11 -8 11c-3 0 -4 -1 -7 -2
c-21 -11 -46 -18 -66 -18c-22 0 -42 3 -61 8c-7 2 -10 -1 -10 -8v-150c0 -7 -3 -10 -10 -10z" />
    <glyph glyph-name="trademark" unicode="&#x2122;" horiz-adv-x="428" 
d="M226 360h-12c-7 0 -10 3 -10 10v168c0 7 3 10 10 10h12c3 0 7 -2 9 -5l47 -81c3 -4 6 -7 9 -7s6 3 9 7l47 81c2 3 6 5 9 5h12c7 0 10 -3 10 -10v-168c0 -7 -3 -10 -10 -10h-12c-7 0 -10 3 -10 10v72c0 8 -4 12 -9 12c-3 0 -7 -3 -10 -7l-25 -41c-2 -3 -6 -5 -9 -5h-4
c-3 0 -6 2 -8 5l-27 41c-3 4 -7 7 -10 7c-4 0 -8 -4 -8 -12v-72c0 -7 -3 -10 -10 -10zM109 360h-12c-7 0 -10 3 -10 10v137c0 7 -3 10 -10 10h-27c-7 0 -10 3 -10 10v11c0 7 3 10 10 10h106c7 0 10 -3 10 -10v-11c0 -7 -3 -10 -10 -10h-27c-7 0 -10 -3 -10 -10v-137
c0 -7 -3 -10 -10 -10z" />
    <glyph glyph-name="Eth" unicode="&#xd0;" horiz-adv-x="541" 
d="M302 0h-225c-7 0 -10 3 -10 10v238c0 6 -3 10 -11 10h-31c-7 0 -10 3 -10 10v94c0 7 3 10 10 10h31c8 0 11 4 11 11v237c0 7 3 10 10 10h225c114 0 186 -73 186 -186v-258c0 -114 -72 -186 -186 -186zM192 105h110c39 0 72 31 72 72v276c0 39 -33 72 -72 72h-110
c-7 0 -10 -3 -10 -10v-133c0 -6 4 -10 11 -10h76c7 0 10 -3 10 -10v-94c0 -7 -3 -10 -10 -10h-76c-9 0 -11 -5 -11 -11v-132c0 -7 3 -10 10 -10z" />
    <glyph glyph-name="onehalf" unicode="&#xbd;" horiz-adv-x="863" 
d="M296 251h-234c-3 0 -6 1 -6 6v67c0 4 3 6 6 6h64c6 0 8 2 8 7v104c0 3 -2 4 -4 4c-1 0 -2 0 -4 -1l-16 -13c-1 -1 -7 -6 -9 -6s-4 0 -6 2l-43 39c-4 4 -7 7 -7 9c0 1 0 3 2 5l120 112c2 1 6 3 9 3h42c4 0 6 -2 6 -7v-251c0 -5 2 -7 9 -7h63c4 0 6 -2 6 -6v-67
c0 -5 -2 -6 -6 -6zM821 0h-248c-4 0 -7 2 -7 6v52c0 102 62 119 112 131c36 8 65 13 65 39c0 23 -15 37 -41 37h-24c-17 0 -33 -13 -48 -37c-2 -2 -4 -5 -7 -5c-2 0 -9 3 -15 6l-55 25c-2 2 -3 4 -3 6s0 3 1 5c26 48 60 79 125 79h26c80 0 130 -50 130 -121
c0 -75 -71 -89 -121 -101c-27 -7 -50 -13 -50 -31v-6c0 -4 2 -6 8 -6h152c4 0 6 -1 6 -6v-67c0 -4 -2 -6 -6 -6zM334 0h-54c-7 0 -10 3 -10 8c0 4 3 10 6 18l256 598c2 4 5 6 9 6h54c7 0 10 -3 10 -8c0 -4 -2 -10 -5 -16l-257 -600c-2 -4 -5 -6 -9 -6z" />
    <glyph glyph-name="plusminus" unicode="&#xb1;" 
d="M286 152h-66c-7 0 -10 3 -10 10v151c0 7 -3 10 -10 10h-151c-7 0 -10 3 -10 10v66c0 7 3 10 10 10h151c7 0 10 3 10 10v152c0 7 3 10 10 10h66c7 0 10 -3 10 -10v-152c0 -7 3 -10 10 -10h152c7 0 10 -3 10 -10v-66c0 -7 -3 -10 -10 -10h-152c-7 0 -10 -3 -10 -10v-151
c0 -7 -3 -10 -10 -10zM458 0h-409c-7 0 -10 3 -10 10v66c0 7 3 10 10 10h409c7 0 10 -3 10 -10v-66c0 -7 -3 -10 -10 -10z" />
    <glyph glyph-name="Thorn" unicode="&#xde;" horiz-adv-x="483" 
d="M172 0h-95c-7 0 -10 3 -10 10v610c0 7 3 10 10 10h95c7 0 10 -3 10 -10v-99c0 -8 4 -11 11 -11h89c114 0 186 -74 186 -186c0 -99 -72 -177 -186 -177h-90c-7 0 -10 -3 -10 -10v-127c0 -7 -3 -10 -10 -10zM192 252h90c39 0 72 33 72 72v9c0 39 -33 72 -72 72h-90
c-7 0 -10 -3 -10 -10v-133c0 -7 3 -10 10 -10z" />
    <glyph glyph-name="onequarter" unicode="&#xbc;" horiz-adv-x="863" 
d="M296 251h-234c-3 0 -6 1 -6 6v67c0 4 3 6 6 6h64c6 0 8 2 8 7v104c0 3 -2 4 -4 4c-1 0 -2 0 -4 -1l-16 -13c-1 -1 -7 -6 -9 -6s-4 0 -6 2l-43 39c-4 4 -7 7 -7 9c0 1 0 3 2 5l120 112c2 1 6 3 9 3h42c4 0 6 -2 6 -7v-251c0 -5 2 -7 9 -7h63c4 0 6 -2 6 -6v-67
c0 -5 -2 -6 -6 -6zM776 0h-65c-7 0 -11 4 -11 19v39c0 7 -4 10 -9 10h-134c-7 0 -11 3 -11 14v55l158 195c3 3 6 7 9 7h63c9 0 12 -3 12 -10v-175c0 -5 3 -6 6 -6h40c7 0 11 -4 11 -19v-42c0 -11 -4 -19 -11 -19h-40c-5 0 -6 -1 -6 -7v-42c0 -15 -3 -19 -12 -19zM657 148h37
c6 0 6 2 6 8v48c0 3 0 5 -2 5s-4 -3 -7 -7l-34 -44c-3 -4 -5 -6 -5 -8s2 -2 5 -2zM344 0h-54c-7 0 -10 3 -10 8c0 4 3 10 6 18l256 598c2 4 5 6 9 6h54c7 0 10 -3 10 -8c0 -4 -2 -10 -5 -16l-257 -600c-2 -4 -5 -6 -9 -6z" />
    <glyph glyph-name="divide" unicode="&#xf7;" 
d="M321 402c0 -36 -31 -67 -67 -67s-68 31 -68 67s31 67 67 67s68 -31 68 -67zM458 200h-409c-7 0 -10 3 -10 10v66c0 7 3 10 10 10h409c7 0 10 -3 10 -10v-66c0 -7 -3 -10 -10 -10zM320 83h1c0 -36 -31 -67 -67 -67s-68 31 -68 67s31 67 67 67s67 -31 67 -67z" />
    <glyph glyph-name="brokenbar" unicode="&#xa6;" horiz-adv-x="250" 
d="M82 367v358h86v-358h-86zM82 -172v358h86v-358h-86z" />
    <glyph glyph-name="degree" unicode="&#xb0;" horiz-adv-x="293" 
d="M46 439v93c0 56 39 98 100 98c62 0 101 -39 101 -95v-96c0 -56 -39 -95 -101 -95c-61 0 -100 39 -100 95zM166 439v96c0 10 -10 19 -20 19c-11 0 -19 -8 -19 -19v-96c0 -11 8 -19 19 -19c10 0 20 9 20 19z" />
    <glyph glyph-name="thorn" unicode="&#xfe;" horiz-adv-x="473" 
d="M162 -225h-94c-7 0 -10 3 -10 10v835c0 7 3 10 10 10h85c7 0 10 -3 10 -9v-172c0 -7 3 -11 8 -11c3 0 4 1 7 2c21 11 46 18 66 18c113 0 186 -72 186 -176v-105c0 -104 -78 -177 -177 -177c-19 0 -45 7 -66 18c-3 1 -4 2 -7 2c-5 0 -8 -4 -8 -11v-224
c0 -7 -3 -10 -10 -10zM315 177v105c0 40 -31 71 -71 71s-72 -31 -72 -71v-105c0 -41 33 -72 72 -72c40 0 71 31 71 72z" />
    <glyph glyph-name="threequarters" unicode="&#xbe;" horiz-adv-x="863" 
d="M167 246h-15c-57 0 -84 22 -106 48c-6 7 -19 27 -19 33c0 5 5 8 12 11c14 5 53 21 58 21s6 -3 11 -11c9 -16 25 -23 44 -23h15c27 0 44 5 44 22v17c0 18 -15 21 -44 21h-57c-9 0 -12 2 -12 13v56c0 9 3 10 12 10h57c30 0 44 6 44 23v7c0 17 -16 22 -44 22h-15
c-19 0 -36 -9 -48 -30c-2 -2 -4 -3 -6 -3s-7 2 -10 3l-55 25c-3 1 -6 4 -6 8c0 5 7 18 18 31c21 23 50 45 107 45h15c80 0 132 -41 132 -106v-7c0 -19 -13 -41 -30 -57c17 -18 30 -41 30 -59v-15c0 -65 -52 -105 -132 -105zM776 0h-65c-7 0 -11 4 -11 19v39c0 7 -4 10 -9 10
h-134c-7 0 -11 3 -11 14v55l158 195c3 3 6 7 9 7h63c9 0 12 -3 12 -10v-175c0 -5 3 -6 6 -6h40c7 0 11 -4 11 -19v-42c0 -11 -4 -19 -11 -19h-40c-5 0 -6 -1 -6 -7v-42c0 -15 -3 -19 -12 -19zM657 148h37c6 0 6 2 6 8v48c0 3 0 5 -2 5s-4 -3 -7 -7l-34 -44
c-3 -4 -5 -6 -5 -8s2 -2 5 -2zM334 0h-54c-7 0 -10 3 -10 8c0 4 3 10 6 18l256 598c2 4 5 6 9 6h54c7 0 10 -3 10 -8c0 -4 -2 -10 -5 -16l-257 -600c-2 -4 -5 -6 -9 -6z" />
    <glyph glyph-name="two.superior" unicode="&#xb2;" horiz-adv-x="335" 
d="M293 348h-248c-4 0 -7 2 -7 6v52c0 102 62 119 112 131c36 8 65 13 65 39c0 23 -15 37 -41 37h-24c-17 0 -33 -13 -48 -37c-2 -2 -4 -5 -7 -5c-2 0 -9 3 -15 6l-55 25c-2 2 -3 4 -3 6s0 3 1 5c26 48 60 79 125 79h26c80 0 130 -50 130 -121c0 -75 -71 -89 -121 -101
c-27 -7 -50 -13 -50 -31v-6c0 -4 2 -6 8 -6h152c4 0 6 -1 6 -6v-67c0 -4 -2 -6 -6 -6z" />
    <glyph glyph-name="registered" unicode="&#xae;" horiz-adv-x="460" 
d="M232 270h-4c-110 0 -180 70 -180 170v20c0 100 70 170 180 170h4c110 0 180 -70 180 -170v-20c0 -100 -70 -170 -180 -170zM228 300h4c91 0 150 57 150 140v20c0 83 -59 140 -150 140h-4c-91 0 -150 -57 -150 -140v-20c0 -83 59 -140 150 -140zM189 360h-11
c-7 0 -10 3 -10 10v168c0 7 3 10 10 10h63c38 0 63 -25 63 -63v-4c0 -16 -13 -35 -26 -45c-3 -2 -4 -4 -4 -7c0 -4 2 -7 5 -13l17 -34c4 -7 6 -11 6 -14c0 -5 -4 -8 -11 -8h-16c-4 0 -7 2 -9 6l-23 53c-2 4 -5 6 -9 6h-25c-7 0 -10 -3 -10 -10v-45c0 -7 -3 -10 -10 -10z
M209 453h32c18 0 31 14 31 32v3c0 18 -13 32 -31 32h-32c-7 0 -10 -3 -10 -10v-47c0 -7 3 -10 10 -10z" />
    <glyph glyph-name="minus" unicode="&#x2212;" 
d="M458 200h-409c-7 0 -10 3 -10 10v66c0 7 3 10 10 10h409c7 0 10 -3 10 -10v-66c0 -7 -3 -10 -10 -10z" />
    <glyph glyph-name="eth" unicode="&#xf0;" horiz-adv-x="459" 
d="M43 167v124c0 92 57 159 149 174l-38 38l-97 -38c-2 -1 -4 -1 -6 -1c-5 0 -8 2 -8 6v34c0 7 1 14 6 16l63 25l-64 65c-4 3 -9 9 -9 12c0 4 5 8 12 8h101c6 0 6 -3 10 -7l42 -42l97 38c4 2 11 5 14 5c5 0 10 -3 10 -7v-37c0 -5 -2 -11 -8 -13l-72 -28l137 -135
c22 -29 34 -70 34 -113v-124c0 -104 -73 -177 -186 -177c-114 0 -187 73 -187 177zM301 167v124c0 40 -31 72 -71 72c-41 0 -72 -33 -72 -72v-124c0 -39 31 -72 72 -72c40 0 71 32 71 72z" />
    <glyph glyph-name="multiply" unicode="&#xd7;" 
d="M111 54l-46 47c-3 2 -4 5 -4 7s1 4 4 7l121 121c2 2 4 5 4 7c0 3 -2 5 -4 8l-121 121c-3 2 -4 5 -4 7s1 4 4 7l46 47c2 2 5 4 7 4c3 0 5 -2 8 -4l121 -122c2 -3 5 -4 7 -4s4 1 7 4l121 121c2 2 5 4 7 4s4 -2 7 -4l47 -46c2 -3 4 -5 4 -8c0 -2 -2 -5 -4 -7l-121 -120
c-3 -3 -4 -5 -4 -8c0 -2 1 -5 4 -7l121 -120c2 -3 4 -5 4 -8c0 -2 -2 -5 -4 -7l-47 -46c-3 -3 -5 -4 -7 -4s-5 1 -7 4l-121 121c-3 2 -5 4 -7 4s-5 -2 -7 -4l-121 -122c-3 -3 -5 -4 -8 -4c-2 0 -5 1 -7 4z" />
    <glyph glyph-name="three.superior" unicode="&#xb3;" horiz-adv-x="335" 
d="M167 343h-15c-57 0 -84 22 -106 48c-6 7 -19 27 -19 33c0 5 5 8 12 11c14 5 53 21 58 21s6 -3 11 -11c9 -16 25 -23 44 -23h15c27 0 44 5 44 22v17c0 18 -15 21 -44 21h-57c-9 0 -12 2 -12 13v56c0 9 3 10 12 10h57c30 0 44 6 44 23v7c0 17 -16 22 -44 22h-15
c-19 0 -36 -9 -48 -30c-2 -2 -4 -3 -6 -3s-7 2 -10 3l-55 25c-3 1 -6 4 -6 8c0 5 7 18 18 31c21 23 50 45 107 45h15c80 0 132 -41 132 -106v-7c0 -19 -13 -41 -30 -57c17 -18 30 -41 30 -59v-15c0 -65 -52 -105 -132 -105z" />
    <glyph glyph-name="copyright" unicode="&#xa9;" horiz-adv-x="707" 
d="M440 -60h-172c-114 0 -186 73 -186 177v276c0 104 72 177 186 177h172c113 0 186 -73 186 -177v-276c0 -104 -73 -177 -186 -177zM268 12h172c69 0 114 43 114 105v276c0 62 -45 105 -114 105h-172c-70 0 -115 -43 -115 -105v-276c0 -62 45 -105 115 -105zM432 197
l42 -21c4 -2 6 -5 6 -9c0 -3 -4 -16 -22 -37c-23 -28 -54 -45 -105 -45c-82 0 -136 53 -136 129v94c0 77 54 127 136 127c52 0 82 -18 106 -46c14 -16 21 -29 21 -33s-2 -7 -6 -9l-40 -20c-6 -3 -13 -7 -16 -7s-6 2 -8 5c-20 29 -38 39 -57 39c-32 0 -57 -24 -57 -56v-94
c0 -32 25 -56 57 -56c19 0 37 11 57 40c2 3 5 5 8 5s8 -3 14 -6z" />
    <glyph glyph-name="Aacute" unicode="&#xc1;" horiz-adv-x="450" 
d="M103 0h-100c-7 0 -11 3 -11 8c0 4 3 10 5 18l182 597c1 5 5 7 10 7h72c5 0 9 -2 10 -7l182 -597c2 -6 5 -14 5 -18c0 -5 -4 -8 -11 -8h-101c-5 0 -9 2 -10 7l-30 105c-1 5 -5 6 -10 6h-143c-5 0 -9 -1 -10 -6l-30 -105c-1 -5 -5 -7 -10 -7zM188 223h73c7 0 11 4 11 9
c0 4 -3 13 -5 19l-29 117c-2 7 -9 47 -11 55h-3c-2 -8 -10 -47 -12 -55l-30 -116c-2 -7 -5 -16 -5 -20c0 -5 4 -9 11 -9zM242 695h-59c-5 0 -9 2 -9 7c0 2 1 4 3 7l83 108c5 6 9 10 18 10h113c5 0 8 -4 8 -9c0 -2 -1 -5 -3 -7l-133 -109c-7 -6 -13 -7 -21 -7z" />
    <glyph glyph-name="Acircumflex" unicode="&#xc2;" horiz-adv-x="450" 
d="M103 0h-100c-7 0 -11 3 -11 8c0 4 3 10 5 18l182 597c1 5 5 7 10 7h72c5 0 9 -2 10 -7l182 -597c2 -6 5 -14 5 -18c0 -5 -4 -8 -11 -8h-101c-5 0 -9 2 -10 7l-30 105c-1 5 -5 6 -10 6h-143c-5 0 -9 -1 -10 -6l-30 -105c-1 -5 -5 -7 -10 -7zM188 223h73c7 0 11 4 11 9
c0 4 -3 13 -5 19l-29 117c-2 7 -9 47 -11 55h-3c-2 -8 -10 -47 -12 -55l-30 -116c-2 -7 -5 -16 -5 -20c0 -5 4 -9 11 -9zM175 692h-66c-5 0 -9 3 -9 6c0 2 1 5 3 7l92 127c3 4 6 6 12 6h35c6 0 9 -2 12 -6l92 -127c2 -2 2 -5 2 -7c0 -3 -3 -6 -8 -6h-66c-6 0 -10 3 -14 9
l-30 50c-2 2 -4 4 -6 4s-4 -2 -5 -4l-30 -50c-4 -6 -8 -9 -14 -9z" />
    <glyph glyph-name="Adieresis" unicode="&#xc4;" horiz-adv-x="450" 
d="M103 0h-100c-7 0 -11 3 -11 8c0 4 3 10 5 18l182 597c1 5 5 7 10 7h72c5 0 9 -2 10 -7l182 -597c2 -6 5 -14 5 -18c0 -5 -4 -8 -11 -8h-101c-5 0 -9 2 -10 7l-30 105c-1 5 -5 6 -10 6h-143c-5 0 -9 -1 -10 -6l-30 -105c-1 -5 -5 -7 -10 -7zM188 223h73c7 0 11 4 11 9
c0 4 -3 13 -5 19l-29 117c-2 7 -9 47 -11 55h-3c-2 -8 -10 -47 -12 -55l-30 -116c-2 -7 -5 -16 -5 -20c0 -5 4 -9 11 -9zM360 756c0 -31 -24 -55 -55 -55s-56 24 -56 55s25 55 56 55s55 -24 55 -55zM201 756c0 -31 -24 -55 -55 -55s-56 24 -56 55s25 55 56 55s55 -24 55 -55
z" />
    <glyph glyph-name="Agrave" unicode="&#xc0;" horiz-adv-x="450" 
d="M103 0h-100c-7 0 -11 3 -11 8c0 4 3 10 5 18l182 597c1 5 5 7 10 7h72c5 0 9 -2 10 -7l182 -597c2 -6 5 -14 5 -18c0 -5 -4 -8 -11 -8h-101c-5 0 -9 2 -10 7l-30 105c-1 5 -5 6 -10 6h-143c-5 0 -9 -1 -10 -6l-30 -105c-1 -5 -5 -7 -10 -7zM188 223h73c7 0 11 4 11 9
c0 4 -3 13 -5 19l-29 117c-2 7 -9 47 -11 55h-3c-2 -8 -10 -47 -12 -55l-30 -116c-2 -7 -5 -16 -5 -20c0 -5 4 -9 11 -9zM267 695h-59c-8 0 -14 1 -21 7l-133 109c-2 2 -4 5 -4 7c0 5 3 9 9 9h113c9 0 13 -4 18 -10l83 -108c2 -3 3 -5 3 -7c0 -5 -4 -7 -9 -7z" />
    <glyph glyph-name="Aring" unicode="&#xc5;" horiz-adv-x="450" 
d="M103 0h-100c-7 0 -11 3 -11 8c0 4 3 10 5 18l161 527c2 7 3 12 3 16c0 5 -2 9 -7 13c-19 17 -29 41 -29 70v29c0 56 39 95 100 95s100 -39 100 -95v-29c0 -30 -11 -54 -30 -71c-5 -4 -7 -7 -7 -11s1 -8 4 -17l161 -527c2 -6 5 -14 5 -18c0 -5 -4 -8 -11 -8h-101
c-5 0 -9 2 -10 7l-30 105c-1 5 -5 6 -10 6h-143c-5 0 -9 -1 -10 -6l-30 -105c-1 -5 -5 -7 -10 -7zM254 652v29c0 15 -14 29 -29 29s-29 -14 -29 -29v-29c0 -15 14 -28 29 -28s29 13 29 28zM188 223h73c7 0 11 4 11 9c0 4 -3 13 -5 19l-29 117c-2 7 -9 47 -11 55h-3
c-2 -8 -10 -47 -12 -55l-30 -116c-2 -7 -5 -16 -5 -20c0 -5 4 -9 11 -9z" />
    <glyph glyph-name="Atilde" unicode="&#xc3;" horiz-adv-x="450" 
d="M103 0h-100c-7 0 -11 3 -11 8c0 4 3 10 5 18l182 597c1 5 5 7 10 7h72c5 0 9 -2 10 -7l182 -597c2 -6 5 -14 5 -18c0 -5 -4 -8 -11 -8h-101c-5 0 -9 2 -10 7l-30 105c-1 5 -5 6 -10 6h-143c-5 0 -9 -1 -10 -6l-30 -105c-1 -5 -5 -7 -10 -7zM188 223h73c7 0 11 4 11 9
c0 4 -3 13 -5 19l-29 117c-2 7 -9 47 -11 55h-3c-2 -8 -10 -47 -12 -55l-30 -116c-2 -7 -5 -16 -5 -20c0 -5 4 -9 11 -9zM116 705l-31 22c-3 2 -5 5 -5 8c0 1 1 3 2 5c30 54 61 66 96 66c40 0 63 -30 91 -30c17 0 30 6 48 28c3 4 5 6 8 6c2 0 4 0 6 -2l33 -24
c3 -2 4 -5 4 -9c0 -2 0 -3 -1 -5c-30 -53 -67 -66 -99 -66c-35 0 -63 31 -91 31c-18 0 -33 -6 -46 -27c-2 -4 -5 -6 -8 -6c-2 0 -5 1 -7 3z" />
    <glyph glyph-name="Ccedilla" unicode="&#xc7;" horiz-adv-x="484" 
d="M222 -215h-59c-7 0 -10 3 -10 10v66c0 7 3 10 10 10h59c9 0 18 8 18 17v8c0 9 -9 18 -18 18h-40c-7 0 -10 3 -10 8c0 4 3 10 8 20l15 32c3 6 4 9 4 12s-1 7 -10 9c-85 18 -136 84 -136 172v296c0 104 72 177 186 177h49c83 0 128 -34 158 -81c9 -15 19 -31 19 -37
c0 -3 -2 -5 -6 -7l-80 -41c-4 -2 -8 -5 -12 -5c-3 0 -6 2 -8 7c-18 43 -44 59 -71 59h-49c-39 0 -72 -33 -72 -72v-296c0 -39 33 -72 72 -72h49c27 0 53 16 71 59c2 5 5 7 8 7c4 0 8 -3 12 -5l80 -41c4 -2 6 -4 6 -7c0 -6 -10 -22 -19 -37c-28 -44 -69 -77 -143 -81
c-13 -1 -16 -5 -16 -15c0 -3 1 -5 4 -7c26 -14 42 -40 42 -72v-8c0 -62 -49 -103 -111 -103z" />
    <glyph glyph-name="Eacute" unicode="&#xc9;" horiz-adv-x="478" 
d="M430 0h-353c-7 0 -10 3 -10 10v610c0 7 3 10 10 10h353c7 0 10 -3 10 -10v-85c0 -7 -3 -10 -10 -10h-238c-7 0 -10 -3 -10 -10v-133c0 -7 3 -10 10 -10h195c7 0 10 -3 10 -10v-85c0 -7 -3 -10 -10 -10h-195c-7 0 -10 -3 -10 -10v-142c0 -7 3 -10 10 -10h238
c7 0 10 -3 10 -10v-85c0 -7 -3 -10 -10 -10zM252 695h-59c-5 0 -9 2 -9 7c0 2 1 4 3 7l83 108c5 6 9 10 18 10h113c5 0 8 -4 8 -9c0 -2 -1 -5 -3 -7l-133 -109c-7 -6 -13 -7 -21 -7z" />
    <glyph glyph-name="Ecircumflex" unicode="&#xca;" horiz-adv-x="478" 
d="M430 0h-353c-7 0 -10 3 -10 10v610c0 7 3 10 10 10h353c7 0 10 -3 10 -10v-85c0 -7 -3 -10 -10 -10h-238c-7 0 -10 -3 -10 -10v-133c0 -7 3 -10 10 -10h195c7 0 10 -3 10 -10v-85c0 -7 -3 -10 -10 -10h-195c-7 0 -10 -3 -10 -10v-142c0 -7 3 -10 10 -10h238
c7 0 10 -3 10 -10v-85c0 -7 -3 -10 -10 -10zM205 692h-66c-5 0 -9 3 -9 6c0 2 1 5 3 7l92 127c3 4 6 6 12 6h35c6 0 9 -2 12 -6l92 -127c2 -2 2 -5 2 -7c0 -3 -3 -6 -8 -6h-66c-6 0 -10 3 -14 9l-30 50c-2 2 -4 4 -6 4s-4 -2 -5 -4l-30 -50c-4 -6 -8 -9 -14 -9z" />
    <glyph glyph-name="Edieresis" unicode="&#xcb;" horiz-adv-x="478" 
d="M430 0h-353c-7 0 -10 3 -10 10v610c0 7 3 10 10 10h353c7 0 10 -3 10 -10v-85c0 -7 -3 -10 -10 -10h-238c-7 0 -10 -3 -10 -10v-133c0 -7 3 -10 10 -10h195c7 0 10 -3 10 -10v-85c0 -7 -3 -10 -10 -10h-195c-7 0 -10 -3 -10 -10v-142c0 -7 3 -10 10 -10h238
c7 0 10 -3 10 -10v-85c0 -7 -3 -10 -10 -10zM390 756c0 -31 -24 -55 -55 -55s-56 24 -56 55s25 55 56 55s55 -24 55 -55zM231 756c0 -31 -24 -55 -55 -55s-56 24 -56 55s25 55 56 55s55 -24 55 -55z" />
    <glyph glyph-name="Egrave" unicode="&#xc8;" horiz-adv-x="478" 
d="M430 0h-353c-7 0 -10 3 -10 10v610c0 7 3 10 10 10h353c7 0 10 -3 10 -10v-85c0 -7 -3 -10 -10 -10h-238c-7 0 -10 -3 -10 -10v-133c0 -7 3 -10 10 -10h195c7 0 10 -3 10 -10v-85c0 -7 -3 -10 -10 -10h-195c-7 0 -10 -3 -10 -10v-142c0 -7 3 -10 10 -10h238
c7 0 10 -3 10 -10v-85c0 -7 -3 -10 -10 -10zM317 695h-59c-8 0 -14 1 -21 7l-133 109c-2 2 -4 5 -4 7c0 5 3 9 9 9h113c9 0 13 -4 18 -10l83 -108c2 -3 3 -5 3 -7c0 -5 -4 -7 -9 -7z" />
    <glyph glyph-name="Iacute" unicode="&#xcd;" horiz-adv-x="249" 
d="M172 0h-95c-7 0 -10 3 -10 10v610c0 7 3 10 10 10h95c7 0 10 -3 10 -10v-610c0 -7 -3 -10 -10 -10zM141 695h-59c-5 0 -9 2 -9 7c0 2 1 4 3 7l83 108c5 6 9 10 18 10h113c5 0 8 -4 8 -9c0 -2 -1 -5 -3 -7l-133 -109c-7 -6 -13 -7 -21 -7z" />
    <glyph glyph-name="Icircumflex" unicode="&#xce;" horiz-adv-x="249" 
d="M172 0h-95c-7 0 -10 3 -10 10v610c0 7 3 10 10 10h95c7 0 10 -3 10 -10v-610c0 -7 -3 -10 -10 -10zM74 692h-66c-5 0 -9 3 -9 6c0 2 1 5 3 7l92 127c3 4 6 6 12 6h35c6 0 9 -2 12 -6l92 -127c2 -2 2 -5 2 -7c0 -3 -3 -6 -8 -6h-66c-6 0 -10 3 -14 9l-30 50
c-2 2 -4 4 -6 4s-4 -2 -5 -4l-30 -50c-4 -6 -8 -9 -14 -9z" />
    <glyph glyph-name="Idieresis" unicode="&#xcf;" horiz-adv-x="249" 
d="M172 0h-95c-7 0 -10 3 -10 10v610c0 7 3 10 10 10h95c7 0 10 -3 10 -10v-610c0 -7 -3 -10 -10 -10zM259 756c0 -31 -24 -55 -55 -55s-56 24 -56 55s25 55 56 55s55 -24 55 -55zM100 756c0 -31 -24 -55 -55 -55s-56 24 -56 55s25 55 56 55s55 -24 55 -55z" />
    <glyph glyph-name="Igrave" unicode="&#xcc;" horiz-adv-x="249" 
d="M172 0h-95c-7 0 -10 3 -10 10v610c0 7 3 10 10 10h95c7 0 10 -3 10 -10v-610c0 -7 -3 -10 -10 -10zM166 695h-59c-8 0 -14 1 -21 7l-133 109c-2 2 -4 5 -4 7c0 5 3 9 9 9h113c9 0 13 -4 18 -10l83 -108c2 -3 3 -5 3 -7c0 -5 -4 -7 -9 -7z" />
    <glyph glyph-name="Ntilde" unicode="&#xd1;" horiz-adv-x="550" 
d="M172 0h-95c-7 0 -10 3 -10 10v610c0 7 3 10 10 10h84c4 0 7 -2 9 -5l179 -328c4 -7 18 -43 21 -51l4 1c-2 24 -6 168 -6 247v126c0 7 3 10 10 10h94c7 0 10 -3 10 -10v-610c0 -7 -3 -10 -10 -10h-83c-4 0 -7 2 -9 5l-179 326c-4 7 -18 43 -21 51l-4 -1
c2 -24 6 -168 6 -247v-124c0 -7 -3 -10 -10 -10zM166 705l-31 22c-3 2 -5 5 -5 8c0 1 1 3 2 5c30 54 61 66 96 66c40 0 63 -30 91 -30c17 0 30 6 48 28c3 4 5 6 8 6c2 0 4 0 6 -2l33 -24c3 -2 4 -5 4 -9c0 -2 0 -3 -1 -5c-30 -53 -67 -66 -99 -66c-35 0 -63 31 -91 31
c-18 0 -33 -6 -46 -27c-2 -4 -5 -6 -8 -6c-2 0 -5 1 -7 3z" />
    <glyph glyph-name="Oacute" unicode="&#xd3;" horiz-adv-x="527" 
d="M288 -10h-49c-114 0 -186 73 -186 177v296c0 104 72 177 186 177h49c113 0 186 -73 186 -177v-296c0 -104 -73 -177 -186 -177zM239 95h49c40 0 71 32 71 72v296c0 40 -31 72 -71 72h-49c-39 0 -72 -33 -72 -72v-296c0 -39 33 -72 72 -72zM250 695h-59c-5 0 -9 2 -9 7
c0 2 1 4 3 7l83 108c5 6 9 10 18 10h113c5 0 8 -4 8 -9c0 -2 -1 -5 -3 -7l-133 -109c-7 -6 -13 -7 -21 -7z" />
    <glyph glyph-name="Ocircumflex" unicode="&#xd4;" horiz-adv-x="527" 
d="M288 -10h-49c-114 0 -186 73 -186 177v296c0 104 72 177 186 177h49c113 0 186 -73 186 -177v-296c0 -104 -73 -177 -186 -177zM239 95h49c40 0 71 32 71 72v296c0 40 -31 72 -71 72h-49c-39 0 -72 -33 -72 -72v-296c0 -39 33 -72 72 -72zM213 692h-66c-5 0 -9 3 -9 6
c0 2 1 5 3 7l92 127c3 4 6 6 12 6h35c6 0 9 -2 12 -6l92 -127c2 -2 2 -5 2 -7c0 -3 -3 -6 -8 -6h-66c-6 0 -10 3 -14 9l-30 50c-2 2 -4 4 -6 4s-4 -2 -5 -4l-30 -50c-4 -6 -8 -9 -14 -9z" />
    <glyph glyph-name="Odieresis" unicode="&#xd6;" horiz-adv-x="527" 
d="M288 -10h-49c-114 0 -186 73 -186 177v296c0 104 72 177 186 177h49c113 0 186 -73 186 -177v-296c0 -104 -73 -177 -186 -177zM239 95h49c40 0 71 32 71 72v296c0 40 -31 72 -71 72h-49c-39 0 -72 -33 -72 -72v-296c0 -39 33 -72 72 -72zM398 756c0 -31 -24 -55 -55 -55
s-56 24 -56 55s25 55 56 55s55 -24 55 -55zM239 756c0 -31 -24 -55 -55 -55s-56 24 -56 55s25 55 56 55s55 -24 55 -55z" />
    <glyph glyph-name="Ograve" unicode="&#xd2;" horiz-adv-x="527" 
d="M288 -10h-49c-114 0 -186 73 -186 177v296c0 104 72 177 186 177h49c113 0 186 -73 186 -177v-296c0 -104 -73 -177 -186 -177zM239 95h49c40 0 71 32 71 72v296c0 40 -31 72 -71 72h-49c-39 0 -72 -33 -72 -72v-296c0 -39 33 -72 72 -72zM325 695h-59c-8 0 -14 1 -21 7
l-133 109c-2 2 -4 5 -4 7c0 5 3 9 9 9h113c9 0 13 -4 18 -10l83 -108c2 -3 3 -5 3 -7c0 -5 -4 -7 -9 -7z" />
    <glyph glyph-name="Otilde" unicode="&#xd5;" horiz-adv-x="527" 
d="M288 -10h-49c-114 0 -186 73 -186 177v296c0 104 72 177 186 177h49c113 0 186 -73 186 -177v-296c0 -104 -73 -177 -186 -177zM239 95h49c40 0 71 32 71 72v296c0 40 -31 72 -71 72h-49c-39 0 -72 -33 -72 -72v-296c0 -39 33 -72 72 -72zM154 705l-31 22c-3 2 -5 5 -5 8
c0 1 1 3 2 5c30 54 61 66 96 66c40 0 63 -30 91 -30c17 0 30 6 48 28c3 4 5 6 8 6c2 0 4 0 6 -2l33 -24c3 -2 4 -5 4 -9c0 -2 0 -3 -1 -5c-30 -53 -67 -66 -99 -66c-35 0 -63 31 -91 31c-18 0 -33 -6 -46 -27c-2 -4 -5 -6 -8 -6c-2 0 -5 1 -7 3z" />
    <glyph glyph-name="Scaron" unicode="&#x160;" horiz-adv-x="472" 
d="M251 -10h-40c-83 0 -128 34 -158 81c-9 15 -19 31 -19 37c0 3 2 5 6 7l80 41c4 2 8 5 12 5c3 0 6 -2 8 -7c18 -43 44 -59 71 -59h40c39 0 72 33 72 72c0 54 -53 74 -107 99c-79 38 -166 79 -166 197c0 104 72 177 186 177h16c83 0 128 -34 158 -81c9 -15 19 -31 19 -37
c0 -3 -2 -5 -6 -7l-80 -41c-4 -2 -8 -5 -12 -5c-3 0 -6 2 -8 7c-18 43 -44 59 -71 59h-16c-39 0 -72 -33 -72 -72c0 -51 58 -66 116 -93c76 -35 157 -82 157 -203c0 -104 -72 -177 -186 -177zM253 692h-35c-6 0 -9 2 -12 6l-92 127c-2 2 -3 4 -3 6c0 4 4 7 9 7h66
c6 0 10 -3 14 -9l30 -50c1 -3 3 -4 5 -4s4 1 6 4l30 50c4 6 8 9 14 9h66c5 0 8 -3 8 -7c0 -2 0 -4 -2 -6l-92 -127c-3 -4 -6 -6 -12 -6z" />
    <glyph glyph-name="Uacute" unicode="&#xda;" horiz-adv-x="527" 
d="M288 -10h-49c-114 0 -186 73 -186 177v453c0 7 3 10 10 10h94c7 0 10 -3 10 -10v-453c0 -39 33 -72 72 -72h49c40 0 71 32 71 72v453c0 7 3 10 10 10h95c7 0 10 -3 10 -10v-453c0 -104 -73 -177 -186 -177zM280 695h-59c-5 0 -9 2 -9 7c0 2 1 4 3 7l83 108
c5 6 9 10 18 10h113c5 0 8 -4 8 -9c0 -2 -1 -5 -3 -7l-133 -109c-7 -6 -13 -7 -21 -7z" />
    <glyph glyph-name="Ucircumflex" unicode="&#xdb;" horiz-adv-x="527" 
d="M288 -10h-49c-114 0 -186 73 -186 177v453c0 7 3 10 10 10h94c7 0 10 -3 10 -10v-453c0 -39 33 -72 72 -72h49c40 0 71 32 71 72v453c0 7 3 10 10 10h95c7 0 10 -3 10 -10v-453c0 -104 -73 -177 -186 -177zM213 692h-66c-5 0 -9 3 -9 6c0 2 1 5 3 7l92 127c3 4 6 6 12 6
h35c6 0 9 -2 12 -6l92 -127c2 -2 2 -5 2 -7c0 -3 -3 -6 -8 -6h-66c-6 0 -10 3 -14 9l-30 50c-2 2 -4 4 -6 4s-4 -2 -5 -4l-30 -50c-4 -6 -8 -9 -14 -9z" />
    <glyph glyph-name="Udieresis" unicode="&#xdc;" horiz-adv-x="527" 
d="M288 -10h-49c-114 0 -186 73 -186 177v453c0 7 3 10 10 10h94c7 0 10 -3 10 -10v-453c0 -39 33 -72 72 -72h49c40 0 71 32 71 72v453c0 7 3 10 10 10h95c7 0 10 -3 10 -10v-453c0 -104 -73 -177 -186 -177zM398 756c0 -31 -24 -55 -55 -55s-56 24 -56 55s25 55 56 55
s55 -24 55 -55zM239 756c0 -31 -24 -55 -55 -55s-56 24 -56 55s25 55 56 55s55 -24 55 -55z" />
    <glyph glyph-name="Ugrave" unicode="&#xd9;" horiz-adv-x="527" 
d="M288 -10h-49c-114 0 -186 73 -186 177v453c0 7 3 10 10 10h94c7 0 10 -3 10 -10v-453c0 -39 33 -72 72 -72h49c40 0 71 32 71 72v453c0 7 3 10 10 10h95c7 0 10 -3 10 -10v-453c0 -104 -73 -177 -186 -177zM305 695h-59c-8 0 -14 1 -21 7l-133 109c-2 2 -4 5 -4 7
c0 5 3 9 9 9h113c9 0 13 -4 18 -10l83 -108c2 -3 3 -5 3 -7c0 -5 -4 -7 -9 -7z" />
    <glyph glyph-name="Yacute" unicode="&#xdd;" horiz-adv-x="450" 
d="M272 0h-95c-7 0 -10 3 -10 10v264c0 10 -1 15 -7 27l-163 305c-4 7 -7 12 -7 16c0 5 4 8 11 8h111c4 0 7 -3 9 -6l95 -196c2 -5 6 -8 9 -8s7 3 9 8l95 196c2 3 5 6 9 6h110c7 0 11 -3 11 -8c0 -4 -4 -10 -7 -16l-163 -305c-5 -10 -7 -16 -7 -28v-263c0 -7 -3 -10 -10 -10
zM242 695h-59c-5 0 -9 2 -9 7c0 2 1 4 3 7l83 108c5 6 9 10 18 10h113c5 0 8 -4 8 -9c0 -2 -1 -5 -3 -7l-133 -109c-7 -6 -13 -7 -21 -7z" />
    <glyph glyph-name="Ydieresis" unicode="&#x178;" horiz-adv-x="450" 
d="M272 0h-95c-7 0 -10 3 -10 10v264c0 10 -1 15 -7 27l-163 305c-4 7 -7 12 -7 16c0 5 4 8 11 8h111c4 0 7 -3 9 -6l95 -196c2 -5 6 -8 9 -8s7 3 9 8l95 196c2 3 5 6 9 6h110c7 0 11 -3 11 -8c0 -4 -4 -10 -7 -16l-163 -305c-5 -10 -7 -16 -7 -28v-263c0 -7 -3 -10 -10 -10
zM360 756c0 -31 -24 -55 -55 -55s-56 24 -56 55s25 55 56 55s55 -24 55 -55zM201 756c0 -31 -24 -55 -55 -55s-56 24 -56 55s25 55 56 55s55 -24 55 -55z" />
    <glyph glyph-name="Zcaron" unicode="&#x17d;" horiz-adv-x="456" 
d="M396 0h-375c-7 0 -10 3 -10 8c0 4 3 10 7 19l211 471c4 8 7 16 7 19c0 5 -3 8 -10 8h-182c-7 0 -10 3 -10 10v85c0 7 3 10 10 10h355c7 0 10 -3 10 -8c0 -4 -3 -9 -7 -19l-213 -473c-4 -8 -6 -13 -6 -17c0 -5 3 -8 10 -8h203c7 0 10 -3 10 -10v-85c0 -7 -3 -10 -10 -10z
M235 692h-35c-6 0 -9 2 -12 6l-92 127c-2 2 -3 4 -3 6c0 4 4 7 9 7h66c6 0 10 -3 14 -9l30 -50c1 -3 3 -4 5 -4s4 1 6 4l30 50c4 6 8 9 14 9h66c5 0 8 -3 8 -7c0 -2 0 -4 -2 -6l-92 -127c-3 -4 -6 -6 -12 -6z" />
    <glyph glyph-name="aacute" unicode="&#xe1;" horiz-adv-x="465" 
d="M226 0h-38c-79 0 -141 54 -141 134v5c0 82 62 134 141 134h96c7 0 10 4 10 10v12c0 39 -32 68 -73 68c-24 0 -49 -15 -73 -57c-2 -4 -5 -6 -8 -6c-4 0 -8 3 -12 5l-76 40c-4 2 -6 4 -6 7c0 5 11 25 21 40c32 48 77 76 154 76c114 0 187 -72 187 -176v-282
c0 -7 -3 -10 -10 -10h-85c-7 0 -10 2 -10 8c0 8 -2 13 -7 13c-3 0 -6 -1 -9 -3c-22 -12 -42 -18 -61 -18zM188 105h38c32 0 63 27 68 56v16h-106c-15 0 -27 -13 -27 -28v-15c0 -16 11 -29 27 -29zM231 523h-68c-7 0 -10 3 -10 8c0 4 3 8 6 13l90 138c3 5 9 8 14 8h122
c7 0 11 -3 11 -8s-3 -8 -7 -12l-142 -140c-5 -4 -10 -7 -16 -7z" />
    <glyph glyph-name="acircumflex" unicode="&#xe2;" horiz-adv-x="465" 
d="M226 0h-38c-79 0 -141 54 -141 134v5c0 82 62 134 141 134h96c7 0 10 4 10 10v12c0 39 -32 68 -73 68c-24 0 -49 -15 -73 -57c-2 -4 -5 -6 -8 -6c-4 0 -8 3 -12 5l-76 40c-4 2 -6 4 -6 7c0 5 11 25 21 40c32 48 77 76 154 76c114 0 187 -72 187 -176v-282
c0 -7 -3 -10 -10 -10h-85c-7 0 -10 2 -10 8c0 8 -2 13 -7 13c-3 0 -6 -1 -9 -3c-22 -12 -42 -18 -61 -18zM188 105h38c32 0 63 27 68 56v16h-106c-15 0 -27 -13 -27 -28v-15c0 -16 11 -29 27 -29zM184 523h-81c-7 0 -11 3 -11 8c0 3 1 5 3 8l104 147c2 2 5 4 8 4h49
c3 0 6 -2 8 -4l105 -147c2 -3 3 -6 3 -8c0 -5 -4 -8 -11 -8h-81c-3 0 -6 2 -8 5l-33 51c-2 4 -5 6 -8 6c-2 0 -5 -2 -7 -6l-32 -51c-2 -3 -5 -5 -8 -5z" />
    <glyph glyph-name="adieresis" unicode="&#xe4;" horiz-adv-x="465" 
d="M226 0h-38c-79 0 -141 54 -141 134v5c0 82 62 134 141 134h96c7 0 10 4 10 10v12c0 39 -32 68 -73 68c-24 0 -49 -15 -73 -57c-2 -4 -5 -6 -8 -6c-4 0 -8 3 -12 5l-76 40c-4 2 -6 4 -6 7c0 5 11 25 21 40c32 48 77 76 154 76c114 0 187 -72 187 -176v-282
c0 -7 -3 -10 -10 -10h-85c-7 0 -10 2 -10 8c0 8 -2 13 -7 13c-3 0 -6 -1 -9 -3c-22 -12 -42 -18 -61 -18zM188 105h38c32 0 63 27 68 56v16h-106c-15 0 -27 -13 -27 -28v-15c0 -16 11 -29 27 -29zM378 595c0 -35 -27 -62 -62 -62s-62 27 -62 62s27 62 62 62s62 -27 62 -62z
M209 595c0 -35 -27 -62 -62 -62s-62 27 -62 62s27 62 62 62s62 -27 62 -62z" />
    <glyph glyph-name="agrave" unicode="&#xe0;" horiz-adv-x="465" 
d="M226 0h-38c-79 0 -141 54 -141 134v5c0 82 62 134 141 134h96c7 0 10 4 10 10v12c0 39 -32 68 -73 68c-24 0 -49 -15 -73 -57c-2 -4 -5 -6 -8 -6c-4 0 -8 3 -12 5l-76 40c-4 2 -6 4 -6 7c0 5 11 25 21 40c32 48 77 76 154 76c114 0 187 -72 187 -176v-282
c0 -7 -3 -10 -10 -10h-85c-7 0 -10 2 -10 8c0 8 -2 13 -7 13c-3 0 -6 -1 -9 -3c-22 -12 -42 -18 -61 -18zM188 105h38c32 0 63 27 68 56v16h-106c-15 0 -27 -13 -27 -28v-15c0 -16 11 -29 27 -29zM301 523h-68c-6 0 -11 3 -16 7l-142 140c-4 4 -7 7 -7 12s4 8 11 8h122
c5 0 11 -3 14 -8l90 -138c3 -5 6 -9 6 -13c0 -5 -3 -8 -10 -8z" />
    <glyph glyph-name="aring" unicode="&#xe5;" horiz-adv-x="465" 
d="M226 0h-38c-79 0 -141 54 -141 134v5c0 82 62 134 141 134h96c7 0 10 4 10 10v12c0 39 -32 68 -73 68c-24 0 -49 -15 -73 -57c-2 -4 -5 -6 -8 -6c-4 0 -8 3 -12 5l-76 40c-4 2 -6 4 -6 7c0 5 11 25 21 40c32 48 77 76 154 76c114 0 187 -72 187 -176v-282
c0 -7 -3 -10 -10 -10h-85c-7 0 -10 2 -10 8c0 8 -2 13 -7 13c-3 0 -6 -1 -9 -3c-22 -12 -42 -18 -61 -18zM188 105h38c32 0 63 27 68 56v16h-106c-15 0 -27 -13 -27 -28v-15c0 -16 11 -29 27 -29zM132 605v29c0 56 39 95 100 95s100 -39 100 -95v-29c0 -56 -39 -95 -100 -95
s-100 39 -100 95zM261 605v29c0 15 -14 29 -29 29s-29 -14 -29 -29v-29c0 -15 14 -28 29 -28s29 13 29 28z" />
    <glyph glyph-name="atilde" unicode="&#xe3;" horiz-adv-x="465" 
d="M226 0h-38c-79 0 -141 54 -141 134v5c0 82 62 134 141 134h96c7 0 10 4 10 10v12c0 39 -32 68 -73 68c-24 0 -49 -15 -73 -57c-2 -4 -5 -6 -8 -6c-4 0 -8 3 -12 5l-76 40c-4 2 -6 4 -6 7c0 5 11 25 21 40c32 48 77 76 154 76c114 0 187 -72 187 -176v-282
c0 -7 -3 -10 -10 -10h-85c-7 0 -10 2 -10 8c0 8 -2 13 -7 13c-3 0 -6 -1 -9 -3c-22 -12 -42 -18 -61 -18zM188 105h38c32 0 63 27 68 56v16h-106c-15 0 -27 -13 -27 -28v-15c0 -16 11 -29 27 -29zM112 551l-34 25c-3 2 -4 4 -4 8s5 14 14 28c27 42 55 58 87 58
c23 0 44 -9 68 -26l17 -12c8 -6 20 -11 28 -11c13 0 26 6 43 34c2 4 5 6 8 6c4 0 7 -3 11 -6l36 -29c3 -2 4 -5 4 -8c0 -4 -7 -17 -18 -34c-26 -38 -54 -55 -84 -55c-22 0 -43 13 -69 29l-18 11c-8 5 -18 10 -26 10c-13 0 -25 -7 -41 -31c-2 -4 -5 -6 -8 -6s-8 4 -14 9z" />
    <glyph glyph-name="ccedilla" unicode="&#xe7;" horiz-adv-x="429" 
d="M184 -215h-59c-7 0 -10 3 -10 10v66c0 7 3 10 10 10h59c9 0 18 8 18 17v8c0 9 -9 18 -18 18h-40c-7 0 -10 3 -10 8c0 4 3 10 8 20l27 56c-79 21 -126 85 -126 169v124c0 104 73 177 187 177c87 0 131 -37 162 -88c8 -13 15 -26 15 -30c0 -3 -2 -6 -6 -8l-75 -37
c-8 -4 -14 -7 -17 -7s-6 2 -8 6c-18 43 -45 59 -71 59c-41 0 -72 -33 -72 -72v-124c0 -39 31 -72 72 -72c26 0 53 16 71 59c2 4 5 6 8 6s9 -3 17 -7l75 -37c4 -2 6 -5 6 -8c0 -4 -7 -17 -15 -30c-28 -46 -66 -80 -137 -87c1 0 -1 -3 -1 -3c-2 -5 -5 -10 -5 -13s1 -5 4 -7
c26 -14 42 -40 42 -72v-8c0 -62 -49 -103 -111 -103z" />
    <glyph glyph-name="eacute" unicode="&#xe9;" horiz-adv-x="459" 
d="M326 153l75 -37c4 -2 6 -5 6 -8c0 -4 -7 -17 -15 -30c-31 -51 -75 -88 -162 -88c-114 0 -187 73 -187 177v124c0 83 73 177 187 177c113 0 186 -94 186 -177v-81c0 -7 -3 -10 -10 -10h-238c-7 0 -10 -3 -10 -10v-23c0 -39 31 -72 72 -72c26 0 53 16 71 59c2 4 5 6 8 6
s9 -3 17 -7zM170 296h119c7 0 11 4 11 9c0 12 -20 58 -70 58c-49 0 -71 -45 -71 -58c0 -5 4 -9 11 -9zM228 523h-68c-7 0 -10 3 -10 8c0 4 3 8 6 13l90 138c3 5 9 8 14 8h122c7 0 11 -3 11 -8s-3 -8 -7 -12l-142 -140c-5 -4 -10 -7 -16 -7z" />
    <glyph glyph-name="ecircumflex" unicode="&#xea;" horiz-adv-x="459" 
d="M326 153l75 -37c4 -2 6 -5 6 -8c0 -4 -7 -17 -15 -30c-31 -51 -75 -88 -162 -88c-114 0 -187 73 -187 177v124c0 83 73 177 187 177c113 0 186 -94 186 -177v-81c0 -7 -3 -10 -10 -10h-238c-7 0 -10 -3 -10 -10v-23c0 -39 31 -72 72 -72c26 0 53 16 71 59c2 4 5 6 8 6
s9 -3 17 -7zM170 296h119c7 0 11 4 11 9c0 12 -20 58 -70 58c-49 0 -71 -45 -71 -58c0 -5 4 -9 11 -9zM181 523h-81c-7 0 -11 3 -11 8c0 3 1 5 3 8l104 147c2 2 5 4 8 4h49c3 0 6 -2 8 -4l105 -147c2 -3 3 -6 3 -8c0 -5 -4 -8 -11 -8h-81c-3 0 -6 2 -8 5l-33 51
c-2 4 -5 6 -8 6c-2 0 -5 -2 -7 -6l-32 -51c-2 -3 -5 -5 -8 -5z" />
    <glyph glyph-name="edieresis" unicode="&#xeb;" horiz-adv-x="459" 
d="M326 153l75 -37c4 -2 6 -5 6 -8c0 -4 -7 -17 -15 -30c-31 -51 -75 -88 -162 -88c-114 0 -187 73 -187 177v124c0 83 73 177 187 177c113 0 186 -94 186 -177v-81c0 -7 -3 -10 -10 -10h-238c-7 0 -10 -3 -10 -10v-23c0 -39 31 -72 72 -72c26 0 53 16 71 59c2 4 5 6 8 6
s9 -3 17 -7zM170 296h119c7 0 11 4 11 9c0 12 -20 58 -70 58c-49 0 -71 -45 -71 -58c0 -5 4 -9 11 -9zM375 595c0 -35 -27 -62 -62 -62s-62 27 -62 62s27 62 62 62s62 -27 62 -62zM206 595c0 -35 -27 -62 -62 -62s-62 27 -62 62s27 62 62 62s62 -27 62 -62z" />
    <glyph glyph-name="egrave" unicode="&#xe8;" horiz-adv-x="459" 
d="M326 153l75 -37c4 -2 6 -5 6 -8c0 -4 -7 -17 -15 -30c-31 -51 -75 -88 -162 -88c-114 0 -187 73 -187 177v124c0 83 73 177 187 177c113 0 186 -94 186 -177v-81c0 -7 -3 -10 -10 -10h-238c-7 0 -10 -3 -10 -10v-23c0 -39 31 -72 72 -72c26 0 53 16 71 59c2 4 5 6 8 6
s9 -3 17 -7zM170 296h119c7 0 11 4 11 9c0 12 -20 58 -70 58c-49 0 -71 -45 -71 -58c0 -5 4 -9 11 -9zM298 523h-68c-6 0 -11 3 -16 7l-142 140c-4 4 -7 7 -7 12s4 8 11 8h122c5 0 11 -3 14 -8l90 -138c3 -5 6 -9 6 -13c0 -5 -3 -8 -10 -8z" />
    <glyph glyph-name="iacute" unicode="&#xed;" horiz-adv-x="230" 
d="M162 0h-94c-7 0 -10 3 -10 10v438c0 7 3 10 10 10h94c7 0 10 -3 10 -10v-438c0 -7 -3 -10 -10 -10zM134 523h-68c-7 0 -10 3 -10 8c0 4 3 8 6 13l90 138c3 5 9 8 14 8h122c7 0 11 -3 11 -8s-3 -8 -7 -12l-142 -140c-5 -4 -10 -7 -16 -7z" />
    <glyph glyph-name="icircumflex" unicode="&#xee;" horiz-adv-x="230" 
d="M162 0h-94c-7 0 -10 3 -10 10v438c0 7 3 10 10 10h94c7 0 10 -3 10 -10v-438c0 -7 -3 -10 -10 -10zM67 523h-81c-7 0 -11 3 -11 8c0 3 1 5 3 8l104 147c2 2 5 4 8 4h49c3 0 6 -2 8 -4l105 -147c2 -3 3 -6 3 -8c0 -5 -4 -8 -11 -8h-81c-3 0 -6 2 -8 5l-33 51
c-2 4 -5 6 -8 6c-2 0 -5 -2 -7 -6l-32 -51c-2 -3 -5 -5 -8 -5z" />
    <glyph glyph-name="idieresis" unicode="&#xef;" horiz-adv-x="230" 
d="M162 0h-94c-7 0 -10 3 -10 10v438c0 7 3 10 10 10h94c7 0 10 -3 10 -10v-438c0 -7 -3 -10 -10 -10zM261 595c0 -35 -27 -62 -62 -62s-62 27 -62 62s27 62 62 62s62 -27 62 -62zM92 595c0 -35 -27 -62 -62 -62s-62 27 -62 62s27 62 62 62s62 -27 62 -62z" />
    <glyph glyph-name="igrave" unicode="&#xec;" horiz-adv-x="230" 
d="M162 0h-94c-7 0 -10 3 -10 10v438c0 7 3 10 10 10h94c7 0 10 -3 10 -10v-438c0 -7 -3 -10 -10 -10zM164 523h-68c-6 0 -11 3 -16 7l-142 140c-4 4 -7 7 -7 12s4 8 11 8h122c5 0 11 -3 14 -8l90 -138c3 -5 6 -9 6 -13c0 -5 -3 -8 -10 -8z" />
    <glyph glyph-name="ntilde" unicode="&#xf1;" horiz-adv-x="488" 
d="M162 0h-94c-7 0 -10 3 -10 10v438c0 7 3 10 10 10h85c7 0 10 -2 10 -9s3 -11 8 -11c3 0 4 1 7 2c21 11 46 18 66 18c113 0 186 -72 186 -176v-272c0 -7 -3 -10 -10 -10h-95c-7 0 -10 3 -10 10v272c0 40 -31 71 -71 71s-72 -31 -72 -71v-272c0 -7 -3 -10 -10 -10zM124 551
l-34 25c-3 2 -4 4 -4 8s5 14 14 28c27 42 55 58 87 58c23 0 44 -9 68 -26l17 -12c8 -6 20 -11 28 -11c13 0 26 6 43 34c2 4 5 6 8 6c4 0 7 -3 11 -6l36 -29c3 -2 4 -5 4 -8c0 -4 -7 -17 -18 -34c-26 -38 -54 -55 -84 -55c-22 0 -43 13 -69 29l-18 11c-8 5 -18 10 -26 10
c-13 0 -25 -7 -41 -31c-2 -4 -5 -6 -8 -6s-8 4 -14 9z" />
    <glyph glyph-name="oacute" unicode="&#xf3;" horiz-adv-x="459" 
d="M43 167v124c0 104 73 177 187 177c113 0 186 -73 186 -177v-124c0 -104 -73 -177 -186 -177c-114 0 -187 73 -187 177zM301 167v124c0 40 -31 72 -71 72c-41 0 -72 -33 -72 -72v-124c0 -39 31 -72 72 -72c40 0 71 32 71 72zM228 523h-68c-7 0 -10 3 -10 8c0 4 3 8 6 13
l90 138c3 5 9 8 14 8h122c7 0 11 -3 11 -8s-3 -8 -7 -12l-142 -140c-5 -4 -10 -7 -16 -7z" />
    <glyph glyph-name="ocircumflex" unicode="&#xf4;" horiz-adv-x="459" 
d="M43 167v124c0 104 73 177 187 177c113 0 186 -73 186 -177v-124c0 -104 -73 -177 -186 -177c-114 0 -187 73 -187 177zM301 167v124c0 40 -31 72 -71 72c-41 0 -72 -33 -72 -72v-124c0 -39 31 -72 72 -72c40 0 71 32 71 72zM181 523h-81c-7 0 -11 3 -11 8c0 3 1 5 3 8
l104 147c2 2 5 4 8 4h49c3 0 6 -2 8 -4l105 -147c2 -3 3 -6 3 -8c0 -5 -4 -8 -11 -8h-81c-3 0 -6 2 -8 5l-33 51c-2 4 -5 6 -8 6c-2 0 -5 -2 -7 -6l-32 -51c-2 -3 -5 -5 -8 -5z" />
    <glyph glyph-name="odieresis" unicode="&#xf6;" horiz-adv-x="459" 
d="M43 167v124c0 104 73 177 187 177c113 0 186 -73 186 -177v-124c0 -104 -73 -177 -186 -177c-114 0 -187 73 -187 177zM301 167v124c0 40 -31 72 -71 72c-41 0 -72 -33 -72 -72v-124c0 -39 31 -72 72 -72c40 0 71 32 71 72zM375 595c0 -35 -27 -62 -62 -62s-62 27 -62 62
s27 62 62 62s62 -27 62 -62zM206 595c0 -35 -27 -62 -62 -62s-62 27 -62 62s27 62 62 62s62 -27 62 -62z" />
    <glyph glyph-name="ograve" unicode="&#xf2;" horiz-adv-x="459" 
d="M43 167v124c0 104 73 177 187 177c113 0 186 -73 186 -177v-124c0 -104 -73 -177 -186 -177c-114 0 -187 73 -187 177zM301 167v124c0 40 -31 72 -71 72c-41 0 -72 -33 -72 -72v-124c0 -39 31 -72 72 -72c40 0 71 32 71 72zM298 523h-68c-6 0 -11 3 -16 7l-142 140
c-4 4 -7 7 -7 12s4 8 11 8h122c5 0 11 -3 14 -8l90 -138c3 -5 6 -9 6 -13c0 -5 -3 -8 -10 -8z" />
    <glyph glyph-name="otilde" unicode="&#xf5;" horiz-adv-x="459" 
d="M43 167v124c0 104 73 177 187 177c113 0 186 -73 186 -177v-124c0 -104 -73 -177 -186 -177c-114 0 -187 73 -187 177zM301 167v124c0 40 -31 72 -71 72c-41 0 -72 -33 -72 -72v-124c0 -39 31 -72 72 -72c40 0 71 32 71 72zM109 551l-34 25c-3 2 -4 4 -4 8s5 14 14 28
c27 42 55 58 87 58c23 0 44 -9 68 -26l17 -12c8 -6 20 -11 28 -11c13 0 26 6 43 34c2 4 5 6 8 6c4 0 7 -3 11 -6l36 -29c3 -2 4 -5 4 -8c0 -4 -7 -17 -18 -34c-26 -38 -54 -55 -84 -55c-22 0 -43 13 -69 29l-18 11c-8 5 -18 10 -26 10c-13 0 -25 -7 -41 -31
c-2 -4 -5 -6 -8 -6s-8 4 -14 9z" />
    <glyph glyph-name="scaron" unicode="&#x161;" horiz-adv-x="451" 
d="M234 -10h-29c-82 0 -127 35 -155 79c-10 16 -18 33 -18 38c0 3 2 6 6 8l72 35c6 3 12 6 15 6s6 -2 8 -7c15 -38 43 -57 72 -57h29c38 0 58 21 58 43c0 38 -55 35 -110 46c-72 14 -145 39 -145 132c0 98 78 155 168 155h29c80 0 125 -32 153 -74c10 -15 21 -37 21 -42
c0 -3 -2 -6 -6 -8l-76 -37c-4 -2 -7 -4 -11 -4c-3 0 -6 2 -8 6c-15 38 -44 57 -73 57h-29c-38 0 -55 -14 -55 -38c0 -38 55 -36 109 -48c72 -15 147 -40 147 -131c0 -85 -59 -159 -172 -159zM249 523h-49c-3 0 -6 2 -8 4l-97 137c-6 9 -10 14 -10 18c0 5 4 8 11 8h81
c3 0 6 -2 8 -5l32 -51c2 -4 4 -6 7 -6s6 2 8 6l33 51c2 3 5 5 8 5h81c7 0 11 -3 11 -8c0 -4 -5 -11 -10 -18l-98 -137c-2 -2 -5 -4 -8 -4z" />
    <glyph glyph-name="uacute" unicode="&#xfa;" horiz-adv-x="478" 
d="M410 0h-85c-7 0 -10 4 -10 9c0 7 -3 11 -8 11c-3 0 -4 -1 -7 -2c-21 -11 -46 -18 -66 -18c-113 0 -186 73 -186 177v271c0 7 3 10 10 10h95c7 0 10 -3 10 -10v-271c0 -41 31 -72 71 -72c39 0 72 31 72 72v271c0 7 3 10 10 10h94c7 0 10 -3 10 -10v-438
c0 -7 -3 -10 -10 -10zM238 523h-68c-7 0 -10 3 -10 8c0 4 3 8 6 13l90 138c3 5 9 8 14 8h122c7 0 11 -3 11 -8s-3 -8 -7 -12l-142 -140c-5 -4 -10 -7 -16 -7z" />
    <glyph glyph-name="ucircumflex" unicode="&#xfb;" horiz-adv-x="478" 
d="M410 0h-85c-7 0 -10 4 -10 9c0 7 -3 11 -8 11c-3 0 -4 -1 -7 -2c-21 -11 -46 -18 -66 -18c-113 0 -186 73 -186 177v271c0 7 3 10 10 10h95c7 0 10 -3 10 -10v-271c0 -41 31 -72 71 -72c39 0 72 31 72 72v271c0 7 3 10 10 10h94c7 0 10 -3 10 -10v-438
c0 -7 -3 -10 -10 -10zM191 523h-81c-7 0 -11 3 -11 8c0 3 1 5 3 8l104 147c2 2 5 4 8 4h49c3 0 6 -2 8 -4l105 -147c2 -3 3 -6 3 -8c0 -5 -4 -8 -11 -8h-81c-3 0 -6 2 -8 5l-33 51c-2 4 -5 6 -8 6c-2 0 -5 -2 -7 -6l-32 -51c-2 -3 -5 -5 -8 -5z" />
    <glyph glyph-name="udieresis" unicode="&#xfc;" horiz-adv-x="478" 
d="M410 0h-85c-7 0 -10 4 -10 9c0 7 -3 11 -8 11c-3 0 -4 -1 -7 -2c-21 -11 -46 -18 -66 -18c-113 0 -186 73 -186 177v271c0 7 3 10 10 10h95c7 0 10 -3 10 -10v-271c0 -41 31 -72 71 -72c39 0 72 31 72 72v271c0 7 3 10 10 10h94c7 0 10 -3 10 -10v-438
c0 -7 -3 -10 -10 -10zM385 595c0 -35 -27 -62 -62 -62s-62 27 -62 62s27 62 62 62s62 -27 62 -62zM216 595c0 -35 -27 -62 -62 -62s-62 27 -62 62s27 62 62 62s62 -27 62 -62z" />
    <glyph glyph-name="ugrave" unicode="&#xf9;" horiz-adv-x="478" 
d="M410 0h-85c-7 0 -10 4 -10 9c0 7 -3 11 -8 11c-3 0 -4 -1 -7 -2c-21 -11 -46 -18 -66 -18c-113 0 -186 73 -186 177v271c0 7 3 10 10 10h95c7 0 10 -3 10 -10v-271c0 -41 31 -72 71 -72c39 0 72 31 72 72v271c0 7 3 10 10 10h94c7 0 10 -3 10 -10v-438
c0 -7 -3 -10 -10 -10zM308 523h-68c-6 0 -11 3 -16 7l-142 140c-4 4 -7 7 -7 12s4 8 11 8h122c5 0 11 -3 14 -8l90 -138c3 -5 6 -9 6 -13c0 -5 -3 -8 -10 -8z" />
    <glyph glyph-name="yacute" unicode="&#xfd;" horiz-adv-x="478" 
d="M64 -110l80 40c5 3 8 4 11 4s6 -2 8 -6c17 -42 44 -58 71 -58c39 0 72 33 72 72v62c0 7 -2 11 -7 11c-3 0 -5 -1 -7 -2c-19 -9 -39 -13 -58 -13c-113 0 -186 73 -186 177v271c0 7 3 10 10 10h95c7 0 10 -3 10 -10v-271c0 -41 31 -72 71 -72c39 0 72 31 72 72v271
c0 7 3 10 10 10h94c7 0 10 -3 10 -10v-497c0 -107 -63 -186 -186 -186c-78 0 -123 30 -153 73c-16 22 -23 39 -23 44c0 3 2 6 6 8zM238 523h-68c-7 0 -10 3 -10 8c0 4 3 8 6 13l90 138c3 5 9 8 14 8h122c7 0 11 -3 11 -8s-3 -8 -7 -12l-142 -140c-5 -4 -10 -7 -16 -7z" />
    <glyph glyph-name="ydieresis" unicode="&#xff;" horiz-adv-x="478" 
d="M64 -110l80 40c5 3 8 4 11 4s6 -2 8 -6c17 -42 44 -58 71 -58c39 0 72 33 72 72v62c0 7 -2 11 -7 11c-3 0 -5 -1 -7 -2c-19 -9 -39 -13 -58 -13c-113 0 -186 73 -186 177v271c0 7 3 10 10 10h95c7 0 10 -3 10 -10v-271c0 -41 31 -72 71 -72c39 0 72 31 72 72v271
c0 7 3 10 10 10h94c7 0 10 -3 10 -10v-497c0 -107 -63 -186 -186 -186c-78 0 -123 30 -153 73c-16 22 -23 39 -23 44c0 3 2 6 6 8zM385 595c0 -35 -27 -62 -62 -62s-62 27 -62 62s27 62 62 62s62 -27 62 -62zM216 595c0 -35 -27 -62 -62 -62s-62 27 -62 62s27 62 62 62
s62 -27 62 -62z" />
    <glyph glyph-name="zcaron" unicode="&#x17e;" horiz-adv-x="430" 
d="M390 0h-372c-7 0 -11 3 -11 8c0 4 4 10 11 22l174 290c7 11 12 20 12 24c0 5 -4 8 -11 8h-154c-7 0 -10 3 -10 10v85c0 7 3 10 10 10h355c7 0 11 -3 11 -8c0 -4 -5 -13 -12 -24l-175 -290c-7 -11 -11 -18 -11 -22c0 -5 4 -8 11 -8h172c7 0 10 -3 10 -10v-85
c0 -7 -3 -10 -10 -10zM239 523h-49c-3 0 -6 2 -8 4l-97 137c-6 9 -10 14 -10 18c0 5 4 8 11 8h81c3 0 6 -2 8 -5l32 -51c2 -4 4 -6 7 -6s6 2 8 6l33 51c2 3 5 5 8 5h81c7 0 11 -3 11 -8c0 -4 -5 -11 -10 -18l-98 -137c-2 -2 -5 -4 -8 -4z" />
    <glyph glyph-name="exclam.sc" unicode="&#xe08b;" horiz-adv-x="253" 
d="M147 156h-40c-7 0 -13 5 -13 12l-19 140v186c0 10 5 14 14 14h74c10 0 14 -4 14 -14v-186l-16 -140c-2 -7 -7 -12 -14 -12zM185 52c0 -31 -27 -59 -59 -59c-31 0 -58 28 -58 59s27 58 58 58c32 0 59 -27 59 -58z" />
    <glyph glyph-name="hungarumlaut.sc" unicode="&#xe086;" horiz-adv-x="500" 
d="M317 567h-40c-7 0 -10 3 -10 8c0 3 2 10 8 26l43 126c1 4 5 7 9 7h83c7 0 11 -3 11 -8c0 -4 -4 -12 -9 -19l-86 -135c-2 -3 -6 -5 -9 -5zM199 567h-48c-7 0 -10 3 -10 8c0 3 2 10 8 26l43 126c1 4 5 7 9 7h83c7 0 11 -3 11 -8c0 -4 -5 -12 -9 -19l-78 -135
c-2 -3 -6 -5 -9 -5z" />
    <glyph glyph-name="ampersand.sc" unicode="&#xe08c;" horiz-adv-x="493" 
d="M217 -11h-23c-94 0 -152 58 -152 152v18c0 29 17 59 37 82c3 4 9 9 9 14c0 4 -5 8 -9 13c-20 25 -37 52 -37 90c0 93 57 154 152 154c94 0 152 -59 152 -153v-15c0 -40 -22 -75 -56 -96c-3 -2 -8 -4 -8 -7s3 -4 7 -8l9 -7c3 -2 5 -4 7 -4s4 2 6 7c24 45 70 72 132 72h24
c10 0 14 -4 14 -13v-74c0 -11 -4 -14 -14 -14h-30c-28 0 -42 -24 -51 -50c-1 -4 -2 -7 -2 -9c0 -6 4 -8 9 -13c22 -18 49 -33 76 -36c8 -1 12 -6 12 -14v-75c0 -11 -5 -14 -14 -14c-40 0 -85 13 -117 39c-6 5 -10 11 -15 11c-3 0 -9 -9 -14 -13c-25 -21 -54 -37 -104 -37z
M194 84h23c20 0 48 18 48 29c0 8 -31 38 -57 59c-11 9 -30 27 -41 27s-24 -26 -24 -42v-23c0 -30 23 -50 51 -50zM244 352v15c0 28 -22 51 -50 51c-29 0 -51 -23 -51 -51c0 -21 13 -36 32 -52c5 -4 17 -15 23 -15c26 0 46 27 46 52z" />
    <glyph glyph-name="acute.sc" unicode="&#xe092;" horiz-adv-x="500" 
d="M269 567h-68c-7 0 -10 3 -10 8c0 4 3 8 6 13l90 138c3 5 9 8 14 8h122c7 0 11 -3 11 -8s-3 -8 -7 -12l-142 -140c-5 -4 -10 -7 -16 -7z" />
    <glyph glyph-name="zero.oldstyle" unicode="&#xf730;" 
d="M268 -10h-29c-114 0 -186 73 -186 177v168c0 104 72 177 186 177h29c113 0 186 -73 186 -177v-168c0 -104 -73 -177 -186 -177zM239 95h29c40 0 71 32 71 72v168c0 40 -31 72 -71 72h-29c-39 0 -72 -33 -72 -72v-168c0 -39 33 -72 72 -72z" />
    <glyph glyph-name="one.oldstyle" unicode="&#xf731;" horiz-adv-x="427" 
d="M385 0h-323c-7 0 -10 3 -10 10v85c0 7 3 10 10 10h94c7 0 10 3 10 10v175c0 7 -4 11 -9 11c-2 0 -5 -1 -8 -4l-30 -31c-3 -3 -5 -4 -7 -4s-5 1 -7 4l-57 56c-5 5 -9 9 -9 12c0 2 1 4 4 7l167 168c1 1 5 3 7 3h54c7 0 10 -3 10 -10v-387c0 -7 3 -10 10 -10h94
c7 0 10 -3 10 -10v-85c0 -7 -3 -10 -10 -10z" />
    <glyph glyph-name="two.oldstyle" unicode="&#xf732;" horiz-adv-x="517" 
d="M443 0h-365c-6 0 -10 3 -10 9v72c0 238 277 155 277 264c0 39 -26 62 -76 62h-39c-35 0 -59 -17 -76 -58c-2 -5 -5 -7 -10 -7s-12 5 -14 6l-76 39c-4 2 -6 5 -6 8s1 5 2 7c34 73 86 110 177 110h42c117 0 190 -69 190 -172c0 -182 -271 -128 -271 -218v-8
c0 -6 3 -9 11 -9h244c6 0 10 -3 10 -9v-87c0 -6 -3 -9 -10 -9z" />
    <glyph glyph-name="three.oldstyle" unicode="&#xf733;" horiz-adv-x="498" 
d="M250 -138h-28c-101 0 -146 50 -175 114c-1 2 -2 3 -2 5c0 3 3 6 7 8l80 39c2 1 8 5 12 5s6 -2 8 -7c16 -43 43 -59 70 -59h28c39 0 72 33 72 72v34c0 40 -32 71 -72 71h-90c-7 0 -10 3 -10 10v85c0 7 3 10 10 10h90c39 0 72 33 72 72v14c0 39 -33 72 -72 72h-28
c-27 0 -53 -16 -71 -59c-2 -5 -4 -7 -8 -7c-2 0 -4 1 -6 2l-86 44c-4 2 -6 4 -6 7c0 2 1 4 2 6c29 62 74 112 175 112h28c114 0 187 -73 187 -187v-14c0 -37 -25 -80 -54 -108c-3 -3 -4 -5 -4 -7s1 -5 4 -7c29 -28 54 -76 54 -113v-29c0 -114 -73 -185 -187 -185z" />
    <glyph glyph-name="four.oldstyle" unicode="&#xf734;" horiz-adv-x="488" 
d="M379 -129h-95c-7 0 -10 3 -10 10v109c0 7 -3 10 -10 10h-236c-7 0 -10 3 -10 10v85l261 402c2 2 5 4 8 4h92c7 0 10 -3 10 -10v-376c0 -7 3 -10 10 -10h65c7 0 10 -3 10 -10v-85c0 -7 -3 -10 -10 -10h-65c-7 0 -10 -3 -10 -10v-109c0 -7 -3 -10 -10 -10zM161 105h103
c7 0 10 3 10 10v164c0 12 -12 16 -18 6l-103 -164c-6 -9 -2 -16 8 -16z" />
    <glyph glyph-name="five.oldstyle" unicode="&#xf735;" horiz-adv-x="497" 
d="M257 -139h-29c-101 0 -146 50 -174 114c-1 2 -2 3 -2 5c0 3 3 6 7 8l81 41c2 1 7 3 10 3c4 0 6 -2 8 -7c16 -43 44 -59 70 -59h29c40 0 71 32 71 72v34c0 40 -31 71 -71 71h-167c-7 0 -10 3 -10 10v338c0 7 3 10 10 10h333c7 0 10 -3 10 -10v-85c0 -7 -3 -10 -10 -10
h-218c-7 0 -10 -3 -10 -10v-128c0 -7 3 -10 10 -10h52c113 0 186 -70 186 -184v-18c0 -114 -73 -185 -186 -185z" />
    <glyph glyph-name="six.oldstyle" unicode="&#xf736;" horiz-adv-x="509" 
d="M278 -10h-30c-113 0 -186 73 -186 177v296c0 104 73 177 186 177h30c101 0 145 -50 177 -112c3 -6 1 -11 -5 -14l-87 -42c-6 -3 -10 -1 -13 5c-18 41 -41 58 -72 58h-30c-40 0 -71 -32 -71 -72v-91c0 -10 6 -14 15 -9c21 11 46 19 66 19h30c98 0 177 -73 177 -177v-38
c0 -104 -73 -177 -187 -177zM248 95h30c39 0 72 33 72 72v38c0 39 -33 72 -72 72h-30c-40 0 -71 -32 -71 -72v-38c0 -40 31 -72 71 -72z" />
    <glyph glyph-name="seven.oldstyle" unicode="&#xf737;" horiz-adv-x="443" 
d="M164 -129h-94c-7 0 -10 3 -10 10v157c0 109 66 158 129 202c54 37 110 68 110 136v10c0 7 -3 10 -10 10h-238c-7 0 -10 3 -10 10v85c0 7 3 10 10 10h352c7 0 10 -3 10 -10v-115c0 -128 -79 -181 -149 -228c-47 -32 -90 -59 -90 -110v-157c0 -7 -3 -10 -10 -10z" />
    <glyph glyph-name="eight.oldstyle" unicode="&#xf738;" 
d="M268 -10h-29c-114 0 -186 71 -186 185v24c0 37 25 85 53 113c5 5 5 9 0 14c-28 27 -53 71 -53 108v19c0 114 72 187 186 187h29c113 0 186 -73 186 -187v-19c0 -37 -25 -81 -53 -108c-5 -5 -5 -9 0 -14c28 -28 53 -76 53 -113v-24c0 -114 -73 -185 -186 -185zM239 372h29
c40 0 71 32 71 72v19c0 40 -31 72 -71 72h-29c-39 0 -72 -33 -72 -72v-19c0 -39 33 -72 72 -72zM239 95h29c40 0 71 32 71 72v29c0 40 -31 71 -71 71h-29c-40 0 -72 -31 -72 -71v-29c0 -39 33 -72 72 -72z" />
    <glyph glyph-name="nine.oldstyle" unicode="&#xf739;" horiz-adv-x="509" 
d="M259 -138h-30c-101 0 -145 49 -174 114c-3 6 -1 10 5 13l86 43c6 3 11 1 13 -6c16 -43 40 -59 70 -59h30c39 0 72 33 72 72v57c0 10 -6 14 -15 9c-21 -11 -46 -18 -66 -18h-30c-98 0 -177 72 -177 176v72c0 104 73 177 186 177h30c114 0 187 -73 187 -177v-296
c0 -104 -73 -177 -187 -177zM229 192h30c40 0 72 31 72 71v72c0 39 -33 72 -72 72h-30c-40 0 -71 -32 -71 -72v-72c0 -40 31 -71 71 -71z" />
    <glyph glyph-name="question.sc" unicode="&#xe08d;" horiz-adv-x="385" 
d="M193 152h-75c-7 0 -12 5 -13 12c-3 14 -5 29 -5 44c0 71 48 95 97 120c25 13 47 15 47 45c0 28 -21 45 -49 45h-29c-19 0 -37 -12 -50 -44c-3 -6 -6 -8 -12 -8c-3 0 -9 3 -12 5l-62 31c-5 2 -9 6 -9 11c0 7 9 20 16 32c25 39 61 67 129 67h29c93 0 152 -59 152 -139
c0 -95 -57 -108 -102 -129c-23 -11 -43 -21 -43 -47c0 -11 5 -23 5 -32s-4 -13 -14 -13zM223 48c0 -31 -28 -59 -59 -59s-59 28 -59 59s28 58 59 58s59 -27 59 -58z" />
    <glyph glyph-name="circumflex.sc" unicode="&#xe084;" horiz-adv-x="500" 
d="M202 567h-81c-7 0 -11 3 -11 8c0 3 1 5 3 8l104 147c2 2 5 4 8 4h49c3 0 6 -2 8 -4l105 -147c2 -3 3 -6 3 -8c0 -5 -4 -8 -11 -8h-81c-3 0 -6 2 -8 5l-33 51c-2 4 -5 6 -8 6c-2 0 -5 -2 -7 -6l-32 -51c-2 -3 -5 -5 -8 -5z" />
    <glyph glyph-name="grave.sc" unicode="&#xe08e;" horiz-adv-x="500" 
d="M299 567h-68c-6 0 -11 3 -16 7l-142 140c-4 4 -7 7 -7 12s4 8 11 8h122c5 0 11 -3 14 -8l90 -138c3 -5 6 -9 6 -13c0 -5 -3 -8 -10 -8z" />
    <glyph glyph-name="a.sc" unicode="&#xe000;" horiz-adv-x="444" 
d="M123 0h-101c-6 0 -9 2 -9 6c0 1 0 3 1 4l164 486c2 4 3 5 8 5h73c3 0 5 -1 7 -5l163 -486c1 -2 1 -4 1 -5c0 -3 -2 -5 -8 -5h-103c-5 0 -6 2 -7 6l-24 72c-2 4 -5 5 -10 5h-113c-6 0 -8 -1 -9 -5l-25 -72c-1 -4 -4 -6 -8 -6zM188 164h67c7 0 8 3 8 8l-25 99
c-9 36 -13 79 -14 81h-2c0 -2 -5 -45 -15 -81l-27 -99c0 -5 1 -8 8 -8z" />
    <glyph glyph-name="b.sc" unicode="&#xe008;" horiz-adv-x="512" 
d="M292 0h-209c-4 0 -7 2 -7 8v485c0 6 3 8 7 8h209c102 0 162 -49 162 -141v-18c0 -34 -19 -68 -50 -83c-7 -4 -7 -9 0 -12c29 -15 50 -48 50 -84v-20c0 -85 -59 -143 -162 -143zM197 297h95c33 0 51 19 51 46v13c0 26 -19 48 -51 48h-95c-7 0 -9 -3 -9 -9v-90
c0 -5 2 -8 9 -8zM197 98h95c28 0 51 22 51 46v21c0 25 -20 46 -51 46h-95c-7 0 -9 -3 -9 -8v-97c0 -5 2 -8 9 -8z" />
    <glyph glyph-name="c.sc" unicode="&#xe009;" horiz-adv-x="472" 
d="M279 -11h-51c-102 0 -164 59 -164 144v234c0 87 62 145 164 145h51c76 0 119 -31 154 -96c1 -3 2 -5 2 -8c0 -2 -1 -5 -3 -6l-83 -38c-1 -1 -2 -1 -3 -1c-4 0 -8 3 -10 6c-17 29 -38 45 -62 45h-46c-33 0 -54 -20 -54 -47v-234c0 -26 21 -47 54 -47h46c24 0 45 17 62 46
c2 4 6 7 10 7c1 0 2 -1 3 -1l83 -38c2 -2 3 -4 3 -7s-1 -6 -2 -8c-35 -65 -78 -96 -154 -96z" />
    <glyph glyph-name="d.sc" unicode="&#xe00b;" horiz-adv-x="518" 
d="M292 0h-209c-4 0 -7 2 -7 8v485c0 6 3 8 7 8h209c98 0 162 -58 162 -152v-197c0 -94 -64 -152 -162 -152zM197 98h95c28 0 51 22 51 46v212c0 24 -23 48 -51 48h-95c-7 0 -9 -3 -9 -9v-289c0 -5 2 -8 9 -8z" />
    <glyph glyph-name="e.sc" unicode="&#xe00d;" horiz-adv-x="456" 
d="M400 0h-317c-4 0 -7 2 -7 8v485c0 6 3 8 7 8h317c4 0 8 -2 8 -8v-82c0 -5 -3 -7 -8 -7h-203c-7 0 -9 -3 -9 -9v-84c0 -5 2 -8 9 -8h167c4 0 9 -2 9 -7v-83c0 -6 -5 -8 -9 -8h-167c-7 0 -9 -3 -9 -8v-91c0 -5 2 -8 9 -8h203c4 0 8 -2 8 -8v-82c0 -6 -3 -8 -8 -8z" />
    <glyph glyph-name="f.sc" unicode="&#xe012;" horiz-adv-x="439" 
d="M180 0h-97c-4 0 -7 2 -7 8v485c0 6 3 8 7 8h317c4 0 8 -2 8 -8v-82c0 -5 -3 -7 -8 -7h-203c-7 0 -9 -3 -9 -9v-84c0 -5 2 -8 9 -8h167c4 0 9 -2 9 -7v-83c0 -6 -5 -8 -9 -8h-167c-7 0 -9 -3 -9 -8v-189c0 -6 -3 -8 -8 -8z" />
    <glyph glyph-name="g.sc" unicode="&#xe013;" horiz-adv-x="502" 
d="M279 -11h-51c-104 0 -164 56 -164 144v234c0 87 62 145 164 145h60c76 0 120 -30 156 -96c1 -2 1 -5 1 -7c0 -3 -1 -5 -4 -7l-82 -38c-1 -1 -2 -1 -3 -1c-4 0 -8 3 -10 6c-17 29 -38 45 -62 45h-56c-33 0 -54 -20 -54 -47v-234c0 -26 24 -46 54 -46h51c30 0 51 20 51 46
v42c0 6 -3 8 -9 8h-70c-4 0 -8 3 -8 8v70c0 7 4 8 8 8h184c6 0 7 -1 7 -8v-128c0 -88 -60 -144 -163 -144z" />
    <glyph glyph-name="h.sc" unicode="&#xe014;" horiz-adv-x="542" 
d="M180 0h-97c-4 0 -7 2 -7 8v485c0 6 3 8 7 8h97c3 0 8 -2 8 -8v-182c0 -5 2 -8 9 -8h149c6 0 9 3 9 8v182c0 6 3 8 8 8h95c5 0 8 -2 8 -8v-485c0 -6 -3 -8 -8 -8h-95c-5 0 -8 2 -8 8v189c0 5 -3 8 -9 8h-149c-7 0 -9 -3 -9 -8v-189c0 -6 -3 -8 -8 -8z" />
    <glyph glyph-name="i.sc" unicode="&#xe015;" horiz-adv-x="264" 
d="M180 0h-97c-4 0 -7 2 -7 8v485c0 6 3 8 7 8h97c3 0 8 -2 8 -8v-485c0 -6 -3 -8 -8 -8z" />
    <glyph glyph-name="j.sc" unicode="&#xe01a;" horiz-adv-x="401" 
d="M18 103l87 38c2 1 3 1 5 1c3 0 5 -2 7 -5c13 -30 32 -48 59 -48c29 0 49 20 49 47v357c0 6 3 8 7 8h97c4 0 8 -2 8 -8v-347c0 -95 -62 -155 -166 -155c-74 0 -128 37 -156 100c-1 2 -2 4 -2 5c0 3 2 5 5 7z" />
    <glyph glyph-name="k.sc" unicode="&#xe01b;" horiz-adv-x="493" 
d="M180 0h-97c-4 0 -7 2 -7 8v485c0 6 3 8 7 8h97c3 0 8 -2 8 -8v-143c0 -17 0 -34 -2 -42l152 188c2 3 6 5 10 5h117c6 0 9 -2 9 -6c0 -2 -1 -5 -3 -7l-169 -193c-2 -2 -2 -3 -2 -4s0 -3 2 -4l183 -275c1 -2 2 -4 2 -6c0 -4 -2 -6 -8 -6h-126c-4 0 -8 2 -12 6l-116 184
c-2 3 -4 5 -7 5c-2 0 -4 -2 -6 -4l-24 -29v-154c0 -6 -3 -8 -8 -8z" />
    <glyph glyph-name="l.sc" unicode="&#xe01c;" horiz-adv-x="419" 
d="M400 0h-317c-4 0 -7 2 -7 8v485c0 6 3 8 7 8h97c4 0 8 -2 8 -8v-387c0 -5 2 -8 9 -8h203c4 0 8 -2 8 -8v-82c0 -6 -3 -8 -8 -8z" />
    <glyph glyph-name="m.sc" unicode="&#xe01e;" horiz-adv-x="609" 
d="M176 0h-93c-5 0 -7 2 -7 8v485c0 6 2 8 7 8h97c4 0 6 -1 8 -5l105 -259c6 -15 9 -30 10 -31h3c0 1 5 17 10 31l102 259c2 4 5 5 9 5h95c5 0 8 -2 8 -8v-485c0 -6 -3 -8 -8 -8h-92c-5 0 -7 2 -7 8v125c0 71 6 151 6 156h-3c0 -2 -7 -40 -19 -68l-62 -150
c-1 -6 -7 -8 -11 -8h-61c-5 0 -10 2 -13 8l-60 152c-11 28 -20 64 -21 66h-2c0 -5 7 -82 7 -155v-126c0 -6 -2 -8 -8 -8z" />
    <glyph glyph-name="n.sc" unicode="&#xe01f;" horiz-adv-x="517" 
d="M177 0h-94c-4 0 -7 2 -7 8v485c0 6 3 8 7 8h84c5 0 8 -2 10 -6l139 -257c9 -17 16 -35 17 -37h3c0 6 -3 78 -3 146v146c0 6 2 8 7 8h93c4 0 8 -2 8 -8v-485c0 -6 -3 -8 -8 -8h-84c-3 0 -5 2 -8 6l-140 253c-9 16 -16 33 -16 34h-3c0 -5 4 -78 4 -142v-143
c0 -6 -4 -8 -9 -8z" />
    <glyph glyph-name="o.sc" unicode="&#xe021;" horiz-adv-x="506" 
d="M279 -11h-51c-99 0 -164 59 -164 144v234c0 87 67 145 164 145h51c97 0 163 -58 163 -145v-234c0 -85 -66 -144 -163 -144zM228 87h51c30 0 51 20 51 46v235c0 27 -22 46 -51 46h-51c-30 0 -54 -21 -54 -46v-235c0 -27 21 -46 54 -46z" />
    <glyph glyph-name="p.sc" unicode="&#xe029;" horiz-adv-x="457" 
d="M180 0h-97c-4 0 -7 2 -7 8v485c0 6 3 8 7 8h185c98 0 163 -51 163 -141v-26c0 -78 -67 -129 -163 -129h-71c-7 0 -9 -3 -9 -8v-189c0 -6 -3 -8 -8 -8zM197 297h74c31 0 51 18 51 43v19c0 25 -20 45 -51 45h-74c-7 0 -9 -3 -9 -9v-90c0 -5 2 -8 9 -8z" />
    <glyph glyph-name="q.sc" unicode="&#xe02b;" horiz-adv-x="506" 
d="M296 -86h-89c-5 0 -8 2 -8 9v58c0 3 -2 6 -7 8c-79 13 -128 66 -128 141v236c0 87 67 145 164 145h51c98 0 163 -58 163 -145v-236c0 -77 -52 -128 -130 -141c-5 -1 -7 -4 -7 -8v-58c0 -7 -4 -9 -9 -9zM206 91l15 43c3 5 7 8 11 8h39c5 0 10 -3 12 -8l15 -42
c2 -5 7 -6 10 -2c13 5 22 19 22 33v244c0 27 -22 47 -51 47h-51c-30 0 -54 -22 -54 -47v-244c0 -14 10 -27 23 -34c3 -2 7 -2 9 2z" />
    <glyph glyph-name="r.sc" unicode="&#xe02c;" horiz-adv-x="511" 
d="M180 0h-97c-4 0 -7 2 -7 8v485c0 6 3 8 7 8h209c98 0 162 -58 162 -152v-7c0 -48 -26 -88 -62 -108c-4 -2 -6 -5 -6 -8s1 -5 2 -8l81 -208c0 -2 1 -3 1 -4c0 -3 -2 -6 -8 -6h-103c-3 0 -6 2 -7 6l-77 194c-2 4 -4 5 -7 5h-71c-7 0 -9 -3 -9 -8v-189c0 -6 -3 -8 -8 -8z
M197 297h95c30 0 51 18 51 46v13c0 28 -20 48 -51 48h-95c-7 0 -9 -3 -9 -9v-90c0 -5 2 -8 9 -8z" />
    <glyph glyph-name="s.sc" unicode="&#xe02d;" horiz-adv-x="443" 
d="M231 -11h-31c-74 0 -124 33 -152 83c-2 2 -3 5 -3 8c0 2 1 5 5 7l70 46c2 1 4 2 7 2s6 -2 7 -5c16 -27 38 -43 65 -43h31c31 0 53 22 53 51c0 40 -46 52 -100 72c-80 29 -133 62 -133 151c0 92 63 151 165 151h16c74 0 124 -32 153 -82c1 -3 3 -6 3 -9s-2 -5 -5 -7
l-70 -45c-2 -2 -5 -3 -8 -3s-5 2 -7 5c-15 28 -37 43 -65 43h-17c-30 0 -51 -19 -51 -50c0 -37 53 -53 98 -68c85 -30 134 -67 134 -156c0 -92 -60 -151 -165 -151z" />
    <glyph glyph-name="t.sc" unicode="&#xe02f;" horiz-adv-x="377" 
d="M237 0h-97c-4 0 -7 2 -7 8v387c0 6 -2 9 -10 9h-95c-5 0 -8 2 -8 7v82c0 6 3 8 8 8h322c2 0 7 -2 7 -8v-82c0 -5 -3 -7 -7 -7h-96c-8 0 -10 -3 -10 -9v-387c0 -6 -3 -8 -7 -8z" />
    <glyph glyph-name="u.sc" unicode="&#xe030;" horiz-adv-x="517" 
d="M284 -11h-51c-99 0 -163 59 -163 144v360c0 6 2 8 7 8h95c4 0 7 -2 7 -8v-360c0 -27 20 -46 54 -46h51c33 0 52 19 52 46v360c0 6 3 8 8 8h96c5 0 8 -2 8 -8v-360c0 -85 -66 -144 -164 -144z" />
    <glyph glyph-name="v.sc" unicode="&#xe035;" horiz-adv-x="444" 
d="M258 0h-72c-2 0 -6 1 -8 6l-162 479c-1 3 -3 7 -3 9c0 4 3 7 9 7h103c5 0 7 -1 8 -5l76 -254c7 -23 11 -42 13 -59h3c1 17 6 36 13 59l72 254c1 4 3 5 8 5h104c5 0 8 -3 8 -7c0 -3 -3 -9 -4 -13l-160 -475c-1 -4 -5 -6 -8 -6z" />
    <glyph glyph-name="w.sc" unicode="&#xe036;" horiz-adv-x="604" 
d="M219 0h-77c-3 0 -6 2 -7 7l-117 485c-1 1 -1 2 -1 3c0 3 3 6 8 6h102c5 0 7 -2 8 -6l50 -267c3 -14 5 -42 5 -44h3c0 2 2 29 6 44l64 266c1 4 3 7 9 7h65c5 0 8 -2 9 -6l58 -267c3 -16 5 -43 6 -44h2c1 1 3 28 6 45l51 266c1 4 4 6 8 6h101c5 0 8 -2 8 -6
c0 -1 -1 -2 -1 -3l-115 -485c-1 -5 -4 -7 -8 -7h-77c-4 0 -6 2 -7 6l-68 261c-4 16 -6 40 -7 42h-3c0 -2 -2 -27 -6 -42l-67 -261c-1 -4 -4 -6 -8 -6z" />
    <glyph glyph-name="x.sc" unicode="&#xe037;" horiz-adv-x="471" 
d="M146 0h-106c-6 0 -9 2 -9 6c0 2 1 4 2 6l133 231c1 3 2 5 2 7s-1 4 -2 6l-135 234c-1 2 -2 3 -2 5c0 3 4 6 8 6h109c6 0 10 -2 12 -6l73 -139c2 -4 4 -5 6 -5s3 1 5 5l70 139c3 4 7 6 12 6h110c4 0 7 -3 7 -6c0 -2 0 -3 -1 -5l-135 -234c-1 -2 -2 -4 -2 -6
c0 -3 1 -5 3 -8l132 -231c1 -2 2 -3 2 -5c0 -4 -4 -6 -9 -6h-106c-8 0 -12 3 -14 9l-70 135c-1 3 -3 4 -5 4s-4 -1 -5 -4l-70 -135c-3 -6 -7 -9 -15 -9z" />
    <glyph glyph-name="y.sc" unicode="&#xe038;" horiz-adv-x="395" 
d="M245 0h-95c-5 0 -8 2 -8 8v218l-154 263c-1 2 -2 4 -2 6c0 4 3 6 9 6h110c4 0 8 -2 11 -7l74 -138c2 -4 5 -5 7 -5c3 0 6 1 8 5l76 138c2 5 7 7 11 7h109c5 0 9 -2 9 -6c0 -2 -1 -4 -2 -6l-154 -263v-218c0 -6 -4 -8 -9 -8z" />
    <glyph glyph-name="z.sc" unicode="&#xe03b;" horiz-adv-x="431" 
d="M380 0h-339c-5 0 -8 3 -8 6c0 2 0 3 1 5l191 381c1 1 1 3 1 4c0 5 -3 8 -10 8h-151c-5 0 -8 2 -8 7v82c0 6 3 8 8 8h322c6 0 9 -3 9 -7c0 -1 -1 -3 -1 -4l-192 -381c-1 -2 -1 -3 -1 -4c0 -4 3 -7 10 -7h168c5 0 8 -2 8 -8v-82c0 -6 -4 -8 -8 -8z" />
    <glyph glyph-name="tilde.sc" unicode="&#xe089;" horiz-adv-x="500" 
d="M130 595l-34 25c-3 2 -4 4 -4 8s5 14 14 28c27 42 55 58 87 58c23 0 44 -9 68 -26l17 -12c8 -6 20 -11 28 -11c13 0 26 6 43 34c2 4 5 6 8 6c4 0 7 -3 11 -6l36 -29c3 -2 4 -5 4 -8c0 -4 -7 -17 -18 -34c-26 -38 -54 -55 -84 -55c-22 0 -43 13 -69 29l-18 11
c-8 5 -18 10 -26 10c-13 0 -25 -7 -41 -31c-2 -4 -5 -6 -8 -6s-8 4 -14 9z" />
    <glyph glyph-name="exclamdown.sc" unicode="&#xe08f;" horiz-adv-x="253" 
d="M163 -7h-74c-10 0 -14 4 -14 14v186l16 140c2 7 7 12 14 12h40c7 0 13 -5 13 -12l19 -140v-186c0 -10 -5 -14 -14 -14zM67 449c0 31 27 59 59 59c31 0 58 -28 58 -59s-27 -58 -58 -58c-32 0 -59 27 -59 58z" />
    <glyph glyph-name="lslash.sc" unicode="&#xe01d;" horiz-adv-x="419" 
d="M400 0h-317c-4 0 -7 2 -7 8v132c0 7 -2 10 -4 10s-4 -1 -7 -4l-14 -14c-2 -3 -5 -4 -8 -4c-2 0 -4 1 -6 3l-52 51c-3 2 -4 5 -4 7s1 4 4 7l80 79c8 8 11 16 11 27v191c0 6 3 8 7 8h98c3 0 7 -2 7 -8v-80c0 -5 2 -8 6 -8c2 0 4 0 7 3l16 18c2 2 5 3 7 3s5 -1 7 -3l51 -51
c2 -3 4 -5 4 -7s-2 -5 -4 -7l-83 -82c-7 -7 -11 -15 -11 -25v-148c0 -5 2 -8 10 -8h202c4 0 8 -2 8 -8v-82c0 -6 -3 -8 -8 -8z" />
    <glyph glyph-name="scaron.sc" unicode="&#xe02e;" horiz-adv-x="443" 
d="M231 -11h-31c-74 0 -124 33 -152 83c-2 2 -3 5 -3 8c0 2 1 5 5 7l70 46c2 1 4 2 7 2s6 -2 7 -5c16 -27 38 -43 65 -43h31c31 0 53 22 53 51c0 40 -46 52 -100 72c-80 29 -133 62 -133 151c0 92 63 151 165 151h16c74 0 124 -32 153 -82c1 -3 3 -6 3 -9s-2 -5 -5 -7
l-70 -45c-2 -2 -5 -3 -8 -3s-5 2 -7 5c-15 28 -37 43 -65 43h-17c-30 0 -51 -19 -51 -50c0 -37 53 -53 98 -68c85 -30 134 -67 134 -156c0 -92 -60 -151 -165 -151zM245 567h-49c-3 0 -6 2 -8 4l-97 137c-6 9 -10 14 -10 18c0 5 4 8 11 8h81c3 0 6 -2 8 -5l32 -51
c2 -4 4 -6 7 -6s6 2 8 6l33 51c2 3 5 5 8 5h81c7 0 11 -3 11 -8c0 -4 -5 -11 -10 -18l-98 -137c-2 -2 -5 -4 -8 -4z" />
    <glyph glyph-name="zcaron.sc" unicode="&#xe03c;" horiz-adv-x="431" 
d="M380 0h-339c-5 0 -8 3 -8 6c0 2 0 3 1 5l191 381c1 1 1 3 1 4c0 5 -3 8 -10 8h-151c-5 0 -8 2 -8 7v82c0 6 3 8 8 8h322c6 0 9 -3 9 -7c0 -1 -1 -3 -1 -4l-192 -381c-1 -2 -1 -3 -1 -4c0 -4 3 -7 10 -7h168c5 0 8 -2 8 -8v-82c0 -6 -4 -8 -8 -8zM239 567h-49
c-3 0 -6 2 -8 4l-97 137c-6 9 -10 14 -10 18c0 5 4 8 11 8h81c3 0 6 -2 8 -5l32 -51c2 -4 4 -6 7 -6s6 2 8 6l33 51c2 3 5 5 8 5h81c7 0 11 -3 11 -8c0 -4 -5 -11 -10 -18l-98 -137c-2 -2 -5 -4 -8 -4z" />
    <glyph glyph-name="dieresis.sc" unicode="&#xe090;" horiz-adv-x="500" 
d="M396 639c0 -35 -27 -62 -62 -62s-62 27 -62 62s27 62 62 62s62 -27 62 -62zM227 639c0 -35 -27 -62 -62 -62s-62 27 -62 62s27 62 62 62s62 -27 62 -62z" />
    <glyph glyph-name="breve.sc" unicode="&#xe082;" horiz-adv-x="500" 
d="M271 567h-43c-61 0 -100 39 -100 95v62c0 7 3 10 10 10h51c7 0 10 -3 10 -10v-43c0 -15 14 -28 29 -28h43c16 0 28 12 28 28v43c0 7 3 10 10 10h52c7 0 10 -3 10 -10v-62c0 -56 -39 -95 -100 -95z" />
    <glyph glyph-name="caron.sc" unicode="&#xe083;" horiz-adv-x="500" 
d="M274 567h-49c-3 0 -6 2 -8 4l-97 137c-6 9 -10 14 -10 18c0 5 4 8 11 8h81c3 0 6 -2 8 -5l32 -51c2 -4 4 -6 7 -6s6 2 8 6l33 51c2 3 5 5 8 5h81c7 0 11 -3 11 -8c0 -4 -5 -11 -10 -18l-98 -137c-2 -2 -5 -4 -8 -4z" />
    <glyph glyph-name="dotaccent.sc" unicode="&#xe085;" horiz-adv-x="500" 
d="M312 639c0 -35 -27 -62 -62 -62s-62 27 -62 62s27 62 62 62s62 -27 62 -62z" />
    <glyph glyph-name="macron.sc" unicode="&#xe091;" horiz-adv-x="500" 
d="M364 583h-228c-7 0 -10 3 -10 10v85c0 7 3 10 10 10h228c7 0 10 -3 10 -10v-85c0 -7 -3 -10 -10 -10z" />
    <glyph glyph-name="ring.sc" unicode="&#xe088;" horiz-adv-x="500" 
d="M150 649v29c0 56 39 95 100 95s100 -39 100 -95v-29c0 -56 -39 -95 -100 -95s-100 39 -100 95zM279 649v29c0 15 -14 29 -29 29s-29 -14 -29 -29v-29c0 -15 14 -28 29 -28s29 13 29 28z" />
    <glyph glyph-name="questiondown.sc" unicode="&#xe094;" horiz-adv-x="385" 
d="M220 -11h-29c-93 0 -152 59 -152 139c0 95 57 108 102 129c23 11 43 21 43 47c0 11 -5 23 -5 32s4 13 14 13h75c7 0 12 -5 13 -12c3 -14 5 -29 5 -44c0 -71 -48 -95 -97 -120c-25 -13 -47 -15 -47 -45c0 -28 21 -45 49 -45h29c19 0 37 12 50 44c3 6 6 8 12 8
c3 0 9 -3 12 -5l62 -31c5 -2 9 -6 9 -11c0 -7 -9 -20 -16 -32c-25 -39 -61 -67 -129 -67zM163 453c0 31 28 59 59 59s59 -28 59 -59s-28 -58 -59 -58s-59 27 -59 58z" />
    <glyph glyph-name="oneeighth" unicode="&#x215b;" horiz-adv-x="863" 
d="M296 251h-234c-3 0 -6 1 -6 6v67c0 4 3 6 6 6h64c6 0 8 2 8 7v104c0 3 -2 4 -4 4c-1 0 -2 0 -4 -1l-16 -13c-1 -1 -7 -6 -9 -6s-4 0 -6 2l-43 39c-4 4 -7 7 -7 9c0 1 0 3 2 5l120 112c2 1 6 3 9 3h42c4 0 6 -2 6 -7v-251c0 -5 2 -7 9 -7h63c4 0 6 -2 6 -6v-67
c0 -5 -2 -6 -6 -6zM705 -5h-20c-80 0 -131 40 -131 105v12c0 19 9 33 21 48c4 5 7 8 7 11s-3 6 -7 10c-14 14 -21 30 -21 47v10c0 65 51 106 131 106h20c80 0 131 -41 131 -106v-10c0 -17 -10 -35 -23 -48c-4 -4 -6 -7 -6 -9c0 -4 3 -6 7 -10c14 -14 22 -30 22 -49v-12
c0 -65 -51 -105 -131 -105zM685 212h20c24 0 43 6 43 21v11c0 15 -19 21 -43 21h-20c-23 0 -44 -5 -44 -21v-11c0 -16 21 -21 44 -21zM685 74h20c24 0 43 6 43 21v17c0 17 -19 21 -43 21h-20c-24 0 -44 -5 -44 -21v-17c0 -14 21 -21 44 -21zM334 0h-54c-7 0 -10 3 -10 8
c0 4 3 10 6 18l256 598c2 4 5 6 9 6h54c7 0 10 -3 10 -8c0 -4 -2 -10 -5 -16l-257 -600c-2 -4 -5 -6 -9 -6z" />
    <glyph glyph-name="threeeighths" unicode="&#x215c;" horiz-adv-x="863" 
d="M167 246h-15c-57 0 -84 22 -106 48c-6 7 -19 27 -19 33c0 5 5 8 12 11c14 5 53 21 58 21s6 -3 11 -11c9 -16 25 -23 44 -23h15c27 0 44 5 44 22v17c0 18 -15 21 -44 21h-57c-9 0 -12 2 -12 13v56c0 9 3 10 12 10h57c30 0 44 6 44 23v7c0 17 -16 22 -44 22h-15
c-19 0 -36 -9 -48 -30c-2 -2 -4 -3 -6 -3s-7 2 -10 3l-55 25c-3 1 -6 4 -6 8c0 5 7 18 18 31c21 23 50 45 107 45h15c80 0 132 -41 132 -106v-7c0 -19 -13 -41 -30 -57c17 -18 30 -41 30 -59v-15c0 -65 -52 -105 -132 -105zM705 -5h-20c-80 0 -131 40 -131 105v12
c0 19 9 33 21 48c4 5 7 8 7 11s-3 6 -7 10c-14 14 -21 30 -21 47v10c0 65 51 106 131 106h20c80 0 131 -41 131 -106v-10c0 -17 -10 -35 -23 -48c-4 -4 -6 -7 -6 -9c0 -4 3 -6 7 -10c14 -14 22 -30 22 -49v-12c0 -65 -51 -105 -131 -105zM685 212h20c24 0 43 6 43 21v11
c0 15 -19 21 -43 21h-20c-23 0 -44 -5 -44 -21v-11c0 -16 21 -21 44 -21zM685 74h20c24 0 43 6 43 21v17c0 17 -19 21 -43 21h-20c-24 0 -44 -5 -44 -21v-17c0 -14 21 -21 44 -21zM324 0h-54c-7 0 -10 3 -10 8c0 4 3 10 6 18l256 598c2 4 5 6 9 6h54c7 0 10 -3 10 -8
c0 -4 -2 -10 -5 -16l-257 -600c-2 -4 -5 -6 -9 -6z" />
    <glyph glyph-name="fiveeighths" unicode="&#x215d;" horiz-adv-x="863" 
d="M178 246h-19c-57 0 -88 20 -111 46c-4 4 -19 23 -19 30s8 10 12 12c14 5 56 24 63 24c4 0 7 -6 12 -12c12 -15 24 -21 43 -21h19c24 0 43 6 43 22v17c0 18 -11 22 -43 22h-114c-7 0 -12 1 -12 12v180c0 11 5 12 12 12h226c9 0 12 -2 12 -8v-59c0 -8 -3 -12 -12 -12h-142
c-5 0 -7 -1 -7 -8v-31c0 -6 1 -7 7 -7h30c79 0 131 -39 131 -105v-9c0 -65 -52 -105 -131 -105zM705 -5h-20c-80 0 -131 40 -131 105v12c0 19 9 33 21 48c4 5 7 8 7 11s-3 6 -7 10c-14 14 -21 30 -21 47v10c0 65 51 106 131 106h20c80 0 131 -41 131 -106v-10
c0 -17 -10 -35 -23 -48c-4 -4 -6 -7 -6 -9c0 -4 3 -6 7 -10c14 -14 22 -30 22 -49v-12c0 -65 -51 -105 -131 -105zM685 212h20c24 0 43 6 43 21v11c0 15 -19 21 -43 21h-20c-23 0 -44 -5 -44 -21v-11c0 -16 21 -21 44 -21zM685 74h20c24 0 43 6 43 21v17c0 17 -19 21 -43 21
h-20c-24 0 -44 -5 -44 -21v-17c0 -14 21 -21 44 -21zM334 0h-54c-7 0 -10 3 -10 8c0 4 3 10 6 18l256 598c2 4 5 6 9 6h54c7 0 10 -3 10 -8c0 -4 -2 -10 -5 -16l-257 -600c-2 -4 -5 -6 -9 -6z" />
    <glyph glyph-name="seveneighths" unicode="&#x215e;" horiz-adv-x="863" 
d="M131 251h-64c-9 0 -12 2 -12 13v62c0 69 48 101 93 124c15 7 67 32 67 44v9c0 6 -4 7 -11 7h-150c-9 0 -12 3 -12 14v52c0 10 3 14 12 14h239c9 0 12 -2 12 -14v-62c0 -74 -57 -102 -106 -126c-31 -15 -56 -27 -56 -56v-67c0 -11 -3 -14 -12 -14zM705 -5h-20
c-80 0 -131 40 -131 105v12c0 19 9 33 21 48c4 5 7 8 7 11s-3 6 -7 10c-14 14 -21 30 -21 47v10c0 65 51 106 131 106h20c80 0 131 -41 131 -106v-10c0 -17 -10 -35 -23 -48c-4 -4 -6 -7 -6 -9c0 -4 3 -6 7 -10c14 -14 22 -30 22 -49v-12c0 -65 -51 -105 -131 -105zM685 212
h20c24 0 43 6 43 21v11c0 15 -19 21 -43 21h-20c-23 0 -44 -5 -44 -21v-11c0 -16 21 -21 44 -21zM685 74h20c24 0 43 6 43 21v17c0 17 -19 21 -43 21h-20c-24 0 -44 -5 -44 -21v-17c0 -14 21 -21 44 -21zM304 0h-54c-7 0 -10 3 -10 8c0 4 3 10 6 18l256 598c2 4 5 6 9 6h54
c7 0 10 -3 10 -8c0 -4 -2 -10 -5 -16l-257 -600c-2 -4 -5 -6 -9 -6z" />
    <glyph glyph-name="onethird" unicode="&#x2153;" horiz-adv-x="863" 
d="M296 251h-234c-3 0 -6 1 -6 6v67c0 4 3 6 6 6h64c6 0 8 2 8 7v104c0 3 -2 4 -4 4c-1 0 -2 0 -4 -1l-16 -13c-1 -1 -7 -6 -9 -6s-4 0 -6 2l-43 39c-4 4 -7 7 -7 9c0 1 0 3 2 5l120 112c2 1 6 3 9 3h42c4 0 6 -2 6 -7v-251c0 -5 2 -7 9 -7h63c4 0 6 -2 6 -6v-67
c0 -5 -2 -6 -6 -6zM695 -5h-15c-57 0 -84 22 -106 48c-6 7 -19 27 -19 33c0 5 5 8 12 11c14 5 53 21 58 21s6 -3 11 -11c9 -16 25 -23 44 -23h15c27 0 44 5 44 22v17c0 18 -15 21 -44 21h-57c-9 0 -12 2 -12 13v56c0 9 3 10 12 10h57c30 0 44 6 44 23v7c0 17 -16 22 -44 22
h-15c-19 0 -36 -9 -48 -30c-2 -2 -4 -3 -6 -3s-7 2 -10 3l-55 25c-3 1 -6 4 -6 8c0 5 7 18 18 31c21 23 50 45 107 45h15c80 0 132 -41 132 -106v-7c0 -19 -13 -41 -30 -57c17 -18 30 -41 30 -59v-15c0 -65 -52 -105 -132 -105zM334 0h-54c-7 0 -10 3 -10 8c0 4 3 10 6 18
l256 598c2 4 5 6 9 6h54c7 0 10 -3 10 -8c0 -4 -2 -10 -5 -16l-257 -600c-2 -4 -5 -6 -9 -6z" />
    <glyph glyph-name="twothirds" unicode="&#x2154;" horiz-adv-x="863" 
d="M293 251h-248c-4 0 -7 2 -7 6v52c0 102 62 119 112 131c36 8 65 13 65 39c0 23 -15 37 -41 37h-24c-17 0 -33 -13 -48 -37c-2 -2 -4 -5 -7 -5c-2 0 -9 3 -15 6l-55 25c-2 2 -3 4 -3 6s0 3 1 5c26 48 60 79 125 79h26c80 0 130 -50 130 -121c0 -75 -71 -89 -121 -101
c-27 -7 -50 -13 -50 -31v-6c0 -4 2 -6 8 -6h152c4 0 6 -1 6 -6v-67c0 -4 -2 -6 -6 -6zM695 -5h-15c-57 0 -84 22 -106 48c-6 7 -19 27 -19 33c0 5 5 8 12 11c14 5 53 21 58 21s6 -3 11 -11c9 -16 25 -23 44 -23h15c27 0 44 5 44 22v17c0 18 -15 21 -44 21h-57
c-9 0 -12 2 -12 13v56c0 9 3 10 12 10h57c30 0 44 6 44 23v7c0 17 -16 22 -44 22h-15c-19 0 -36 -9 -48 -30c-2 -2 -4 -3 -6 -3s-7 2 -10 3l-55 25c-3 1 -6 4 -6 8c0 5 7 18 18 31c21 23 50 45 107 45h15c80 0 132 -41 132 -106v-7c0 -19 -13 -41 -30 -57
c17 -18 30 -41 30 -59v-15c0 -65 -52 -105 -132 -105zM334 0h-54c-7 0 -10 3 -10 8c0 4 3 10 6 18l256 598c2 4 5 6 9 6h54c7 0 10 -3 10 -8c0 -4 -2 -10 -5 -16l-257 -600c-2 -4 -5 -6 -9 -6z" />
    <glyph glyph-name="zero.superior" unicode="&#x2070;" horiz-adv-x="335" 
d="M177 343h-20c-80 0 -131 42 -131 101v147c0 59 51 101 131 101h20c80 0 131 -42 131 -101v-147c0 -59 -51 -101 -131 -101zM157 422h20c34 0 43 26 43 42v107c0 16 -9 42 -43 42h-20c-33 0 -44 -26 -44 -42v-107c0 -17 11 -42 44 -42z" />
    <glyph glyph-name="four.superior" unicode="&#x2074;" horiz-adv-x="335" 
d="M248 348h-65c-7 0 -11 4 -11 19v39c0 7 -4 10 -9 10h-134c-7 0 -11 3 -11 14v55l158 195c3 3 6 7 9 7h63c9 0 12 -3 12 -10v-175c0 -5 3 -6 6 -6h40c7 0 11 -4 11 -19v-42c0 -11 -4 -19 -11 -19h-40c-5 0 -6 -1 -6 -7v-42c0 -15 -3 -19 -12 -19zM129 496h37c6 0 6 2 6 8
v48c0 3 0 5 -2 5s-4 -3 -7 -7l-34 -44c-3 -4 -5 -6 -5 -8s2 -2 5 -2z" />
    <glyph glyph-name="five.superior" unicode="&#x2075;" horiz-adv-x="335" 
d="M178 343h-19c-57 0 -88 20 -111 46c-4 4 -19 23 -19 30s8 10 12 12c14 5 56 24 63 24c4 0 7 -6 12 -12c12 -15 24 -21 43 -21h19c24 0 43 6 43 22v17c0 18 -11 22 -43 22h-114c-7 0 -12 1 -12 12v180c0 11 5 12 12 12h226c9 0 12 -2 12 -8v-59c0 -8 -3 -12 -12 -12h-142
c-5 0 -7 -1 -7 -8v-31c0 -6 1 -7 7 -7h30c79 0 131 -39 131 -105v-9c0 -65 -52 -105 -131 -105z" />
    <glyph glyph-name="six.superior" unicode="&#x2076;" horiz-adv-x="335" 
d="M178 343h-21c-79 0 -131 42 -131 101v147c0 59 52 101 131 101h21c57 0 89 -18 112 -44c6 -6 19 -26 19 -33c0 -5 -4 -7 -6 -8l-63 -24c-2 -1 -5 -2 -8 -2c-2 0 -5 3 -9 10c-10 16 -26 22 -45 22h-21c-24 0 -43 -10 -43 -21v-32c0 -3 1 -7 6 -7c7 0 28 11 47 11h17
c70 0 126 -41 126 -101v-19c0 -59 -52 -101 -132 -101zM157 422h21c30 0 44 7 44 21v20c0 13 -12 22 -44 22h-21c-34 0 -43 -11 -43 -22v-20c0 -12 12 -21 43 -21z" />
    <glyph glyph-name="seven.superior" unicode="&#x2077;" horiz-adv-x="335" 
d="M131 348h-64c-9 0 -12 2 -12 13v62c0 69 48 101 93 124c15 7 67 32 67 44v9c0 6 -4 7 -11 7h-150c-9 0 -12 3 -12 14v52c0 10 3 14 12 14h239c9 0 12 -2 12 -14v-62c0 -74 -57 -102 -106 -126c-31 -15 -56 -27 -56 -56v-67c0 -11 -3 -14 -12 -14z" />
    <glyph glyph-name="eight.superior" unicode="&#x2078;" horiz-adv-x="335" 
d="M177 343h-20c-80 0 -131 40 -131 105v12c0 19 9 33 21 48c4 5 7 8 7 11s-3 6 -7 10c-14 14 -21 30 -21 47v10c0 65 51 106 131 106h20c80 0 131 -41 131 -106v-10c0 -17 -10 -35 -23 -48c-4 -4 -6 -7 -6 -9c0 -4 3 -6 7 -10c14 -14 22 -30 22 -49v-12
c0 -65 -51 -105 -131 -105zM157 560h20c24 0 43 6 43 21v11c0 15 -19 21 -43 21h-20c-23 0 -44 -5 -44 -21v-11c0 -16 21 -21 44 -21zM157 422h20c24 0 43 6 43 21v17c0 17 -19 21 -43 21h-20c-24 0 -44 -5 -44 -21v-17c0 -14 21 -21 44 -21z" />
    <glyph glyph-name="nine.superior" unicode="&#x2079;" horiz-adv-x="335" 
d="M178 343h-19c-57 0 -85 21 -108 47c-7 7 -20 23 -20 31c0 6 6 8 10 10c14 5 55 24 63 24c4 0 6 -5 11 -11c13 -15 25 -22 44 -22h19c23 0 44 10 44 21v14c0 4 -1 7 -5 7c-3 0 -23 -9 -45 -9h-21c-69 0 -125 41 -125 100v36c0 59 52 101 131 101h21c80 0 132 -42 132 -101
v-147c0 -59 -52 -101 -132 -101zM157 534h21c24 0 44 9 44 21v37c0 11 -21 21 -44 21h-21c-24 0 -43 -10 -43 -21v-37c0 -12 19 -21 43 -21z" />
    <glyph glyph-name="zero.inferior" unicode="&#x2080;" horiz-adv-x="335" 
d="M177 -102h-20c-80 0 -131 42 -131 101v147c0 59 51 101 131 101h20c80 0 131 -42 131 -101v-147c0 -59 -51 -101 -131 -101zM157 -23h20c34 0 43 26 43 42v107c0 16 -9 42 -43 42h-20c-33 0 -44 -26 -44 -42v-107c0 -17 11 -42 44 -42z" />
    <glyph glyph-name="one.inferior" unicode="&#x2081;" horiz-adv-x="335" 
d="M296 -97h-234c-3 0 -6 1 -6 6v67c0 4 3 6 6 6h64c6 0 8 2 8 7v104c0 3 -2 4 -4 4c-1 0 -2 0 -4 -1l-16 -13c-1 -1 -7 -6 -9 -6s-4 0 -6 2l-43 39c-4 4 -7 7 -7 9c0 1 0 3 2 5l120 112c2 1 6 3 9 3h42c4 0 6 -2 6 -7v-251c0 -5 2 -7 9 -7h63c4 0 6 -2 6 -6v-67
c0 -5 -2 -6 -6 -6z" />
    <glyph glyph-name="two.inferior" unicode="&#x2082;" horiz-adv-x="335" 
d="M293 -97h-248c-4 0 -7 2 -7 6v52c0 102 62 119 112 131c36 8 65 13 65 39c0 23 -15 37 -41 37h-24c-17 0 -33 -13 -48 -37c-2 -2 -4 -5 -7 -5c-2 0 -9 3 -15 6l-55 25c-2 2 -3 4 -3 6s0 3 1 5c26 48 60 79 125 79h26c80 0 130 -50 130 -121c0 -75 -71 -89 -121 -101
c-27 -7 -50 -13 -50 -31v-6c0 -4 2 -6 8 -6h152c4 0 6 -1 6 -6v-67c0 -4 -2 -6 -6 -6z" />
    <glyph glyph-name="three.inferior" unicode="&#x2083;" horiz-adv-x="335" 
d="M167 -102h-15c-57 0 -84 22 -106 48c-6 7 -19 27 -19 33c0 5 5 8 12 11c14 5 53 21 58 21s6 -3 11 -11c9 -16 25 -23 44 -23h15c27 0 44 5 44 22v17c0 18 -15 21 -44 21h-57c-9 0 -12 2 -12 13v56c0 9 3 10 12 10h57c30 0 44 6 44 23v7c0 17 -16 22 -44 22h-15
c-19 0 -36 -9 -48 -30c-2 -2 -4 -3 -6 -3s-7 2 -10 3l-55 25c-3 1 -6 4 -6 8c0 5 7 18 18 31c21 23 50 45 107 45h15c80 0 132 -41 132 -106v-7c0 -19 -13 -41 -30 -57c17 -18 30 -41 30 -59v-15c0 -65 -52 -105 -132 -105z" />
    <glyph glyph-name="four.inferior" unicode="&#x2084;" horiz-adv-x="335" 
d="M248 -97h-65c-7 0 -11 4 -11 19v39c0 7 -4 10 -9 10h-134c-7 0 -11 3 -11 14v55l158 195c3 3 6 7 9 7h63c9 0 12 -3 12 -10v-175c0 -5 3 -6 6 -6h40c7 0 11 -4 11 -19v-42c0 -11 -4 -19 -11 -19h-40c-5 0 -6 -1 -6 -7v-42c0 -15 -3 -19 -12 -19zM129 51h37c6 0 6 2 6 8
v48c0 3 0 5 -2 5s-4 -3 -7 -7l-34 -44c-3 -4 -5 -6 -5 -8s2 -2 5 -2z" />
    <glyph glyph-name="five.inferior" unicode="&#x2085;" horiz-adv-x="335" 
d="M178 -102h-19c-57 0 -88 20 -111 46c-4 4 -19 23 -19 30s8 10 12 12c14 5 56 24 63 24c4 0 7 -6 12 -12c12 -15 24 -21 43 -21h19c24 0 43 6 43 22v17c0 18 -11 22 -43 22h-114c-7 0 -12 1 -12 12v180c0 11 5 12 12 12h226c9 0 12 -2 12 -8v-59c0 -8 -3 -12 -12 -12h-142
c-5 0 -7 -1 -7 -8v-31c0 -6 1 -7 7 -7h30c79 0 131 -39 131 -105v-9c0 -65 -52 -105 -131 -105z" />
    <glyph glyph-name="six.inferior" unicode="&#x2086;" horiz-adv-x="335" 
d="M178 -102h-21c-79 0 -131 42 -131 101v147c0 59 52 101 131 101h21c57 0 89 -18 112 -44c6 -6 19 -26 19 -33c0 -5 -4 -7 -6 -8l-63 -24c-2 -1 -5 -2 -8 -2c-2 0 -5 3 -9 10c-10 16 -26 22 -45 22h-21c-24 0 -43 -10 -43 -21v-32c0 -3 1 -7 6 -7c7 0 28 11 47 11h17
c70 0 126 -41 126 -101v-19c0 -59 -52 -101 -132 -101zM157 -23h21c30 0 44 7 44 21v20c0 13 -12 22 -44 22h-21c-34 0 -43 -11 -43 -22v-20c0 -12 12 -21 43 -21z" />
    <glyph glyph-name="seven.inferior" unicode="&#x2087;" horiz-adv-x="335" 
d="M131 -97h-64c-9 0 -12 2 -12 13v62c0 69 48 101 93 124c15 7 67 32 67 44v9c0 6 -4 7 -11 7h-150c-9 0 -12 3 -12 14v52c0 10 3 14 12 14h239c9 0 12 -2 12 -14v-62c0 -74 -57 -102 -106 -126c-31 -15 -56 -27 -56 -56v-67c0 -11 -3 -14 -12 -14z" />
    <glyph glyph-name="eight.inferior" unicode="&#x2088;" horiz-adv-x="335" 
d="M177 -102h-20c-80 0 -131 40 -131 105v12c0 19 9 33 21 48c4 5 7 8 7 11s-3 6 -7 10c-14 14 -21 30 -21 47v10c0 65 51 106 131 106h20c80 0 131 -41 131 -106v-10c0 -17 -10 -35 -23 -48c-4 -4 -6 -7 -6 -9c0 -4 3 -6 7 -10c14 -14 22 -30 22 -49v-12
c0 -65 -51 -105 -131 -105zM157 115h20c24 0 43 6 43 21v11c0 15 -19 21 -43 21h-20c-23 0 -44 -5 -44 -21v-11c0 -16 21 -21 44 -21zM157 -23h20c24 0 43 6 43 21v17c0 17 -19 21 -43 21h-20c-24 0 -44 -5 -44 -21v-17c0 -14 21 -21 44 -21z" />
    <glyph glyph-name="nine.inferior" unicode="&#x2089;" horiz-adv-x="335" 
d="M178 -102h-19c-57 0 -85 21 -108 47c-7 7 -20 23 -20 31c0 6 6 8 10 10c14 5 55 24 63 24c4 0 6 -5 11 -11c13 -15 25 -22 44 -22h19c23 0 44 10 44 21v14c0 4 -1 7 -5 7c-3 0 -23 -9 -45 -9h-21c-69 0 -125 41 -125 100v36c0 59 52 101 131 101h21
c80 0 132 -42 132 -101v-147c0 -59 -52 -101 -132 -101zM157 89h21c24 0 44 9 44 21v37c0 11 -21 21 -44 21h-21c-24 0 -43 -10 -43 -21v-37c0 -12 19 -21 43 -21z" />
    <glyph glyph-name="agrave.sc" unicode="&#xe005;" horiz-adv-x="444" 
d="M123 0h-101c-6 0 -9 2 -9 6c0 1 0 3 1 4l164 486c2 4 3 5 8 5h73c3 0 5 -1 7 -5l163 -486c1 -2 1 -4 1 -5c0 -3 -2 -5 -8 -5h-103c-5 0 -6 2 -7 6l-24 72c-2 4 -5 5 -10 5h-113c-6 0 -8 -1 -9 -5l-25 -72c-1 -4 -4 -6 -8 -6zM188 164h67c7 0 8 3 8 8l-25 99
c-9 36 -13 79 -14 81h-2c0 -2 -5 -45 -15 -81l-27 -99c0 -5 1 -8 8 -8zM281 567h-68c-6 0 -11 3 -16 7l-142 140c-4 4 -7 7 -7 12s4 8 11 8h122c5 0 11 -3 14 -8l90 -138c3 -5 6 -9 6 -13c0 -5 -3 -8 -10 -8z" />
    <glyph glyph-name="aacute.sc" unicode="&#xe002;" horiz-adv-x="444" 
d="M123 0h-101c-6 0 -9 2 -9 6c0 1 0 3 1 4l164 486c2 4 3 5 8 5h73c3 0 5 -1 7 -5l163 -486c1 -2 1 -4 1 -5c0 -3 -2 -5 -8 -5h-103c-5 0 -6 2 -7 6l-24 72c-2 4 -5 5 -10 5h-113c-6 0 -8 -1 -9 -5l-25 -72c-1 -4 -4 -6 -8 -6zM188 164h67c7 0 8 3 8 8l-25 99
c-9 36 -13 79 -14 81h-2c0 -2 -5 -45 -15 -81l-27 -99c0 -5 1 -8 8 -8zM241 567h-68c-7 0 -10 3 -10 8c0 4 3 8 6 13l90 138c3 5 9 8 14 8h122c7 0 11 -3 11 -8s-3 -8 -7 -12l-142 -140c-5 -4 -10 -7 -16 -7z" />
    <glyph glyph-name="acircumflex.sc" unicode="&#xe003;" horiz-adv-x="444" 
d="M123 0h-101c-6 0 -9 2 -9 6c0 1 0 3 1 4l164 486c2 4 3 5 8 5h73c3 0 5 -1 7 -5l163 -486c1 -2 1 -4 1 -5c0 -3 -2 -5 -8 -5h-103c-5 0 -6 2 -7 6l-24 72c-2 4 -5 5 -10 5h-113c-6 0 -8 -1 -9 -5l-25 -72c-1 -4 -4 -6 -8 -6zM188 164h67c7 0 8 3 8 8l-25 99
c-9 36 -13 79 -14 81h-2c0 -2 -5 -45 -15 -81l-27 -99c0 -5 1 -8 8 -8zM174 567h-81c-7 0 -11 3 -11 8c0 3 1 5 3 8l104 147c2 2 5 4 8 4h49c3 0 6 -2 8 -4l105 -147c2 -3 3 -6 3 -8c0 -5 -4 -8 -11 -8h-81c-3 0 -6 2 -8 5l-33 51c-2 4 -5 6 -8 6c-2 0 -5 -2 -7 -6l-32 -51
c-2 -3 -5 -5 -8 -5z" />
    <glyph glyph-name="atilde.sc" unicode="&#xe007;" horiz-adv-x="444" 
d="M123 0h-101c-6 0 -9 2 -9 6c0 1 0 3 1 4l164 486c2 4 3 5 8 5h73c3 0 5 -1 7 -5l163 -486c1 -2 1 -4 1 -5c0 -3 -2 -5 -8 -5h-103c-5 0 -6 2 -7 6l-24 72c-2 4 -5 5 -10 5h-113c-6 0 -8 -1 -9 -5l-25 -72c-1 -4 -4 -6 -8 -6zM188 164h67c7 0 8 3 8 8l-25 99
c-9 36 -13 79 -14 81h-2c0 -2 -5 -45 -15 -81l-27 -99c0 -5 1 -8 8 -8zM102 595l-34 25c-3 2 -4 4 -4 8s5 14 14 28c27 42 55 58 87 58c23 0 44 -9 68 -26l17 -12c8 -6 20 -11 28 -11c13 0 26 6 43 34c2 4 5 6 8 6c4 0 7 -3 11 -6l36 -29c3 -2 4 -5 4 -8
c0 -4 -7 -17 -18 -34c-26 -38 -54 -55 -84 -55c-22 0 -43 13 -69 29l-18 11c-8 5 -18 10 -26 10c-13 0 -25 -7 -41 -31c-2 -4 -5 -6 -8 -6s-8 4 -14 9z" />
    <glyph glyph-name="adieresis.sc" unicode="&#xe004;" horiz-adv-x="444" 
d="M123 0h-101c-6 0 -9 2 -9 6c0 1 0 3 1 4l164 486c2 4 3 5 8 5h73c3 0 5 -1 7 -5l163 -486c1 -2 1 -4 1 -5c0 -3 -2 -5 -8 -5h-103c-5 0 -6 2 -7 6l-24 72c-2 4 -5 5 -10 5h-113c-6 0 -8 -1 -9 -5l-25 -72c-1 -4 -4 -6 -8 -6zM188 164h67c7 0 8 3 8 8l-25 99
c-9 36 -13 79 -14 81h-2c0 -2 -5 -45 -15 -81l-27 -99c0 -5 1 -8 8 -8zM368 639c0 -35 -27 -62 -62 -62s-62 27 -62 62s27 62 62 62s62 -27 62 -62zM199 639c0 -35 -27 -62 -62 -62s-62 27 -62 62s27 62 62 62s62 -27 62 -62z" />
    <glyph glyph-name="aring.sc" unicode="&#xe006;" horiz-adv-x="444" 
d="M123 0h-101c-6 0 -9 2 -9 6c0 2 4 13 6 20l150 443c-30 16 -47 46 -47 83v29c0 56 39 95 100 95s100 -39 100 -95v-29c0 -37 -17 -67 -47 -83l152 -452c1 -2 3 -9 3 -12s-2 -5 -8 -5h-103c-5 0 -6 2 -7 6l-24 72c-2 4 -5 5 -10 5h-113c-6 0 -8 -1 -9 -5l-25 -72
c-1 -4 -4 -6 -8 -6zM251 552v29c-1 15 -15 29 -29 29c-15 0 -29 -14 -29 -29v-29c0 -15 14 -28 29 -28s29 13 29 28zM188 164h67c7 0 8 3 8 8l-25 99c-9 36 -13 79 -14 81h-2c0 -2 -5 -45 -15 -81l-27 -99c0 -5 1 -8 8 -8z" />
    <glyph glyph-name="ae.sc" unicode="&#xe001;" horiz-adv-x="628" 
d="M68 0h-101c-6 0 -10 2 -10 7c0 1 1 3 2 5l309 484c2 3 6 5 13 5h291c5 0 8 -2 8 -8v-82c0 -5 -3 -7 -8 -7h-197c-7 0 -10 -3 -10 -9v-84c0 -5 2 -8 10 -8h161c5 0 8 -2 8 -7v-83c0 -6 -3 -8 -8 -8h-161c-7 0 -10 -3 -10 -8v-91c0 -5 2 -8 10 -8h197c5 0 8 -2 8 -8v-82
c0 -6 -3 -8 -8 -8h-311c-5 0 -8 2 -8 8v89c0 5 -3 9 -9 9h-95c-5 0 -9 -2 -12 -7l-57 -93c-2 -4 -7 -6 -12 -6zM196 191h50c5 0 7 4 7 8v51c0 32 4 82 4 87h-2c-1 -1 -11 -30 -17 -43l-47 -93c-1 -2 -2 -4 -2 -5c0 -3 3 -5 7 -5z" />
    <glyph glyph-name="ccedilla.sc" unicode="&#xe00a;" horiz-adv-x="472" 
d="M199 -215h-59c-7 0 -10 3 -10 10v66c0 7 3 10 10 10h59c9 0 18 8 18 17v8c0 9 -9 18 -18 18h-40c-7 0 -11 3 -11 8c0 2 1 4 2 6l27 55c1 2 1 4 1 6c0 5 -2 7 -7 9c-52 19 -107 50 -107 135v234c0 87 62 145 164 145h51c76 0 119 -31 154 -96c1 -3 2 -5 2 -8
c0 -2 -1 -5 -3 -6l-72 -33c-3 -1 -10 -6 -14 -6s-8 3 -10 6c-17 29 -38 45 -62 45h-46c-33 0 -54 -20 -54 -47v-234c0 -26 21 -47 54 -47h46c24 0 45 17 62 46c2 4 6 7 10 7c3 0 13 -6 16 -7l70 -32c2 -2 3 -4 3 -7s-1 -6 -2 -8c-35 -65 -84 -96 -154 -96
c-4 0 -15 -2 -15 -14c0 -3 1 -6 4 -7c26 -14 42 -40 42 -72v-8c0 -62 -49 -103 -111 -103z" />
    <glyph glyph-name="egrave.sc" unicode="&#xe011;" horiz-adv-x="456" 
d="M400 0h-317c-4 0 -7 2 -7 8v485c0 6 3 8 7 8h317c4 0 8 -2 8 -8v-82c0 -5 -3 -7 -8 -7h-203c-7 0 -9 -3 -9 -9v-84c0 -5 2 -8 9 -8h167c4 0 9 -2 9 -7v-83c0 -6 -5 -8 -9 -8h-167c-7 0 -9 -3 -9 -8v-91c0 -5 2 -8 9 -8h203c4 0 8 -2 8 -8v-82c0 -6 -3 -8 -8 -8zM312 567
h-68c-6 0 -11 3 -16 7l-142 140c-4 4 -7 7 -7 12s4 8 11 8h122c5 0 11 -3 14 -8l90 -138c3 -5 6 -9 6 -13c0 -5 -3 -8 -10 -8z" />
    <glyph glyph-name="eacute.sc" unicode="&#xe00e;" horiz-adv-x="456" 
d="M400 0h-317c-4 0 -7 2 -7 8v485c0 6 3 8 7 8h317c4 0 8 -2 8 -8v-82c0 -5 -3 -7 -8 -7h-203c-7 0 -9 -3 -9 -9v-84c0 -5 2 -8 9 -8h167c4 0 9 -2 9 -7v-83c0 -6 -5 -8 -9 -8h-167c-7 0 -9 -3 -9 -8v-91c0 -5 2 -8 9 -8h203c4 0 8 -2 8 -8v-82c0 -6 -3 -8 -8 -8zM242 567
h-68c-7 0 -10 3 -10 8c0 4 3 8 6 13l90 138c3 5 9 8 14 8h122c7 0 11 -3 11 -8s-3 -8 -7 -12l-142 -140c-5 -4 -10 -7 -16 -7z" />
    <glyph glyph-name="ecircumflex.sc" unicode="&#xe00f;" horiz-adv-x="456" 
d="M400 0h-317c-4 0 -7 2 -7 8v485c0 6 3 8 7 8h317c4 0 8 -2 8 -8v-82c0 -5 -3 -7 -8 -7h-203c-7 0 -9 -3 -9 -9v-84c0 -5 2 -8 9 -8h167c4 0 9 -2 9 -7v-83c0 -6 -5 -8 -9 -8h-167c-7 0 -9 -3 -9 -8v-91c0 -5 2 -8 9 -8h203c4 0 8 -2 8 -8v-82c0 -6 -3 -8 -8 -8zM195 567
h-81c-7 0 -11 3 -11 8c0 3 1 5 3 8l104 147c2 2 5 4 8 4h49c3 0 6 -2 8 -4l105 -147c2 -3 3 -6 3 -8c0 -5 -4 -8 -11 -8h-81c-3 0 -6 2 -8 5l-33 51c-2 4 -5 6 -8 6c-2 0 -5 -2 -7 -6l-32 -51c-2 -3 -5 -5 -8 -5z" />
    <glyph glyph-name="edieresis.sc" unicode="&#xe010;" horiz-adv-x="456" 
d="M400 0h-317c-4 0 -7 2 -7 8v485c0 6 3 8 7 8h317c4 0 8 -2 8 -8v-82c0 -5 -3 -7 -8 -7h-203c-7 0 -9 -3 -9 -9v-84c0 -5 2 -8 9 -8h167c4 0 9 -2 9 -7v-83c0 -6 -5 -8 -9 -8h-167c-7 0 -9 -3 -9 -8v-91c0 -5 2 -8 9 -8h203c4 0 8 -2 8 -8v-82c0 -6 -3 -8 -8 -8zM389 639
c0 -35 -27 -62 -62 -62s-62 27 -62 62s27 62 62 62s62 -27 62 -62zM220 639c0 -35 -27 -62 -62 -62s-62 27 -62 62s27 62 62 62s62 -27 62 -62z" />
    <glyph glyph-name="igrave.sc" unicode="&#xe019;" horiz-adv-x="264" 
d="M180 0h-97c-4 0 -7 2 -7 8v485c0 6 3 8 7 8h97c3 0 8 -2 8 -8v-485c0 -6 -3 -8 -8 -8zM181 567h-68c-6 0 -11 3 -16 7l-142 140c-4 4 -7 7 -7 12s4 8 11 8h122c5 0 11 -3 14 -8l90 -138c3 -5 6 -9 6 -13c0 -5 -3 -8 -10 -8z" />
    <glyph glyph-name="iacute.sc" unicode="&#xe016;" horiz-adv-x="264" 
d="M180 0h-97c-4 0 -7 2 -7 8v485c0 6 3 8 7 8h97c3 0 8 -2 8 -8v-485c0 -6 -3 -8 -8 -8zM151 567h-68c-7 0 -10 3 -10 8c0 4 3 8 6 13l90 138c3 5 9 8 14 8h122c7 0 11 -3 11 -8s-3 -8 -7 -12l-142 -140c-5 -4 -10 -7 -16 -7z" />
    <glyph glyph-name="icircumflex.sc" unicode="&#xe017;" horiz-adv-x="264" 
d="M180 0h-97c-4 0 -7 2 -7 8v485c0 6 3 8 7 8h97c3 0 8 -2 8 -8v-485c0 -6 -3 -8 -8 -8zM84 567h-81c-7 0 -11 3 -11 8c0 3 1 5 3 8l104 147c2 2 5 4 8 4h49c3 0 6 -2 8 -4l105 -147c2 -3 3 -6 3 -8c0 -5 -4 -8 -11 -8h-81c-3 0 -6 2 -8 5l-33 51c-2 4 -5 6 -8 6
c-2 0 -5 -2 -7 -6l-32 -51c-2 -3 -5 -5 -8 -5z" />
    <glyph glyph-name="idieresis.sc" unicode="&#xe018;" horiz-adv-x="264" 
d="M180 0h-97c-4 0 -7 2 -7 8v485c0 6 3 8 7 8h97c3 0 8 -2 8 -8v-485c0 -6 -3 -8 -8 -8zM278 639c0 -35 -27 -62 -62 -62s-62 27 -62 62s27 62 62 62s62 -27 62 -62zM109 639c0 -35 -27 -62 -62 -62s-62 27 -62 62s27 62 62 62s62 -27 62 -62z" />
    <glyph glyph-name="eth.sc" unicode="&#xe00c;" horiz-adv-x="518" 
d="M292 0h-209c-4 0 -7 2 -7 8v183c0 7 -3 11 -9 11h-40c-7 0 -10 3 -10 10v81c0 7 3 10 10 10h39c6 0 10 5 10 12v178c0 6 3 8 7 8h209c98 0 162 -58 162 -152v-197c0 -94 -64 -152 -162 -152zM197 98h95c28 0 51 22 51 46v212c0 24 -23 48 -51 48h-95c-7 0 -9 -3 -9 -9
v-81c0 -7 4 -11 11 -11h61c7 0 10 -3 10 -10v-81c0 -7 -3 -10 -10 -10h-61c-9 0 -11 -5 -11 -11v-85c0 -5 2 -8 9 -8z" />
    <glyph glyph-name="ntilde.sc" unicode="&#xe020;" horiz-adv-x="517" 
d="M177 0h-94c-4 0 -7 2 -7 8v485c0 6 3 8 7 8h84c5 0 8 -2 10 -6l139 -257c9 -17 16 -35 17 -37h3c0 6 -3 78 -3 146v146c0 6 2 8 7 8h93c4 0 8 -2 8 -8v-485c0 -6 -3 -8 -8 -8h-84c-3 0 -5 2 -8 6l-140 253c-9 16 -16 33 -16 34h-3c0 -5 4 -78 4 -142v-143
c0 -6 -4 -8 -9 -8zM138 595l-34 25c-3 2 -4 4 -4 8s5 14 14 28c27 42 55 58 87 58c23 0 44 -9 68 -26l17 -12c8 -6 20 -11 28 -11c13 0 26 6 43 34c2 4 5 6 8 6c4 0 7 -3 11 -6l36 -29c3 -2 4 -5 4 -8c0 -4 -7 -17 -18 -34c-26 -38 -54 -55 -84 -55c-22 0 -43 13 -69 29
l-18 11c-8 5 -18 10 -26 10c-13 0 -25 -7 -41 -31c-2 -4 -5 -6 -8 -6s-8 4 -14 9z" />
    <glyph glyph-name="ograve.sc" unicode="&#xe026;" horiz-adv-x="506" 
d="M279 -11h-51c-99 0 -164 59 -164 144v234c0 87 67 145 164 145h51c97 0 163 -58 163 -145v-234c0 -85 -66 -144 -163 -144zM228 87h51c30 0 51 20 51 46v235c0 27 -22 46 -51 46h-51c-30 0 -54 -21 -54 -46v-235c0 -27 21 -46 54 -46zM302 567h-68c-6 0 -11 3 -16 7
l-142 140c-4 4 -7 7 -7 12s4 8 11 8h122c5 0 11 -3 14 -8l90 -138c3 -5 6 -9 6 -13c0 -5 -3 -8 -10 -8z" />
    <glyph glyph-name="oacute.sc" unicode="&#xe023;" horiz-adv-x="506" 
d="M279 -11h-51c-99 0 -164 59 -164 144v234c0 87 67 145 164 145h51c97 0 163 -58 163 -145v-234c0 -85 -66 -144 -163 -144zM228 87h51c30 0 51 20 51 46v235c0 27 -22 46 -51 46h-51c-30 0 -54 -21 -54 -46v-235c0 -27 21 -46 54 -46zM242 567h-68c-7 0 -10 3 -10 8
c0 4 3 8 6 13l90 138c3 5 9 8 14 8h122c7 0 11 -3 11 -8s-3 -8 -7 -12l-142 -140c-5 -4 -10 -7 -16 -7z" />
    <glyph glyph-name="ocircumflex.sc" unicode="&#xe024;" horiz-adv-x="506" 
d="M279 -11h-51c-99 0 -164 59 -164 144v234c0 87 67 145 164 145h51c97 0 163 -58 163 -145v-234c0 -85 -66 -144 -163 -144zM228 87h51c30 0 51 20 51 46v235c0 27 -22 46 -51 46h-51c-30 0 -54 -21 -54 -46v-235c0 -27 21 -46 54 -46zM205 567h-81c-7 0 -11 3 -11 8
c0 3 1 5 3 8l104 147c2 2 5 4 8 4h49c3 0 6 -2 8 -4l105 -147c2 -3 3 -6 3 -8c0 -5 -4 -8 -11 -8h-81c-3 0 -6 2 -8 5l-33 51c-2 4 -5 6 -8 6c-2 0 -5 -2 -7 -6l-32 -51c-2 -3 -5 -5 -8 -5z" />
    <glyph glyph-name="otilde.sc" unicode="&#xe028;" horiz-adv-x="506" 
d="M279 -11h-51c-99 0 -164 59 -164 144v234c0 87 67 145 164 145h51c97 0 163 -58 163 -145v-234c0 -85 -66 -144 -163 -144zM228 87h51c30 0 51 20 51 46v235c0 27 -22 46 -51 46h-51c-30 0 -54 -21 -54 -46v-235c0 -27 21 -46 54 -46zM133 595l-34 25c-3 2 -4 4 -4 8
s5 14 14 28c27 42 55 58 87 58c23 0 44 -9 68 -26l17 -12c8 -6 20 -11 28 -11c13 0 26 6 43 34c2 4 5 6 8 6c4 0 7 -3 11 -6l36 -29c3 -2 4 -5 4 -8c0 -4 -7 -17 -18 -34c-26 -38 -54 -55 -84 -55c-22 0 -43 13 -69 29l-18 11c-8 5 -18 10 -26 10c-13 0 -25 -7 -41 -31
c-2 -4 -5 -6 -8 -6s-8 4 -14 9z" />
    <glyph glyph-name="odieresis.sc" unicode="&#xe025;" horiz-adv-x="506" 
d="M279 -11h-51c-99 0 -164 59 -164 144v234c0 87 67 145 164 145h51c97 0 163 -58 163 -145v-234c0 -85 -66 -144 -163 -144zM228 87h51c30 0 51 20 51 46v235c0 27 -22 46 -51 46h-51c-30 0 -54 -21 -54 -46v-235c0 -27 21 -46 54 -46zM399 639c0 -35 -27 -62 -62 -62
s-62 27 -62 62s27 62 62 62s62 -27 62 -62zM230 639c0 -35 -27 -62 -62 -62s-62 27 -62 62s27 62 62 62s62 -27 62 -62z" />
    <glyph glyph-name="oe.sc" unicode="&#xe022;" horiz-adv-x="706" 
d="M279 -10h-52c-98 0 -163 58 -163 144v232c0 87 65 145 163 145h52c23 0 46 -4 65 -10h306c4 0 8 -2 8 -8v-82c0 -5 -4 -7 -8 -7h-203c-8 0 -10 -4 -9 -10c3 -7 4 -32 4 -38v-45c0 -5 2 -8 9 -8h163c5 0 9 -2 9 -7v-83c0 -6 -4 -8 -9 -8h-163c-7 0 -9 -3 -9 -8v-50
c0 -5 -1 -33 -4 -40c-1 -6 1 -9 9 -9h203c4 0 8 -2 8 -8v-82c0 -6 -4 -8 -8 -8h-307c-19 -6 -41 -10 -64 -10zM227 88h52c30 0 51 20 51 45v234c0 27 -22 47 -51 47h-52c-29 0 -53 -22 -53 -47v-234c0 -26 20 -45 53 -45z" />
    <glyph glyph-name="oslash.sc" unicode="&#xe027;" horiz-adv-x="506" 
d="M279 -10h-51c-99 0 -164 58 -164 144v232c0 87 67 145 164 145h51c97 0 163 -58 163 -145v-232c0 -86 -66 -144 -163 -144zM184 179l100 222c3 5 1 8 -4 9c-4 2 -20 4 -25 4h-27c-30 0 -54 -22 -54 -47v-171c0 -1 0 -15 1 -16c0 -6 7 -7 9 -1zM251 88h28
c30 0 51 20 51 45v169c0 1 -1 17 -1 19c0 6 -6 7 -9 1l-99 -220c-2 -5 0 -9 5 -10c3 -2 20 -4 25 -4z" />
    <glyph glyph-name="ugrave.sc" unicode="&#xe034;" horiz-adv-x="517" 
d="M284 -11h-51c-99 0 -163 59 -163 144v360c0 6 2 8 7 8h95c4 0 7 -2 7 -8v-360c0 -27 20 -46 54 -46h51c33 0 52 19 52 46v360c0 6 3 8 8 8h96c5 0 8 -2 8 -8v-360c0 -85 -66 -144 -164 -144zM327 567h-68c-6 0 -11 3 -16 7l-142 140c-4 4 -7 7 -7 12s4 8 11 8h122
c5 0 11 -3 14 -8l90 -138c3 -5 6 -9 6 -13c0 -5 -3 -8 -10 -8z" />
    <glyph glyph-name="uacute.sc" unicode="&#xe031;" horiz-adv-x="517" 
d="M284 -11h-51c-99 0 -163 59 -163 144v360c0 6 2 8 7 8h95c4 0 7 -2 7 -8v-360c0 -27 20 -46 54 -46h51c33 0 52 19 52 46v360c0 6 3 8 8 8h96c5 0 8 -2 8 -8v-360c0 -85 -66 -144 -164 -144zM257 567h-68c-7 0 -10 3 -10 8c0 4 3 8 6 13l90 138c3 5 9 8 14 8h122
c7 0 11 -3 11 -8s-3 -8 -7 -12l-142 -140c-5 -4 -10 -7 -16 -7z" />
    <glyph glyph-name="ucircumflex.sc" unicode="&#xe032;" horiz-adv-x="517" 
d="M284 -11h-51c-99 0 -163 59 -163 144v360c0 6 2 8 7 8h95c4 0 7 -2 7 -8v-360c0 -27 20 -46 54 -46h51c33 0 52 19 52 46v360c0 6 3 8 8 8h96c5 0 8 -2 8 -8v-360c0 -85 -66 -144 -164 -144zM210 567h-81c-7 0 -11 3 -11 8c0 3 1 5 3 8l104 147c2 2 5 4 8 4h49
c3 0 6 -2 8 -4l105 -147c2 -3 3 -6 3 -8c0 -5 -4 -8 -11 -8h-81c-3 0 -6 2 -8 5l-33 51c-2 4 -5 6 -8 6c-2 0 -5 -2 -7 -6l-32 -51c-2 -3 -5 -5 -8 -5z" />
    <glyph glyph-name="udieresis.sc" unicode="&#xe033;" horiz-adv-x="517" 
d="M284 -11h-51c-99 0 -163 59 -163 144v360c0 6 2 8 7 8h95c4 0 7 -2 7 -8v-360c0 -27 20 -46 54 -46h51c33 0 52 19 52 46v360c0 6 3 8 8 8h96c5 0 8 -2 8 -8v-360c0 -85 -66 -144 -164 -144zM404 639c0 -35 -27 -62 -62 -62s-62 27 -62 62s27 62 62 62s62 -27 62 -62z
M235 639c0 -35 -27 -62 -62 -62s-62 27 -62 62s27 62 62 62s62 -27 62 -62z" />
    <glyph glyph-name="yacute.sc" unicode="&#xe039;" horiz-adv-x="395" 
d="M245 0h-95c-5 0 -8 2 -8 8v218l-154 263c-1 2 -2 4 -2 6c0 4 3 6 9 6h110c4 0 8 -2 11 -7l74 -138c2 -4 5 -5 7 -5c3 0 6 1 8 5l76 138c2 5 7 7 11 7h109c5 0 9 -2 9 -6c0 -2 -1 -4 -2 -6l-154 -263v-218c0 -6 -4 -8 -9 -8zM196 567h-68c-7 0 -10 3 -10 8c0 4 3 8 6 13
l90 138c3 5 9 8 14 8h122c7 0 11 -3 11 -8s-3 -8 -7 -12l-142 -140c-5 -4 -10 -7 -16 -7z" />
    <glyph glyph-name="thorn.sc" unicode="&#xe02a;" horiz-adv-x="457" 
d="M180 0h-97c-4 0 -7 2 -7 8v485c0 6 4 8 8 8h97c4 0 8 -2 8 -8v-49c0 -5 2 -9 10 -9h68c99 0 164 -51 164 -141v-25c0 -78 -67 -129 -164 -129h-70c-7 0 -9 -4 -9 -9v-123c0 -6 -3 -8 -8 -8zM197 231h73c31 0 51 18 51 44v19c0 24 -20 44 -51 44h-73c-7 0 -9 -3 -9 -8v-90
c0 -5 2 -9 9 -9z" />
    <glyph glyph-name="ydieresis.sc" unicode="&#xe03a;" horiz-adv-x="395" 
d="M245 0h-95c-5 0 -8 2 -8 8v218l-154 263c-1 2 -2 4 -2 6c0 4 3 6 9 6h110c4 0 8 -2 11 -7l74 -138c2 -4 5 -5 7 -5c3 0 6 1 8 5l76 138c2 5 7 7 11 7h109c5 0 9 -2 9 -6c0 -2 -1 -4 -2 -6l-154 -263v-218c0 -6 -4 -8 -9 -8zM343 639c0 -35 -27 -62 -62 -62s-62 27 -62 62
s27 62 62 62s62 -27 62 -62zM174 639c0 -35 -27 -62 -62 -62s-62 27 -62 62s27 62 62 62s62 -27 62 -62z" />
    <glyph glyph-name="commaaccent" unicode="&#xf6c3;" horiz-adv-x="500" 
d="M199 -247l-28 46c-2 2 -2 5 -2 7c0 3 1 6 3 8l8 9c19 24 28 58 28 98v21c0 7 3 9 9 9h83c6 0 9 -2 9 -9v-22c0 -71 -27 -135 -95 -170c-2 -1 -4 -1 -6 -1c-4 0 -7 1 -9 4z" />
    <glyph glyph-name="commaaccent.alt" unicode="&#xe504;" horiz-adv-x="500" 
d="M272 517h-84c-6 0 -9 2 -9 9v23c0 70 28 135 95 169c2 1 5 2 7 2c3 0 6 -2 8 -4l29 -47c1 -2 2 -4 2 -6c0 -3 -1 -6 -4 -8c-22 -33 -35 -58 -35 -107v-22c0 -7 -4 -9 -9 -9z" />
    <glyph glyph-name="Abreve" unicode="&#x102;" horiz-adv-x="450" 
d="M103 0h-100c-7 0 -11 3 -11 8c0 4 3 10 5 18l182 597c1 5 5 7 10 7h72c5 0 9 -2 10 -7l182 -597c2 -6 5 -14 5 -18c0 -5 -4 -8 -11 -8h-101c-5 0 -9 2 -10 7l-30 105c-1 5 -5 6 -10 6h-143c-5 0 -9 -1 -10 -6l-30 -105c-1 -5 -5 -7 -10 -7zM188 223h73c7 0 11 4 11 9
c0 4 -3 13 -5 19l-29 117c-2 7 -9 47 -11 55h-3c-2 -8 -10 -47 -12 -55l-30 -116c-2 -7 -5 -16 -5 -20c0 -5 4 -9 11 -9zM231 692h-13c-61 0 -100 34 -100 83v54c0 6 3 9 10 9h51c7 0 10 -3 10 -9v-30c0 -11 14 -21 29 -21h13c16 0 28 10 28 21v30c0 6 3 9 10 9h52
c7 0 10 -3 10 -9v-54c0 -49 -39 -83 -100 -83z" />
    <glyph glyph-name="Amacron" unicode="&#x100;" horiz-adv-x="450" 
d="M103 0h-100c-7 0 -11 3 -11 8c0 4 3 10 5 18l182 597c1 5 5 7 10 7h72c5 0 9 -2 10 -7l182 -597c2 -6 5 -14 5 -18c0 -5 -4 -8 -11 -8h-101c-5 0 -9 2 -10 7l-30 105c-1 5 -5 6 -10 6h-143c-5 0 -9 -1 -10 -6l-30 -105c-1 -5 -5 -7 -10 -7zM188 223h73c7 0 11 4 11 9
c0 4 -3 13 -5 19l-29 117c-2 7 -9 47 -11 55h-3c-2 -8 -10 -47 -12 -55l-30 -116c-2 -7 -5 -16 -5 -20c0 -5 4 -9 11 -9zM339 705h-228c-7 0 -10 3 -10 9v76c0 6 3 9 10 9h228c7 0 10 -3 10 -9v-76c0 -6 -3 -9 -10 -9z" />
    <glyph glyph-name="Aogonek" unicode="&#x104;" horiz-adv-x="450" 
d="M493 -138v-66c0 -6 -3 -10 -9 -10c-15 0 -47 8 -66 17c-51 25 -82 72 -82 125v79l-30 105c-1 5 -5 6 -10 6h-143c-5 0 -9 -1 -10 -6l-30 -105c-1 -5 -5 -7 -10 -7h-100c-7 0 -11 3 -11 8c0 4 3 10 5 18l182 597c1 5 5 7 10 7h72c5 0 9 -2 10 -7l182 -597
c2 -6 5 -14 5 -18c0 -5 -4 -8 -11 -8h-18v-78c0 -24 16 -45 55 -50c6 -1 9 -4 9 -10zM188 223h73c7 0 11 4 11 9c0 4 -3 13 -5 19l-29 117c-2 7 -9 47 -11 55h-3l-12 -55l-30 -116c-2 -7 -5 -16 -5 -20c0 -5 4 -9 11 -9z" />
    <glyph glyph-name="AEacute" unicode="&#x1fc;" horiz-adv-x="686" 
d="M41 0h-102c-7 0 -11 3 -11 8c0 4 5 12 11 22l351 595c2 3 5 5 9 5h339c7 0 10 -3 10 -10v-85c0 -7 -3 -10 -10 -10h-238c-7 0 -10 -3 -10 -10v-133c0 -7 3 -10 10 -10h195c7 0 10 -3 10 -10v-85c0 -7 -3 -10 -10 -10h-195c-7 0 -10 -3 -10 -10v-142c0 -7 3 -10 10 -10
h238c7 0 10 -3 10 -10v-85c0 -7 -3 -10 -10 -10h-353c-7 0 -10 3 -10 10v118c0 7 -3 10 -10 10h-133c-3 0 -8 -1 -10 -4l-72 -129c-2 -3 -6 -5 -9 -5zM204 243h61c7 0 10 3 10 10v40c0 48 4 99 6 123l-4 1c-3 -8 -19 -44 -23 -51l-55 -101c-3 -6 -6 -11 -6 -14
c0 -5 4 -8 11 -8zM388 695h-59c-5 0 -9 2 -9 7c0 2 1 4 3 7l83 108c5 6 9 10 18 10h113c5 0 8 -4 8 -9c0 -2 -1 -5 -3 -7l-133 -109c-7 -6 -13 -7 -21 -7z" />
    <glyph glyph-name="Cacute" unicode="&#x106;" horiz-adv-x="484" 
d="M288 -10h-49c-114 0 -186 73 -186 177v296c0 104 72 177 186 177h49c83 0 128 -34 158 -81c9 -15 19 -31 19 -37c0 -3 -2 -5 -6 -7l-80 -41c-4 -2 -8 -5 -12 -5c-3 0 -6 2 -8 7c-18 43 -44 59 -71 59h-49c-39 0 -72 -33 -72 -72v-296c0 -39 33 -72 72 -72h49
c27 0 53 16 71 59c2 5 5 7 8 7c4 0 8 -3 12 -5l80 -41c4 -2 6 -4 6 -7c0 -6 -10 -22 -19 -37c-30 -47 -75 -81 -158 -81zM247 695h-59c-5 0 -9 2 -9 7c0 2 1 4 3 7l83 108c5 6 9 10 18 10h113c5 0 8 -4 8 -9c0 -2 -1 -5 -3 -7l-133 -109c-7 -6 -13 -7 -21 -7z" />
    <glyph glyph-name="Ccaron" unicode="&#x10c;" horiz-adv-x="484" 
d="M288 -10h-49c-114 0 -186 73 -186 177v296c0 104 72 177 186 177h49c83 0 128 -34 158 -81c9 -15 19 -31 19 -37c0 -3 -2 -5 -6 -7l-80 -41c-4 -2 -8 -5 -12 -5c-3 0 -6 2 -8 7c-18 43 -44 59 -71 59h-49c-39 0 -72 -33 -72 -72v-296c0 -39 33 -72 72 -72h49
c27 0 53 16 71 59c2 5 5 7 8 7c4 0 8 -3 12 -5l80 -41c4 -2 6 -4 6 -7c0 -6 -10 -22 -19 -37c-30 -47 -75 -81 -158 -81zM277 692h-35c-6 0 -9 2 -12 6l-92 127c-2 2 -3 4 -3 6c0 4 4 7 9 7h66c6 0 10 -3 14 -9l30 -50c1 -3 3 -4 5 -4s4 1 6 4l30 50c4 6 8 9 14 9h66
c5 0 8 -3 8 -7c0 -2 0 -4 -2 -6l-92 -127c-3 -4 -6 -6 -12 -6z" />
    <glyph glyph-name="Ccircumflex" unicode="&#x108;" horiz-adv-x="484" 
d="M288 -10h-49c-114 0 -186 73 -186 177v296c0 104 72 177 186 177h49c83 0 128 -34 158 -81c9 -15 19 -31 19 -37c0 -3 -2 -5 -6 -7l-80 -41c-4 -2 -8 -5 -12 -5c-3 0 -6 2 -8 7c-18 43 -44 59 -71 59h-49c-39 0 -72 -33 -72 -72v-296c0 -39 33 -72 72 -72h49
c27 0 53 16 71 59c2 5 5 7 8 7c4 0 8 -3 12 -5l80 -41c4 -2 6 -4 6 -7c0 -6 -10 -22 -19 -37c-30 -47 -75 -81 -158 -81zM210 692h-66c-5 0 -9 3 -9 6c0 2 1 5 3 7l92 127c3 4 6 6 12 6h35c6 0 9 -2 12 -6l92 -127c2 -2 2 -5 2 -7c0 -3 -3 -6 -8 -6h-66c-6 0 -10 3 -14 9
l-30 50c-2 2 -4 4 -6 4s-4 -2 -5 -4l-30 -50c-4 -6 -8 -9 -14 -9z" />
    <glyph glyph-name="Cdotaccent" unicode="&#x10a;" horiz-adv-x="484" 
d="M288 -10h-49c-114 0 -186 73 -186 177v296c0 104 72 177 186 177h49c83 0 128 -34 158 -81c9 -15 19 -31 19 -37c0 -3 -2 -5 -6 -7l-80 -41c-4 -2 -8 -5 -12 -5c-3 0 -6 2 -8 7c-18 43 -44 59 -71 59h-49c-39 0 -72 -33 -72 -72v-296c0 -39 33 -72 72 -72h49
c27 0 53 16 71 59c2 5 5 7 8 7c4 0 8 -3 12 -5l80 -41c4 -2 6 -4 6 -7c0 -6 -10 -22 -19 -37c-30 -47 -75 -81 -158 -81zM315 756c0 -31 -24 -55 -55 -55s-56 24 -56 55s25 55 56 55s55 -24 55 -55z" />
    <glyph glyph-name="Dcaron" unicode="&#x10e;" horiz-adv-x="541" 
d="M302 0h-225c-7 0 -10 3 -10 10v610c0 7 3 10 10 10h225c114 0 186 -73 186 -186v-258c0 -114 -72 -186 -186 -186zM192 105h110c39 0 72 31 72 72v276c0 39 -33 72 -72 72h-110c-7 0 -10 -3 -10 -10v-400c0 -7 3 -10 10 -10zM267 692h-35c-6 0 -9 2 -12 6l-92 127
c-2 2 -3 4 -3 6c0 4 4 7 9 7h66c6 0 10 -3 14 -9l30 -50c1 -3 3 -4 5 -4s4 1 6 4l30 50c4 6 8 9 14 9h66c5 0 8 -3 8 -7c0 -2 0 -4 -2 -6l-92 -127c-3 -4 -6 -6 -12 -6z" />
    <glyph glyph-name="Dcroat" unicode="&#x110;" horiz-adv-x="541" 
d="M302 0h-225c-7 0 -10 3 -10 10v238c0 6 -3 10 -11 10h-31c-7 0 -10 3 -10 10v94c0 7 3 10 10 10h31c8 0 11 4 11 11v237c0 7 3 10 10 10h225c114 0 186 -73 186 -186v-258c0 -114 -72 -186 -186 -186zM192 105h110c39 0 72 31 72 72v276c0 39 -33 72 -72 72h-110
c-7 0 -10 -3 -10 -10v-133c0 -6 4 -10 11 -10h76c7 0 10 -3 10 -10v-94c0 -7 -3 -10 -10 -10h-76c-9 0 -11 -5 -11 -11v-132c0 -7 3 -10 10 -10z" />
    <glyph glyph-name="Ebreve" unicode="&#x114;" horiz-adv-x="478" 
d="M430 0h-353c-7 0 -10 3 -10 10v610c0 7 3 10 10 10h353c7 0 10 -3 10 -10v-85c0 -7 -3 -10 -10 -10h-238c-7 0 -10 -3 -10 -10v-133c0 -7 3 -10 10 -10h195c7 0 10 -3 10 -10v-85c0 -7 -3 -10 -10 -10h-195c-7 0 -10 -3 -10 -10v-142c0 -7 3 -10 10 -10h238
c7 0 10 -3 10 -10v-85c0 -7 -3 -10 -10 -10zM261 692h-13c-61 0 -100 34 -100 83v54c0 6 3 9 10 9h51c7 0 10 -3 10 -9v-30c0 -11 14 -21 29 -21h13c16 0 28 10 28 21v30c0 6 3 9 10 9h52c7 0 10 -3 10 -9v-54c0 -49 -39 -83 -100 -83z" />
    <glyph glyph-name="Ecaron" unicode="&#x11a;" horiz-adv-x="478" 
d="M430 0h-353c-7 0 -10 3 -10 10v610c0 7 3 10 10 10h353c7 0 10 -3 10 -10v-85c0 -7 -3 -10 -10 -10h-238c-7 0 -10 -3 -10 -10v-133c0 -7 3 -10 10 -10h195c7 0 10 -3 10 -10v-85c0 -7 -3 -10 -10 -10h-195c-7 0 -10 -3 -10 -10v-142c0 -7 3 -10 10 -10h238
c7 0 10 -3 10 -10v-85c0 -7 -3 -10 -10 -10zM272 692h-35c-6 0 -9 2 -12 6l-92 127c-2 2 -3 4 -3 6c0 4 4 7 9 7h66c6 0 10 -3 14 -9l30 -50c1 -3 3 -4 5 -4s4 1 6 4l30 50c4 6 8 9 14 9h66c5 0 8 -3 8 -7c0 -2 0 -4 -2 -6l-92 -127c-3 -4 -6 -6 -12 -6z" />
    <glyph glyph-name="Edotaccent" unicode="&#x116;" horiz-adv-x="478" 
d="M430 0h-353c-7 0 -10 3 -10 10v610c0 7 3 10 10 10h353c7 0 10 -3 10 -10v-85c0 -7 -3 -10 -10 -10h-238c-7 0 -10 -3 -10 -10v-133c0 -7 3 -10 10 -10h195c7 0 10 -3 10 -10v-85c0 -7 -3 -10 -10 -10h-195c-7 0 -10 -3 -10 -10v-142c0 -7 3 -10 10 -10h238
c7 0 10 -3 10 -10v-85c0 -7 -3 -10 -10 -10zM310 756c0 -31 -24 -55 -55 -55s-56 24 -56 55s25 55 56 55s55 -24 55 -55z" />
    <glyph glyph-name="Emacron" unicode="&#x112;" horiz-adv-x="478" 
d="M430 0h-353c-7 0 -10 3 -10 10v610c0 7 3 10 10 10h353c7 0 10 -3 10 -10v-85c0 -7 -3 -10 -10 -10h-238c-7 0 -10 -3 -10 -10v-133c0 -7 3 -10 10 -10h195c7 0 10 -3 10 -10v-85c0 -7 -3 -10 -10 -10h-195c-7 0 -10 -3 -10 -10v-142c0 -7 3 -10 10 -10h238
c7 0 10 -3 10 -10v-85c0 -7 -3 -10 -10 -10zM369 705h-228c-7 0 -10 3 -10 9v76c0 6 3 9 10 9h228c7 0 10 -3 10 -9v-76c0 -6 -3 -9 -10 -9z" />
    <glyph glyph-name="Eng" unicode="&#x14a;" horiz-adv-x="550" 
d="M282 -166v85c0 6 3 10 9 10c52 4 77 35 77 71v27l-167 304c-4 7 -18 43 -21 51l-4 -1c2 -24 6 -168 6 -247v-124c0 -7 -3 -10 -10 -10h-95c-7 0 -10 3 -10 10v610c0 7 3 10 10 10h84c4 0 7 -2 9 -5l179 -328c4 -7 18 -43 21 -51l4 1c-2 24 -6 168 -6 247v126
c0 7 3 10 10 10h94c7 0 10 -3 10 -10v-611c0 -74 -43 -137 -114 -167c-24 -10 -58 -18 -76 -18c-6 0 -10 3 -10 10z" />
    <glyph glyph-name="Eogonek" unicode="&#x118;" horiz-adv-x="478" 
d="M430 -138v-66c0 -6 -3 -10 -9 -10c-15 0 -47 8 -66 17c-51 25 -82 72 -82 125v72h-196c-7 0 -10 3 -10 10v610c0 7 3 10 10 10h353c7 0 10 -3 10 -10v-85c0 -7 -3 -10 -10 -10h-238c-7 0 -10 -3 -10 -10v-133c0 -7 3 -10 10 -10h195c7 0 10 -3 10 -10v-85
c0 -7 -3 -10 -10 -10h-195c-7 0 -10 -3 -10 -10v-142c0 -7 3 -10 10 -10h238c7 0 10 -3 10 -10v-85c0 -7 -3 -10 -10 -10h-64v-78c0 -24 16 -45 55 -50c6 -1 9 -4 9 -10z" />
    <glyph glyph-name="Gbreve" unicode="&#x11e;" horiz-adv-x="527" 
d="M288 -10h-49c-114 0 -186 73 -186 177v296c0 104 72 177 186 177h66c83 0 128 -34 158 -81c9 -15 19 -31 19 -37c0 -3 -2 -5 -6 -7l-80 -41c-4 -2 -8 -5 -12 -5c-3 0 -6 2 -8 7c-18 43 -44 59 -71 59h-66c-39 0 -72 -33 -72 -72v-296c0 -39 33 -72 72 -72h49
c40 0 71 32 71 72v47c0 7 -3 10 -10 10h-94c-7 0 -10 3 -10 10v85c0 7 3 10 10 10h209c7 0 10 -3 10 -10v-152c0 -104 -73 -177 -186 -177zM277 692h-13c-61 0 -100 34 -100 83v54c0 6 3 9 10 9h51c7 0 10 -3 10 -9v-30c0 -11 14 -21 29 -21h13c16 0 28 10 28 21v30
c0 6 3 9 10 9h52c7 0 10 -3 10 -9v-54c0 -49 -39 -83 -100 -83z" />
    <glyph glyph-name="Gcircumflex" unicode="&#x11c;" horiz-adv-x="527" 
d="M288 -10h-49c-114 0 -186 73 -186 177v296c0 104 72 177 186 177h66c83 0 128 -34 158 -81c9 -15 19 -31 19 -37c0 -3 -2 -5 -6 -7l-80 -41c-4 -2 -8 -5 -12 -5c-3 0 -6 2 -8 7c-18 43 -44 59 -71 59h-66c-39 0 -72 -33 -72 -72v-296c0 -39 33 -72 72 -72h49
c40 0 71 32 71 72v47c0 7 -3 10 -10 10h-94c-7 0 -10 3 -10 10v85c0 7 3 10 10 10h209c7 0 10 -3 10 -10v-152c0 -104 -73 -177 -186 -177zM221 692h-66c-5 0 -9 3 -9 6c0 2 1 5 3 7l92 127c3 4 6 6 12 6h35c6 0 9 -2 12 -6l92 -127c2 -2 2 -5 2 -7c0 -3 -3 -6 -8 -6h-66
c-6 0 -10 3 -14 9l-30 50c-2 2 -4 4 -6 4s-4 -2 -5 -4l-30 -50c-4 -6 -8 -9 -14 -9z" />
    <glyph glyph-name="Gcommaaccent" unicode="&#x122;" horiz-adv-x="527" 
d="M288 -10h-49c-114 0 -186 73 -186 177v296c0 104 72 177 186 177h66c83 0 128 -34 158 -81c9 -15 19 -31 19 -37c0 -3 -2 -5 -6 -7l-80 -41c-4 -2 -8 -5 -12 -5c-3 0 -6 2 -8 7c-18 43 -44 59 -71 59h-66c-39 0 -72 -33 -72 -72v-296c0 -39 33 -72 72 -72h49
c40 0 71 32 71 72v47c0 7 -3 10 -10 10h-94c-7 0 -10 3 -10 10v85c0 7 3 10 10 10h209c7 0 10 -3 10 -10v-152c0 -104 -73 -177 -186 -177zM220 -247l-28 46c-2 2 -2 5 -2 7c0 3 1 6 3 8l8 9c19 24 28 58 28 98v21c0 7 3 9 9 9h83c6 0 9 -2 9 -9v-22
c0 -71 -27 -135 -95 -170c-2 -1 -4 -1 -6 -1c-4 0 -7 1 -9 4z" />
    <glyph glyph-name="Gdotaccent" unicode="&#x120;" horiz-adv-x="527" 
d="M288 -10h-49c-114 0 -186 73 -186 177v296c0 104 72 177 186 177h66c83 0 128 -34 158 -81c9 -15 19 -31 19 -37c0 -3 -2 -5 -6 -7l-80 -41c-4 -2 -8 -5 -12 -5c-3 0 -6 2 -8 7c-18 43 -44 59 -71 59h-66c-39 0 -72 -33 -72 -72v-296c0 -39 33 -72 72 -72h49
c40 0 71 32 71 72v47c0 7 -3 10 -10 10h-94c-7 0 -10 3 -10 10v85c0 7 3 10 10 10h209c7 0 10 -3 10 -10v-152c0 -104 -73 -177 -186 -177zM326 756c0 -31 -24 -55 -55 -55s-56 24 -56 55s25 55 56 55s55 -24 55 -55z" />
    <glyph glyph-name="Hbar" unicode="&#x126;" horiz-adv-x="570" 
d="M172 0h-95c-7 0 -10 3 -10 10v434c-1 4 -5 7 -11 7h-11c-6 0 -9 3 -9 10v64c0 7 3 10 9 10h11c7 0 11 3 11 11v74c0 7 3 10 10 10h95c7 0 10 -3 10 -10v-76c1 -6 5 -9 11 -9h184c5 0 10 2 11 7v78c0 7 3 10 10 10h94c7 0 10 -3 10 -10v-78c1 -5 5 -7 11 -7h11
c5 0 9 -3 9 -10v-64c0 -7 -4 -10 -9 -10h-11c-7 0 -11 -3 -11 -8v-433c0 -7 -3 -10 -10 -10h-94c-7 0 -10 3 -10 10v247c0 7 -3 10 -10 10h-186c-7 0 -10 -3 -10 -10v-247c0 -7 -3 -10 -10 -10zM192 372h186c7 0 10 3 10 10v62c-1 4 -4 7 -11 7h-184c-7 0 -10 -3 -11 -6v-63
c0 -7 3 -10 10 -10z" />
    <glyph glyph-name="Hcircumflex" unicode="&#x124;" horiz-adv-x="570" 
d="M172 0h-95c-7 0 -10 3 -10 10v610c0 7 3 10 10 10h95c7 0 10 -3 10 -10v-238c0 -7 3 -10 10 -10h186c7 0 10 3 10 10v238c0 7 3 10 10 10h94c7 0 10 -3 10 -10v-610c0 -7 -3 -10 -10 -10h-94c-7 0 -10 3 -10 10v247c0 7 -3 10 -10 10h-186c-7 0 -10 -3 -10 -10v-247
c0 -7 -3 -10 -10 -10zM235 692h-66c-5 0 -9 3 -9 6c0 2 1 5 3 7l92 127c3 4 6 6 12 6h35c6 0 9 -2 12 -6l92 -127c2 -2 2 -5 2 -7c0 -3 -3 -6 -8 -6h-66c-6 0 -10 3 -14 9l-30 50c-2 2 -4 4 -6 4s-4 -2 -5 -4l-30 -50c-4 -6 -8 -9 -14 -9z" />
    <glyph glyph-name="Ibreve" unicode="&#x12c;" horiz-adv-x="249" 
d="M172 0h-95c-7 0 -10 3 -10 10v610c0 7 3 10 10 10h95c7 0 10 -3 10 -10v-610c0 -7 -3 -10 -10 -10zM130 692h-13c-61 0 -100 34 -100 83v54c0 6 3 9 10 9h51c7 0 10 -3 10 -9v-30c0 -11 14 -21 29 -21h13c16 0 28 10 28 21v30c0 6 3 9 10 9h52c7 0 10 -3 10 -9v-54
c0 -49 -39 -83 -100 -83z" />
    <glyph glyph-name="Imacron" unicode="&#x12a;" horiz-adv-x="249" 
d="M172 0h-95c-7 0 -10 3 -10 10v610c0 7 3 10 10 10h95c7 0 10 -3 10 -10v-610c0 -7 -3 -10 -10 -10zM238 705h-228c-7 0 -10 3 -10 9v76c0 6 3 9 10 9h228c7 0 10 -3 10 -9v-76c0 -6 -3 -9 -10 -9z" />
    <glyph glyph-name="Iogonek" unicode="&#x12e;" horiz-adv-x="249" 
d="M224 -138v-66c0 -6 -3 -10 -9 -10c-82 0 -148 70 -148 142v692c0 7 3 10 10 10h95c7 0 10 -3 10 -10v-610c0 -7 -3 -10 -10 -10h-12v-78c0 -24 16 -45 55 -50c6 -1 9 -4 9 -10z" />
    <glyph glyph-name="Itilde" unicode="&#x128;" horiz-adv-x="249" 
d="M172 0h-95c-7 0 -10 3 -10 10v610c0 7 3 10 10 10h95c7 0 10 -3 10 -10v-610c0 -7 -3 -10 -10 -10zM15 705l-31 22c-3 2 -5 5 -5 8c0 1 1 3 2 5c30 54 61 66 96 66c40 0 63 -30 91 -30c17 0 30 6 48 28c3 4 5 6 8 6c2 0 4 0 6 -2l33 -24c3 -2 4 -5 4 -9c0 -2 0 -3 -1 -5
c-30 -53 -67 -66 -99 -66c-35 0 -63 31 -91 31c-18 0 -33 -6 -46 -27c-2 -4 -5 -6 -8 -6c-2 0 -5 1 -7 3z" />
    <glyph glyph-name="Jcircumflex" unicode="&#x134;" horiz-adv-x="429" 
d="M9 118l76 36c9 4 15 7 18 7c4 0 6 -2 8 -6c16 -43 43 -60 71 -60c40 0 71 32 71 72v453c0 7 3 10 10 10h95c7 0 10 -3 10 -10v-443c0 -104 -84 -187 -186 -187c-57 0 -115 33 -154 79c-15 18 -26 35 -26 41c0 3 2 6 7 8zM257 692h-66c-5 0 -9 3 -9 6c0 2 1 5 3 7l92 127
c3 4 6 6 12 6h35c6 0 9 -2 12 -6l92 -127c2 -2 2 -5 2 -7c0 -3 -3 -6 -8 -6h-66c-6 0 -10 3 -14 9l-30 50c-2 2 -4 4 -6 4s-4 -2 -5 -4l-30 -50c-4 -6 -8 -9 -14 -9z" />
    <glyph glyph-name="Kcommaaccent" unicode="&#x136;" horiz-adv-x="521" 
d="M172 0h-95c-7 0 -10 3 -10 10v610c0 7 3 10 10 10h95c7 0 10 -3 10 -10v-222c0 -7 4 -12 9 -12c3 0 6 2 9 6l178 234c2 2 5 4 8 4h115c7 0 11 -3 11 -8c0 -2 -1 -5 -3 -8l-188 -233c-4 -5 -7 -9 -7 -13c0 -3 2 -6 6 -13l205 -332c4 -7 7 -11 7 -15c0 -5 -4 -8 -11 -8
h-117c-3 0 -6 2 -8 5l-157 251c-3 4 -6 7 -9 7s-6 -2 -8 -5l-32 -43c-5 -7 -8 -14 -8 -24v-181c0 -7 -3 -10 -10 -10zM219 -247l-28 46c-2 2 -2 5 -2 7c0 3 1 6 3 8l8 9c19 24 28 58 28 98v21c0 7 3 9 9 9h83c6 0 9 -2 9 -9v-22c0 -71 -27 -135 -95 -170c-2 -1 -4 -1 -6 -1
c-4 0 -7 1 -9 4z" />
    <glyph glyph-name="Lacute" unicode="&#x139;" horiz-adv-x="454" 
d="M430 0h-353c-7 0 -10 3 -10 10v610c0 7 3 10 10 10h95c7 0 10 -3 10 -10v-505c0 -7 3 -10 10 -10h238c7 0 10 -3 10 -10v-85c0 -7 -3 -10 -10 -10zM154 695h-59c-5 0 -9 2 -9 7c0 2 1 4 3 7l83 108c5 6 9 10 18 10h113c5 0 8 -4 8 -9c0 -2 -1 -5 -3 -7l-133 -109
c-7 -6 -13 -7 -21 -7z" />
    <glyph glyph-name="Lcaron" unicode="&#x13d;" horiz-adv-x="454" 
d="M430 0h-353c-7 0 -10 3 -10 10v610c0 7 3 10 10 10h95c7 0 10 -3 10 -10v-505c0 -7 3 -10 10 -10h238c7 0 10 -3 10 -10v-85c0 -7 -3 -10 -10 -10zM238 506l-23 34c-1 2 -2 4 -2 7s1 6 3 8l7 9c15 24 22 64 22 104v21c0 7 2 9 7 9h67c4 0 7 -2 7 -9v-22
c0 -71 -22 -129 -76 -164c-2 -1 -4 -1 -5 -1c-3 0 -6 1 -7 4z" />
    <glyph glyph-name="Lcommaaccent" unicode="&#x13b;" horiz-adv-x="454" 
d="M430 0h-353c-7 0 -10 3 -10 10v610c0 7 3 10 10 10h95c7 0 10 -3 10 -10v-505c0 -7 3 -10 10 -10h238c7 0 10 -3 10 -10v-85c0 -7 -3 -10 -10 -10zM206 -247l-28 46c-2 2 -2 5 -2 7c0 3 1 6 3 8l8 9c19 24 28 58 28 98v21c0 7 3 9 9 9h83c6 0 9 -2 9 -9v-22
c0 -71 -27 -135 -95 -170c-2 -1 -4 -1 -6 -1c-4 0 -7 1 -9 4z" />
    <glyph glyph-name="Ldot" unicode="&#x13f;" horiz-adv-x="454" 
d="M430 0h-353c-7 0 -10 3 -10 10v610c0 7 3 10 10 10h95c7 0 10 -3 10 -10v-505c0 -7 3 -10 10 -10h238c7 0 10 -3 10 -10v-85c0 -7 -3 -10 -10 -10zM356 314c0 -35 -27 -62 -62 -62s-62 27 -62 62s27 62 62 62s62 -27 62 -62z" />
    <glyph glyph-name="Nacute" unicode="&#x143;" horiz-adv-x="550" 
d="M172 0h-95c-7 0 -10 3 -10 10v610c0 7 3 10 10 10h84c4 0 7 -2 9 -5l179 -328c4 -7 18 -43 21 -51l4 1c-2 24 -6 168 -6 247v126c0 7 3 10 10 10h94c7 0 10 -3 10 -10v-610c0 -7 -3 -10 -10 -10h-83c-4 0 -7 2 -9 5l-179 326c-4 7 -18 43 -21 51l-4 -1
c2 -24 6 -168 6 -247v-124c0 -7 -3 -10 -10 -10zM262 695h-59c-5 0 -9 2 -9 7c0 2 1 4 3 7l83 108c5 6 9 10 18 10h113c5 0 8 -4 8 -9c0 -2 -1 -5 -3 -7l-133 -109c-7 -6 -13 -7 -21 -7z" />
    <glyph glyph-name="Ncaron" unicode="&#x147;" horiz-adv-x="550" 
d="M172 0h-95c-7 0 -10 3 -10 10v610c0 7 3 10 10 10h84c4 0 7 -2 9 -5l179 -328c4 -7 18 -43 21 -51l4 1c-2 24 -6 168 -6 247v126c0 7 3 10 10 10h94c7 0 10 -3 10 -10v-610c0 -7 -3 -10 -10 -10h-83c-4 0 -7 2 -9 5l-179 326c-4 7 -18 43 -21 51l-4 -1
c2 -24 6 -168 6 -247v-124c0 -7 -3 -10 -10 -10zM292 692h-35c-6 0 -9 2 -12 6l-92 127c-2 2 -3 4 -3 6c0 4 4 7 9 7h66c6 0 10 -3 14 -9l30 -50c1 -3 3 -4 5 -4s4 1 6 4l30 50c4 6 8 9 14 9h66c5 0 8 -3 8 -7c0 -2 0 -4 -2 -6l-92 -127c-3 -4 -6 -6 -12 -6z" />
    <glyph glyph-name="Ncommaaccent" unicode="&#x145;" horiz-adv-x="550" 
d="M172 0h-95c-7 0 -10 3 -10 10v610c0 7 3 10 10 10h84c4 0 7 -2 9 -5l179 -328c4 -7 18 -43 21 -51l4 1c-2 24 -6 168 -6 247v126c0 7 3 10 10 10h94c7 0 10 -3 10 -10v-610c0 -7 -3 -10 -10 -10h-83c-4 0 -7 2 -9 5l-179 326c-4 7 -18 43 -21 51l-4 -1
c2 -24 6 -168 6 -247v-124c0 -7 -3 -10 -10 -10zM224 -247l-28 46c-2 2 -2 5 -2 7c0 3 1 6 3 8l8 9c19 24 28 58 28 98v21c0 7 3 9 9 9h83c6 0 9 -2 9 -9v-22c0 -71 -27 -135 -95 -170c-2 -1 -4 -1 -6 -1c-4 0 -7 1 -9 4z" />
    <glyph glyph-name="Obreve" unicode="&#x14e;" horiz-adv-x="527" 
d="M288 -10h-49c-114 0 -186 73 -186 177v296c0 104 72 177 186 177h49c113 0 186 -73 186 -177v-296c0 -104 -73 -177 -186 -177zM239 95h49c40 0 71 32 71 72v296c0 40 -31 72 -71 72h-49c-39 0 -72 -33 -72 -72v-296c0 -39 33 -72 72 -72zM269 692h-13
c-61 0 -100 34 -100 83v54c0 6 3 9 10 9h51c7 0 10 -3 10 -9v-30c0 -11 14 -21 29 -21h13c16 0 28 10 28 21v30c0 6 3 9 10 9h52c7 0 10 -3 10 -9v-54c0 -49 -39 -83 -100 -83z" />
    <glyph glyph-name="Ohungarumlaut" unicode="&#x150;" horiz-adv-x="527" 
d="M288 -10h-49c-114 0 -186 73 -186 177v296c0 104 72 177 186 177h49c113 0 186 -73 186 -177v-296c0 -104 -73 -177 -186 -177zM239 95h49c40 0 71 32 71 72v296c0 40 -31 72 -71 72h-49c-39 0 -72 -33 -72 -72v-296c0 -39 33 -72 72 -72zM330 695h-40c-7 0 -10 2 -10 6
c0 2 2 8 8 21l43 99c1 4 5 6 9 6h83c7 0 11 -2 11 -6s-4 -10 -9 -15l-86 -107c-2 -3 -6 -4 -9 -4zM212 695h-48c-7 0 -10 2 -10 6c0 2 2 8 8 21l43 99c1 4 5 6 9 6h83c7 0 11 -2 11 -6s-5 -10 -9 -15l-78 -107c-2 -3 -6 -4 -9 -4z" />
    <glyph glyph-name="Omacron" unicode="&#x14c;" horiz-adv-x="527" 
d="M288 -10h-49c-114 0 -186 73 -186 177v296c0 104 72 177 186 177h49c113 0 186 -73 186 -177v-296c0 -104 -73 -177 -186 -177zM239 95h49c40 0 71 32 71 72v296c0 40 -31 72 -71 72h-49c-39 0 -72 -33 -72 -72v-296c0 -39 33 -72 72 -72zM377 705h-228c-7 0 -10 3 -10 9
v76c0 6 3 9 10 9h228c7 0 10 -3 10 -9v-76c0 -6 -3 -9 -10 -9z" />
    <glyph glyph-name="Oslashacute" unicode="&#x1fe;" horiz-adv-x="527" 
d="M288 -10h-49c-114 0 -186 73 -186 177v296c0 104 72 177 186 177h49c113 0 186 -73 186 -177v-296c0 -104 -73 -177 -186 -177zM181 247l133 267c1 3 2 5 2 7c0 5 -3 9 -7 10c-7 2 -13 4 -21 4h-49c-39 0 -72 -33 -72 -72v-212c0 -6 3 -9 7 -9c2 0 5 1 7 5zM239 95h49
c40 0 71 32 71 72v261c0 5 -3 8 -6 8s-5 -1 -7 -5l-149 -299c-2 -5 -4 -9 -4 -13c0 -5 2 -8 6 -11c12 -8 25 -13 40 -13zM250 695h-59c-5 0 -9 2 -9 7c0 2 1 4 3 7l83 108c5 6 9 10 18 10h113c5 0 8 -4 8 -9c0 -2 -1 -5 -3 -7l-133 -109c-7 -6 -13 -7 -21 -7z" />
    <glyph glyph-name="Racute" unicode="&#x154;" horiz-adv-x="527" 
d="M172 0h-95c-7 0 -10 3 -10 10v610c0 7 3 10 10 10h225c114 0 186 -73 186 -186v-10c0 -51 -43 -110 -81 -136c-3 -2 -4 -4 -4 -8c0 -3 2 -8 5 -16l86 -250c2 -7 5 -13 5 -16c0 -5 -3 -8 -10 -8h-103c-4 0 -8 3 -9 7l-88 254c-1 4 -4 6 -8 6h-89c-7 0 -10 -3 -10 -10v-247
c0 -7 -3 -10 -10 -10zM192 372h110c39 0 72 33 72 72v9c0 39 -33 72 -72 72h-110c-7 0 -10 -3 -10 -10v-133c0 -7 3 -10 10 -10zM250 695h-59c-5 0 -9 2 -9 7c0 2 1 4 3 7l83 108c5 6 9 10 18 10h113c5 0 8 -4 8 -9c0 -2 -1 -5 -3 -7l-133 -109c-7 -6 -13 -7 -21 -7z" />
    <glyph glyph-name="Rcaron" unicode="&#x158;" horiz-adv-x="527" 
d="M172 0h-95c-7 0 -10 3 -10 10v610c0 7 3 10 10 10h225c114 0 186 -73 186 -186v-10c0 -51 -43 -110 -81 -136c-3 -2 -4 -4 -4 -8c0 -3 2 -8 5 -16l86 -250c2 -7 5 -13 5 -16c0 -5 -3 -8 -10 -8h-103c-4 0 -8 3 -9 7l-88 254c-1 4 -4 6 -8 6h-89c-7 0 -10 -3 -10 -10v-247
c0 -7 -3 -10 -10 -10zM192 372h110c39 0 72 33 72 72v9c0 39 -33 72 -72 72h-110c-7 0 -10 -3 -10 -10v-133c0 -7 3 -10 10 -10zM270 692h-35c-6 0 -9 2 -12 6l-92 127c-2 2 -3 4 -3 6c0 4 4 7 9 7h66c6 0 10 -3 14 -9l30 -50c1 -3 3 -4 5 -4s4 1 6 4l30 50c4 6 8 9 14 9h66
c5 0 8 -3 8 -7c0 -2 0 -4 -2 -6l-92 -127c-3 -4 -6 -6 -12 -6z" />
    <glyph glyph-name="Rcommaaccent" unicode="&#x156;" horiz-adv-x="527" 
d="M172 0h-95c-7 0 -10 3 -10 10v610c0 7 3 10 10 10h225c114 0 186 -73 186 -186v-10c0 -51 -43 -110 -81 -136c-3 -2 -4 -4 -4 -8c0 -3 2 -8 5 -16l86 -250c2 -7 5 -13 5 -16c0 -5 -3 -8 -10 -8h-103c-4 0 -8 3 -9 7l-88 254c-1 4 -4 6 -8 6h-89c-7 0 -10 -3 -10 -10v-247
c0 -7 -3 -10 -10 -10zM192 372h110c39 0 72 33 72 72v9c0 39 -33 72 -72 72h-110c-7 0 -10 -3 -10 -10v-133c0 -7 3 -10 10 -10zM222 -247l-28 46c-2 2 -2 5 -2 7c0 3 1 6 3 8l8 9c19 24 28 58 28 98v21c0 7 3 9 9 9h83c6 0 9 -2 9 -9v-22c0 -71 -27 -135 -95 -170
c-2 -1 -4 -1 -6 -1c-4 0 -7 1 -9 4z" />
    <glyph glyph-name="Sacute" unicode="&#x15a;" horiz-adv-x="472" 
d="M251 -10h-40c-83 0 -128 34 -158 81c-9 15 -19 31 -19 37c0 3 2 5 6 7l80 41c4 2 8 5 12 5c3 0 6 -2 8 -7c18 -43 44 -59 71 -59h40c39 0 72 33 72 72c0 54 -53 74 -107 99c-79 38 -166 79 -166 197c0 104 72 177 186 177h16c83 0 128 -34 158 -81c9 -15 19 -31 19 -37
c0 -3 -2 -5 -6 -7l-80 -41c-4 -2 -8 -5 -12 -5c-3 0 -6 2 -8 7c-18 43 -44 59 -71 59h-16c-39 0 -72 -33 -72 -72c0 -51 58 -66 116 -93c76 -35 157 -82 157 -203c0 -104 -72 -177 -186 -177zM223 695h-59c-5 0 -9 2 -9 7c0 2 1 4 3 7l83 108c5 6 9 10 18 10h113
c5 0 8 -4 8 -9c0 -2 -1 -5 -3 -7l-133 -109c-7 -6 -13 -7 -21 -7z" />
    <glyph glyph-name="Scedilla" unicode="&#x15e;" horiz-adv-x="472" 
d="M215 -215h-59c-7 0 -10 3 -10 10v66c0 7 3 10 10 10h59c9 0 18 8 18 17v8c0 9 -9 18 -18 18h-40c-7 0 -10 3 -10 8c0 4 3 10 8 20l23 49c-74 4 -115 36 -143 80c-9 15 -19 31 -19 37c0 3 2 5 6 7l80 41c4 2 8 5 12 5c3 0 6 -2 8 -7c18 -43 44 -59 71 -59h40
c39 0 72 33 72 72c0 118 -273 89 -273 296c0 104 72 177 186 177h16c83 0 128 -34 158 -81c9 -15 19 -31 19 -37c0 -3 -2 -5 -6 -7l-80 -41c-4 -2 -8 -5 -12 -5c-3 0 -6 2 -8 7c-18 43 -44 59 -71 59h-16c-39 0 -72 -33 -72 -72c0 -105 273 -74 273 -296
c0 -93 -57 -161 -150 -174l-2 -5c-2 -5 -5 -10 -5 -13s1 -5 4 -7c26 -14 42 -40 42 -72v-8c0 -62 -49 -103 -111 -103z" />
    <glyph glyph-name="Scircumflex" unicode="&#x15c;" horiz-adv-x="472" 
d="M251 -10h-40c-83 0 -128 34 -158 81c-9 15 -19 31 -19 37c0 3 2 5 6 7l80 41c4 2 8 5 12 5c3 0 6 -2 8 -7c18 -43 44 -59 71 -59h40c39 0 72 33 72 72c0 54 -53 74 -107 99c-79 38 -166 79 -166 197c0 104 72 177 186 177h16c83 0 128 -34 158 -81c9 -15 19 -31 19 -37
c0 -3 -2 -5 -6 -7l-80 -41c-4 -2 -8 -5 -12 -5c-3 0 -6 2 -8 7c-18 43 -44 59 -71 59h-16c-39 0 -72 -33 -72 -72c0 -51 58 -66 116 -93c76 -35 157 -82 157 -203c0 -104 -72 -177 -186 -177zM186 692h-66c-5 0 -9 3 -9 6c0 2 1 5 3 7l92 127c3 4 6 6 12 6h35
c6 0 9 -2 12 -6l92 -127c2 -2 2 -5 2 -7c0 -3 -3 -6 -8 -6h-66c-6 0 -10 3 -14 9l-30 50c-2 2 -4 4 -6 4s-4 -2 -5 -4l-30 -50c-4 -6 -8 -9 -14 -9z" />
    <glyph glyph-name="Scommaaccent" unicode="&#x218;" horiz-adv-x="472" 
d="M251 -10h-40c-83 0 -128 34 -158 81c-9 15 -19 31 -19 37c0 3 2 5 6 7l80 41c4 2 8 5 12 5c3 0 6 -2 8 -7c18 -43 44 -59 71 -59h40c39 0 72 33 72 72c0 54 -53 74 -107 99c-79 38 -166 79 -166 197c0 104 72 177 186 177h16c83 0 128 -34 158 -81c9 -15 19 -31 19 -37
c0 -3 -2 -5 -6 -7l-80 -41c-4 -2 -8 -5 -12 -5c-3 0 -6 2 -8 7c-18 43 -44 59 -71 59h-16c-39 0 -72 -33 -72 -72c0 -51 58 -66 116 -93c76 -35 157 -82 157 -203c0 -104 -72 -177 -186 -177zM185 -247l-28 46c-2 2 -2 5 -2 7c0 3 1 6 3 8l8 9c19 24 28 58 28 98v21
c0 7 3 9 9 9h83c6 0 9 -2 9 -9v-22c0 -71 -27 -135 -95 -170c-2 -1 -4 -1 -6 -1c-4 0 -7 1 -9 4z" />
    <glyph glyph-name="Tbar" unicode="&#x166;" horiz-adv-x="402" 
d="M248 0h-94c-7 0 -10 3 -10 10v284c-1 5 -4 8 -11 8h-54c-7 0 -10 3 -10 10v85c0 7 3 10 10 10h54c7 0 10 3 11 9v99c0 7 -3 10 -10 10h-109c-7 0 -10 3 -10 10v85c0 7 3 10 10 10h352c7 0 10 -3 10 -10v-85c0 -7 -3 -10 -10 -10h-109c-7 0 -10 -3 -10 -10v-100
c1 -5 5 -8 11 -8h54c7 0 10 -3 10 -10v-85c0 -7 -3 -10 -10 -10h-54c-9 0 -11 -5 -11 -11v-281c0 -7 -3 -10 -10 -10z" />
    <glyph glyph-name="Tcaron" unicode="&#x164;" horiz-adv-x="402" 
d="M248 0h-94c-7 0 -10 3 -10 10v505c0 7 -3 10 -10 10h-109c-7 0 -10 3 -10 10v85c0 7 3 10 10 10h352c7 0 10 -3 10 -10v-85c0 -7 -3 -10 -10 -10h-109c-7 0 -10 -3 -10 -10v-505c0 -7 -3 -10 -10 -10zM218 692h-35c-6 0 -9 2 -12 6l-92 127c-2 2 -3 4 -3 6c0 4 4 7 9 7
h66c6 0 10 -3 14 -9l30 -50c1 -3 3 -4 5 -4s4 1 6 4l30 50c4 6 8 9 14 9h66c5 0 8 -3 8 -7c0 -2 0 -4 -2 -6l-92 -127c-3 -4 -6 -6 -12 -6z" />
    <glyph glyph-name="Tcedilla" unicode="&#x162;" horiz-adv-x="402" 
d="M248 0h-94c-7 0 -10 3 -10 10v505c0 7 -3 10 -10 10h-109c-7 0 -10 3 -10 10v85c0 7 3 10 10 10h352c7 0 10 -3 10 -10v-85c0 -7 -3 -10 -10 -10h-109c-7 0 -10 -3 -10 -10v-505c0 -7 -3 -10 -10 -10zM150 -247l-28 46c-2 2 -2 5 -2 7c0 3 1 6 3 8l8 9c19 24 28 58 28 98
v21c0 7 3 9 9 9h83c6 0 9 -2 9 -9v-22c0 -71 -27 -135 -95 -170c-2 -1 -4 -1 -6 -1c-4 0 -7 1 -9 4z" />
    <glyph glyph-name="Tcommaaccent" unicode="&#x21a;" horiz-adv-x="402" 
d="M248 0h-94c-7 0 -10 3 -10 10v505c0 7 -3 10 -10 10h-109c-7 0 -10 3 -10 10v85c0 7 3 10 10 10h352c7 0 10 -3 10 -10v-85c0 -7 -3 -10 -10 -10h-109c-7 0 -10 -3 -10 -10v-505c0 -7 -3 -10 -10 -10zM150 -247l-28 46c-2 2 -2 5 -2 7c0 3 1 6 3 8l8 9c19 24 28 58 28 98
v21c0 7 3 9 9 9h83c6 0 9 -2 9 -9v-22c0 -71 -27 -135 -95 -170c-2 -1 -4 -1 -6 -1c-4 0 -7 1 -9 4z" />
    <glyph glyph-name="Ubreve" unicode="&#x16c;" horiz-adv-x="527" 
d="M288 -10h-49c-114 0 -186 73 -186 177v453c0 7 3 10 10 10h94c7 0 10 -3 10 -10v-453c0 -39 33 -72 72 -72h49c40 0 71 32 71 72v453c0 7 3 10 10 10h95c7 0 10 -3 10 -10v-453c0 -104 -73 -177 -186 -177zM269 692h-13c-61 0 -100 34 -100 83v54c0 6 3 9 10 9h51
c7 0 10 -3 10 -9v-30c0 -11 14 -21 29 -21h13c16 0 28 10 28 21v30c0 6 3 9 10 9h52c7 0 10 -3 10 -9v-54c0 -49 -39 -83 -100 -83z" />
    <glyph glyph-name="Uhungarumlaut" unicode="&#x170;" horiz-adv-x="527" 
d="M288 -10h-49c-114 0 -186 73 -186 177v453c0 7 3 10 10 10h94c7 0 10 -3 10 -10v-453c0 -39 33 -72 72 -72h49c40 0 71 32 71 72v453c0 7 3 10 10 10h95c7 0 10 -3 10 -10v-453c0 -104 -73 -177 -186 -177zM330 695h-40c-7 0 -10 2 -10 6c0 2 2 8 8 21l43 99c1 4 5 6 9 6
h83c7 0 11 -2 11 -6s-4 -10 -9 -15l-86 -107c-2 -3 -6 -4 -9 -4zM212 695h-48c-7 0 -10 2 -10 6c0 2 2 8 8 21l43 99c1 4 5 6 9 6h83c7 0 11 -2 11 -6s-5 -10 -9 -15l-78 -107c-2 -3 -6 -4 -9 -4z" />
    <glyph glyph-name="Umacron" unicode="&#x16a;" horiz-adv-x="527" 
d="M288 -10h-49c-114 0 -186 73 -186 177v453c0 7 3 10 10 10h94c7 0 10 -3 10 -10v-453c0 -39 33 -72 72 -72h49c40 0 71 32 71 72v453c0 7 3 10 10 10h95c7 0 10 -3 10 -10v-453c0 -104 -73 -177 -186 -177zM377 705h-228c-7 0 -10 3 -10 9v76c0 6 3 9 10 9h228
c7 0 10 -3 10 -9v-76c0 -6 -3 -9 -10 -9z" />
    <glyph glyph-name="Uogonek" unicode="&#x172;" horiz-adv-x="527" 
d="M395 -138v-66c0 -6 -3 -10 -9 -10c-82 0 -148 70 -148 142v62c-114 1 -185 73 -185 177v453c0 7 3 10 10 10h94c7 0 10 -3 10 -10v-453c0 -39 33 -72 72 -72h49c40 0 71 32 71 72v453c0 7 3 10 10 10h95c7 0 10 -3 10 -10v-453c0 -90 -55 -157 -143 -173v-72
c0 -24 16 -45 55 -50c6 -1 9 -4 9 -10z" />
    <glyph glyph-name="Uring" unicode="&#x16e;" horiz-adv-x="527" 
d="M288 -10h-49c-114 0 -186 73 -186 177v453c0 7 3 10 10 10h94c7 0 10 -3 10 -10v-453c0 -39 33 -72 72 -72h49c40 0 71 32 71 72v453c0 7 3 10 10 10h95c7 0 10 -3 10 -10v-453c0 -104 -73 -177 -186 -177zM163 768v29c0 56 39 95 100 95s100 -39 100 -95v-29
c0 -56 -39 -95 -100 -95s-100 39 -100 95zM292 768v29c0 15 -14 29 -29 29s-29 -14 -29 -29v-29c0 -15 14 -28 29 -28s29 13 29 28z" />
    <glyph glyph-name="Utilde" unicode="&#x168;" horiz-adv-x="527" 
d="M288 -10h-49c-114 0 -186 73 -186 177v453c0 7 3 10 10 10h94c7 0 10 -3 10 -10v-453c0 -39 33 -72 72 -72h49c40 0 71 32 71 72v453c0 7 3 10 10 10h95c7 0 10 -3 10 -10v-453c0 -104 -73 -177 -186 -177zM154 705l-31 22c-3 2 -5 5 -5 8c0 1 1 3 2 5c30 54 61 66 96 66
c40 0 63 -30 91 -30c17 0 30 6 48 28c3 4 5 6 8 6c2 0 4 0 6 -2l33 -24c3 -2 4 -5 4 -9c0 -2 0 -3 -1 -5c-30 -53 -67 -66 -99 -66c-35 0 -63 31 -91 31c-18 0 -33 -6 -46 -27c-2 -4 -5 -6 -8 -6c-2 0 -5 1 -7 3z" />
    <glyph glyph-name="Wacute" unicode="&#x1e82;" horiz-adv-x="657" 
d="M218 0h-73c-5 0 -9 3 -10 8l-127 587c-2 11 -5 22 -5 27c0 6 3 8 10 8h102c5 0 9 -3 10 -8l58 -309c1 -7 8 -54 10 -62h5c2 8 11 54 13 62l82 312c1 5 5 7 10 7h50c5 0 9 -2 10 -7l82 -312c2 -8 11 -54 13 -62h5c2 8 8 53 10 62l59 309c1 5 5 8 10 8h102c7 0 10 -2 10 -8
c0 -4 -3 -17 -5 -27l-127 -587c-1 -5 -5 -8 -10 -8h-73c-5 0 -9 2 -10 7l-87 302c-2 7 -10 47 -12 55h-3c-2 -8 -10 -47 -12 -55l-87 -302c-1 -5 -5 -7 -10 -7zM345 695h-59c-5 0 -9 2 -9 7c0 2 1 4 3 7l83 108c5 6 9 10 18 10h113c5 0 8 -4 8 -9c0 -2 -1 -5 -3 -7
l-133 -109c-7 -6 -13 -7 -21 -7z" />
    <glyph glyph-name="Wcircumflex" unicode="&#x174;" horiz-adv-x="657" 
d="M218 0h-73c-5 0 -9 3 -10 8l-127 587c-2 11 -5 22 -5 27c0 6 3 8 10 8h102c5 0 9 -3 10 -8l58 -309c1 -7 8 -54 10 -62h5c2 8 11 54 13 62l82 312c1 5 5 7 10 7h50c5 0 9 -2 10 -7l82 -312c2 -8 11 -54 13 -62h5c2 8 8 53 10 62l59 309c1 5 5 8 10 8h102c7 0 10 -2 10 -8
c0 -4 -3 -17 -5 -27l-127 -587c-1 -5 -5 -8 -10 -8h-73c-5 0 -9 2 -10 7l-87 302c-2 7 -10 47 -12 55h-3c-2 -8 -10 -47 -12 -55l-87 -302c-1 -5 -5 -7 -10 -7zM278 692h-66c-5 0 -9 3 -9 6c0 2 1 5 3 7l92 127c3 4 6 6 12 6h35c6 0 9 -2 12 -6l92 -127c2 -2 2 -5 2 -7
c0 -3 -3 -6 -8 -6h-66c-6 0 -10 3 -14 9l-30 50c-2 2 -4 4 -6 4s-4 -2 -5 -4l-30 -50c-4 -6 -8 -9 -14 -9z" />
    <glyph glyph-name="Wdieresis" unicode="&#x1e84;" horiz-adv-x="657" 
d="M218 0h-73c-5 0 -9 3 -10 8l-127 587c-2 11 -5 22 -5 27c0 6 3 8 10 8h102c5 0 9 -3 10 -8l58 -309c1 -7 8 -54 10 -62h5c2 8 11 54 13 62l82 312c1 5 5 7 10 7h50c5 0 9 -2 10 -7l82 -312c2 -8 11 -54 13 -62h5c2 8 8 53 10 62l59 309c1 5 5 8 10 8h102c7 0 10 -2 10 -8
c0 -4 -3 -17 -5 -27l-127 -587c-1 -5 -5 -8 -10 -8h-73c-5 0 -9 2 -10 7l-87 302c-2 7 -10 47 -12 55h-3c-2 -8 -10 -47 -12 -55l-87 -302c-1 -5 -5 -7 -10 -7zM463 756c0 -31 -24 -55 -55 -55s-56 24 -56 55s25 55 56 55s55 -24 55 -55zM304 756c0 -31 -24 -55 -55 -55
s-56 24 -56 55s25 55 56 55s55 -24 55 -55z" />
    <glyph glyph-name="Wgrave" unicode="&#x1e80;" horiz-adv-x="657" 
d="M218 0h-73c-5 0 -9 3 -10 8l-127 587c-2 11 -5 22 -5 27c0 6 3 8 10 8h102c5 0 9 -3 10 -8l58 -309c1 -7 8 -54 10 -62h5c2 8 11 54 13 62l82 312c1 5 5 7 10 7h50c5 0 9 -2 10 -7l82 -312c2 -8 11 -54 13 -62h5c2 8 8 53 10 62l59 309c1 5 5 8 10 8h102c7 0 10 -2 10 -8
c0 -4 -3 -17 -5 -27l-127 -587c-1 -5 -5 -8 -10 -8h-73c-5 0 -9 2 -10 7l-87 302c-2 7 -10 47 -12 55h-3c-2 -8 -10 -47 -12 -55l-87 -302c-1 -5 -5 -7 -10 -7zM370 695h-59c-8 0 -14 1 -21 7l-133 109c-2 2 -4 5 -4 7c0 5 3 9 9 9h113c9 0 13 -4 18 -10l83 -108
c2 -3 3 -5 3 -7c0 -5 -4 -7 -9 -7z" />
    <glyph glyph-name="Ycircumflex" unicode="&#x176;" horiz-adv-x="450" 
d="M272 0h-95c-7 0 -10 3 -10 10v264c0 10 -1 15 -7 27l-163 305c-4 7 -7 12 -7 16c0 5 4 8 11 8h111c4 0 7 -3 9 -6l95 -196c2 -5 6 -8 9 -8s7 3 9 8l95 196c2 3 5 6 9 6h110c7 0 11 -3 11 -8c0 -4 -4 -10 -7 -16l-163 -305c-5 -10 -7 -16 -7 -28v-263c0 -7 -3 -10 -10 -10
zM175 692h-66c-5 0 -9 3 -9 6c0 2 1 5 3 7l92 127c3 4 6 6 12 6h35c6 0 9 -2 12 -6l92 -127c2 -2 2 -5 2 -7c0 -3 -3 -6 -8 -6h-66c-6 0 -10 3 -14 9l-30 50c-2 2 -4 4 -6 4s-4 -2 -5 -4l-30 -50c-4 -6 -8 -9 -14 -9z" />
    <glyph glyph-name="Ygrave" unicode="&#x1ef2;" horiz-adv-x="450" 
d="M272 0h-95c-7 0 -10 3 -10 10v264c0 10 -1 15 -7 27l-163 305c-4 7 -7 12 -7 16c0 5 4 8 11 8h111c4 0 7 -3 9 -6l95 -196c2 -5 6 -8 9 -8s7 3 9 8l95 196c2 3 5 6 9 6h110c7 0 11 -3 11 -8c0 -4 -4 -10 -7 -16l-163 -305c-5 -10 -7 -16 -7 -28v-263c0 -7 -3 -10 -10 -10
zM267 695h-59c-8 0 -14 1 -21 7l-133 109c-2 2 -4 5 -4 7c0 5 3 9 9 9h113c9 0 13 -4 18 -10l83 -108c2 -3 3 -5 3 -7c0 -5 -4 -7 -9 -7z" />
    <glyph glyph-name="Zacute" unicode="&#x179;" horiz-adv-x="456" 
d="M396 0h-375c-7 0 -10 3 -10 8c0 4 3 10 7 19l211 471c4 8 7 16 7 19c0 5 -3 8 -10 8h-182c-7 0 -10 3 -10 10v85c0 7 3 10 10 10h355c7 0 10 -3 10 -8c0 -4 -3 -9 -7 -19l-213 -473c-4 -8 -6 -13 -6 -17c0 -5 3 -8 10 -8h203c7 0 10 -3 10 -10v-85c0 -7 -3 -10 -10 -10z
M215 695h-59c-5 0 -9 2 -9 7c0 2 1 4 3 7l83 108c5 6 9 10 18 10h113c5 0 8 -4 8 -9c0 -2 -1 -5 -3 -7l-133 -109c-7 -6 -13 -7 -21 -7z" />
    <glyph glyph-name="Zdotaccent" unicode="&#x17b;" horiz-adv-x="456" 
d="M396 0h-375c-7 0 -10 3 -10 8c0 4 3 10 7 19l211 471c4 8 7 16 7 19c0 5 -3 8 -10 8h-182c-7 0 -10 3 -10 10v85c0 7 3 10 10 10h355c7 0 10 -3 10 -8c0 -4 -3 -9 -7 -19l-213 -473c-4 -8 -6 -13 -6 -17c0 -5 3 -8 10 -8h203c7 0 10 -3 10 -10v-85c0 -7 -3 -10 -10 -10z
M283 756c0 -31 -24 -55 -55 -55s-56 24 -56 55s25 55 56 55s55 -24 55 -55z" />
    <glyph glyph-name="Idotaccent" unicode="&#x130;" horiz-adv-x="249" 
d="M172 0h-95c-7 0 -10 3 -10 10v610c0 7 3 10 10 10h95c7 0 10 -3 10 -10v-610c0 -7 -3 -10 -10 -10zM179 756c0 -31 -24 -55 -55 -55s-56 24 -56 55s25 55 56 55s55 -24 55 -55z" />
    <glyph glyph-name="abreve" unicode="&#x103;" horiz-adv-x="465" 
d="M226 0h-38c-79 0 -141 54 -141 134v5c0 82 62 134 141 134h96c7 0 10 4 10 10v12c0 39 -32 68 -73 68c-24 0 -49 -15 -73 -57c-2 -4 -5 -6 -8 -6c-4 0 -8 3 -12 5l-76 40c-4 2 -6 4 -6 7c0 5 11 25 21 40c32 48 77 76 154 76c114 0 187 -72 187 -176v-282
c0 -7 -3 -10 -10 -10h-85c-7 0 -10 2 -10 8c0 8 -2 13 -7 13c-3 0 -6 -1 -9 -3c-22 -12 -42 -18 -61 -18zM188 105h38c32 0 63 27 68 56v16h-106c-15 0 -27 -13 -27 -28v-15c0 -16 11 -29 27 -29zM253 523h-43c-61 0 -100 39 -100 95v62c0 7 3 10 10 10h51c7 0 10 -3 10 -10
v-43c0 -15 14 -28 29 -28h43c16 0 28 12 28 28v43c0 7 3 10 10 10h52c7 0 10 -3 10 -10v-62c0 -56 -39 -95 -100 -95z" />
    <glyph glyph-name="amacron" unicode="&#x101;" horiz-adv-x="465" 
d="M226 0h-38c-79 0 -141 54 -141 134v5c0 82 62 134 141 134h96c7 0 10 4 10 10v12c0 39 -32 68 -73 68c-24 0 -49 -15 -73 -57c-2 -4 -5 -6 -8 -6c-4 0 -8 3 -12 5l-76 40c-4 2 -6 4 -6 7c0 5 11 25 21 40c32 48 77 76 154 76c114 0 187 -72 187 -176v-282
c0 -7 -3 -10 -10 -10h-85c-7 0 -10 2 -10 8c0 8 -2 13 -7 13c-3 0 -6 -1 -9 -3c-22 -12 -42 -18 -61 -18zM188 105h38c32 0 63 27 68 56v16h-106c-15 0 -27 -13 -27 -28v-15c0 -16 11 -29 27 -29zM346 539h-228c-7 0 -10 3 -10 10v85c0 7 3 10 10 10h228c7 0 10 -3 10 -10
v-85c0 -7 -3 -10 -10 -10z" />
    <glyph glyph-name="aogonek" unicode="&#x105;" horiz-adv-x="465" 
d="M460 -138v-66c0 -6 -3 -10 -9 -10c-15 0 -47 8 -66 17c-51 25 -82 72 -82 125v80c0 8 -2 13 -7 13c-3 0 -6 -1 -9 -3c-22 -12 -42 -18 -61 -18h-38c-79 0 -141 54 -141 134v5c0 82 62 134 141 134h96c7 0 10 4 10 10v12c0 39 -32 68 -73 68c-24 0 -49 -15 -73 -57
c-2 -4 -5 -6 -8 -6c-4 0 -8 3 -12 5l-76 40c-4 2 -6 4 -6 7c0 5 11 25 21 40c32 48 77 76 154 76c114 0 187 -72 187 -176v-282c0 -7 -3 -10 -10 -10h-2v-78c0 -24 16 -45 55 -50c6 -1 9 -4 9 -10zM188 105h38c32 0 63 27 68 56v16h-106c-15 0 -27 -13 -27 -28v-15
c0 -16 11 -29 27 -29z" />
    <glyph glyph-name="aeacute" unicode="&#x1fd;" horiz-adv-x="719" 
d="M237 -10h-47c-81 0 -144 54 -144 134v19c0 80 63 134 144 134h104c7 0 10 3 10 10v2c0 40 -31 72 -71 72c-27 0 -54 -16 -71 -58c-2 -4 -5 -6 -8 -6s-8 2 -13 5l-78 39c-4 2 -6 5 -6 8c0 5 5 15 16 33c30 48 76 84 160 84c46 0 88 -13 119 -36c3 -2 8 -7 12 -7s9 4 12 7
c31 24 69 38 114 38c113 0 186 -94 186 -177v-81c0 -7 -3 -10 -10 -10h-238c-7 0 -10 -3 -10 -10v-23c0 -39 31 -72 72 -72c26 0 53 16 71 59c2 4 5 6 8 6s9 -3 17 -7l75 -37c4 -2 6 -5 6 -8c0 -4 -7 -17 -15 -30c-31 -51 -75 -88 -162 -88c-59 0 -104 19 -134 49
c-3 3 -4 4 -7 4c-2 0 -5 -1 -7 -4c-29 -31 -77 -49 -105 -49zM430 296h119c7 0 11 4 11 9c0 12 -20 58 -70 58c-49 0 -71 -45 -71 -58c0 -5 4 -9 11 -9zM190 95h47c30 0 56 30 67 56v23c0 5 -4 8 -10 8h-104c-17 0 -29 -14 -29 -29v-29c0 -15 12 -29 29 -29zM378 523h-68
c-7 0 -10 3 -10 8c0 4 3 8 6 13l90 138c3 5 9 8 14 8h122c7 0 11 -3 11 -8s-3 -8 -7 -12l-142 -140c-5 -4 -10 -7 -16 -7z" />
    <glyph glyph-name="cacute" unicode="&#x107;" horiz-adv-x="429" 
d="M326 153l75 -37c4 -2 6 -5 6 -8c0 -4 -7 -17 -15 -30c-31 -51 -75 -88 -162 -88c-114 0 -187 73 -187 177v124c0 104 73 177 187 177c87 0 131 -37 162 -88c8 -13 15 -26 15 -30c0 -3 -2 -6 -6 -8l-75 -37c-8 -4 -14 -7 -17 -7s-6 2 -8 6c-18 43 -45 59 -71 59
c-41 0 -72 -33 -72 -72v-124c0 -39 31 -72 72 -72c26 0 53 16 71 59c2 4 5 6 8 6s9 -3 17 -7zM229 523h-68c-7 0 -10 3 -10 8c0 4 3 8 6 13l90 138c3 5 9 8 14 8h122c7 0 11 -3 11 -8s-3 -8 -7 -12l-142 -140c-5 -4 -10 -7 -16 -7z" />
    <glyph glyph-name="ccaron" unicode="&#x10d;" horiz-adv-x="429" 
d="M326 153l75 -37c4 -2 6 -5 6 -8c0 -4 -7 -17 -15 -30c-31 -51 -75 -88 -162 -88c-114 0 -187 73 -187 177v124c0 104 73 177 187 177c87 0 131 -37 162 -88c8 -13 15 -26 15 -30c0 -3 -2 -6 -6 -8l-75 -37c-8 -4 -14 -7 -17 -7s-6 2 -8 6c-18 43 -45 59 -71 59
c-41 0 -72 -33 -72 -72v-124c0 -39 31 -72 72 -72c26 0 53 16 71 59c2 4 5 6 8 6s9 -3 17 -7zM254 523h-49c-3 0 -6 2 -8 4l-97 137c-6 9 -10 14 -10 18c0 5 4 8 11 8h81c3 0 6 -2 8 -5l32 -51c2 -4 4 -6 7 -6s6 2 8 6l33 51c2 3 5 5 8 5h81c7 0 11 -3 11 -8
c0 -4 -5 -11 -10 -18l-98 -137c-2 -2 -5 -4 -8 -4z" />
    <glyph glyph-name="ccircumflex" unicode="&#x109;" horiz-adv-x="429" 
d="M326 153l75 -37c4 -2 6 -5 6 -8c0 -4 -7 -17 -15 -30c-31 -51 -75 -88 -162 -88c-114 0 -187 73 -187 177v124c0 104 73 177 187 177c87 0 131 -37 162 -88c8 -13 15 -26 15 -30c0 -3 -2 -6 -6 -8l-75 -37c-8 -4 -14 -7 -17 -7s-6 2 -8 6c-18 43 -45 59 -71 59
c-41 0 -72 -33 -72 -72v-124c0 -39 31 -72 72 -72c26 0 53 16 71 59c2 4 5 6 8 6s9 -3 17 -7zM182 523h-81c-7 0 -11 3 -11 8c0 3 1 5 3 8l104 147c2 2 5 4 8 4h49c3 0 6 -2 8 -4l105 -147c2 -3 3 -6 3 -8c0 -5 -4 -8 -11 -8h-81c-3 0 -6 2 -8 5l-33 51c-2 4 -5 6 -8 6
c-2 0 -5 -2 -7 -6l-32 -51c-2 -3 -5 -5 -8 -5z" />
    <glyph glyph-name="cdotaccent" unicode="&#x10b;" horiz-adv-x="429" 
d="M326 153l75 -37c4 -2 6 -5 6 -8c0 -4 -7 -17 -15 -30c-31 -51 -75 -88 -162 -88c-114 0 -187 73 -187 177v124c0 104 73 177 187 177c87 0 131 -37 162 -88c8 -13 15 -26 15 -30c0 -3 -2 -6 -6 -8l-75 -37c-8 -4 -14 -7 -17 -7s-6 2 -8 6c-18 43 -45 59 -71 59
c-41 0 -72 -33 -72 -72v-124c0 -39 31 -72 72 -72c26 0 53 16 71 59c2 4 5 6 8 6s9 -3 17 -7zM292 595c0 -35 -27 -62 -62 -62s-62 27 -62 62s27 62 62 62s62 -27 62 -62z" />
    <glyph glyph-name="dcaron" unicode="&#x10f;" horiz-adv-x="503" 
d="M406 0h-85c-7 0 -10 2 -10 9s-3 11 -8 11c-2 0 -4 -1 -7 -2c-21 -11 -47 -18 -66 -18c-114 0 -187 73 -187 177v105c0 104 79 176 177 176c20 0 45 -7 66 -18c3 -1 4 -2 7 -2c5 0 8 4 8 11v171c0 7 3 10 10 10h95c7 0 10 -3 10 -10v-610c0 -7 -3 -10 -10 -10zM301 177
v105c0 40 -31 71 -71 71c-41 0 -72 -31 -72 -71v-105c0 -41 31 -72 72 -72c40 0 71 31 71 72zM470 506l-23 34c-1 2 -2 4 -2 7s1 6 3 8l7 9c15 24 22 64 22 104v21c0 7 2 9 7 9h67c4 0 7 -2 7 -9v-22c0 -71 -22 -129 -76 -164c-2 -1 -4 -1 -5 -1c-3 0 -6 1 -7 4z" />
    <glyph glyph-name="dcroat" unicode="&#x111;" horiz-adv-x="473" 
d="M406 0h-85c-7 0 -10 2 -10 9s-3 11 -8 11c-2 0 -4 -1 -7 -2c-21 -11 -47 -18 -66 -18c-114 0 -187 73 -187 177v105c0 104 79 176 177 176c20 0 45 -7 66 -18c3 -1 4 -2 7 -2c5 0 8 4 8 11v45c0 6 -4 9 -11 9h-85c-6 0 -9 3 -9 10v49c0 7 3 9 9 9h85c5 0 10 2 11 7v42
c0 7 3 10 10 10h95c7 0 10 -3 10 -10v-40c1 -5 4 -9 10 -9h30c6 0 10 -2 10 -9v-49c0 -7 -4 -10 -10 -10h-30c-7 0 -10 -3 -10 -7v-486c0 -7 -3 -10 -10 -10zM301 177v105c0 40 -31 71 -71 71c-41 0 -72 -31 -72 -71v-105c0 -41 31 -72 72 -72c40 0 71 31 71 72z" />
    <glyph glyph-name="ebreve" unicode="&#x115;" horiz-adv-x="459" 
d="M326 153l75 -37c4 -2 6 -5 6 -8c0 -4 -7 -17 -15 -30c-31 -51 -75 -88 -162 -88c-114 0 -187 73 -187 177v124c0 83 73 177 187 177c113 0 186 -94 186 -177v-81c0 -7 -3 -10 -10 -10h-238c-7 0 -10 -3 -10 -10v-23c0 -39 31 -72 72 -72c26 0 53 16 71 59c2 4 5 6 8 6
s9 -3 17 -7zM170 296h119c7 0 11 4 11 9c0 12 -20 58 -70 58c-49 0 -71 -45 -71 -58c0 -5 4 -9 11 -9zM250 523h-43c-61 0 -100 39 -100 95v62c0 7 3 10 10 10h51c7 0 10 -3 10 -10v-43c0 -15 14 -28 29 -28h43c16 0 28 12 28 28v43c0 7 3 10 10 10h52c7 0 10 -3 10 -10v-62
c0 -56 -39 -95 -100 -95z" />
    <glyph glyph-name="ecaron" unicode="&#x11b;" horiz-adv-x="459" 
d="M326 153l75 -37c4 -2 6 -5 6 -8c0 -4 -7 -17 -15 -30c-31 -51 -75 -88 -162 -88c-114 0 -187 73 -187 177v124c0 83 73 177 187 177c113 0 186 -94 186 -177v-81c0 -7 -3 -10 -10 -10h-238c-7 0 -10 -3 -10 -10v-23c0 -39 31 -72 72 -72c26 0 53 16 71 59c2 4 5 6 8 6
s9 -3 17 -7zM170 296h119c7 0 11 4 11 9c0 12 -20 58 -70 58c-49 0 -71 -45 -71 -58c0 -5 4 -9 11 -9zM253 523h-49c-3 0 -6 2 -8 4l-97 137c-6 9 -10 14 -10 18c0 5 4 8 11 8h81c3 0 6 -2 8 -5l32 -51c2 -4 4 -6 7 -6s6 2 8 6l33 51c2 3 5 5 8 5h81c7 0 11 -3 11 -8
c0 -4 -5 -11 -10 -18l-98 -137c-2 -2 -5 -4 -8 -4z" />
    <glyph glyph-name="edotaccent" unicode="&#x117;" horiz-adv-x="459" 
d="M326 153l75 -37c4 -2 6 -5 6 -8c0 -4 -7 -17 -15 -30c-31 -51 -75 -88 -162 -88c-114 0 -187 73 -187 177v124c0 83 73 177 187 177c113 0 186 -94 186 -177v-81c0 -7 -3 -10 -10 -10h-238c-7 0 -10 -3 -10 -10v-23c0 -39 31 -72 72 -72c26 0 53 16 71 59c2 4 5 6 8 6
s9 -3 17 -7zM170 296h119c7 0 11 4 11 9c0 12 -20 58 -70 58c-49 0 -71 -45 -71 -58c0 -5 4 -9 11 -9zM291 595c0 -35 -27 -62 -62 -62s-62 27 -62 62s27 62 62 62s62 -27 62 -62z" />
    <glyph glyph-name="emacron" unicode="&#x113;" horiz-adv-x="459" 
d="M326 153l75 -37c4 -2 6 -5 6 -8c0 -4 -7 -17 -15 -30c-31 -51 -75 -88 -162 -88c-114 0 -187 73 -187 177v124c0 83 73 177 187 177c113 0 186 -94 186 -177v-81c0 -7 -3 -10 -10 -10h-238c-7 0 -10 -3 -10 -10v-23c0 -39 31 -72 72 -72c26 0 53 16 71 59c2 4 5 6 8 6
s9 -3 17 -7zM170 296h119c7 0 11 4 11 9c0 12 -20 58 -70 58c-49 0 -71 -45 -71 -58c0 -5 4 -9 11 -9zM343 539h-228c-7 0 -10 3 -10 10v85c0 7 3 10 10 10h228c7 0 10 -3 10 -10v-85c0 -7 -3 -10 -10 -10z" />
    <glyph glyph-name="eng" unicode="&#x14b;" horiz-adv-x="488" 
d="M230 -225v85c0 6 3 10 9 10c52 4 76 35 76 71v341c0 40 -31 71 -71 71s-72 -31 -72 -71v-272c0 -7 -3 -10 -10 -10h-94c-7 0 -10 3 -10 10v438c0 7 3 10 10 10h85c16 0 5 -20 18 -20c3 0 4 1 7 2c21 11 46 18 66 18c113 0 186 -72 186 -176v-332
c0 -74 -43 -137 -114 -167c-24 -10 -58 -18 -76 -18c-6 0 -10 3 -10 10z" />
    <glyph glyph-name="eogonek" unicode="&#x119;" horiz-adv-x="459" 
d="M360 -138v-66c0 -6 -3 -10 -9 -10c-15 0 -47 8 -66 17c-51 25 -82 72 -82 125v63c-99 10 -160 80 -160 176v124c0 83 73 177 187 177c113 0 186 -94 186 -177v-81c0 -7 -3 -10 -10 -10h-238c-7 0 -10 -3 -10 -10v-23c0 -39 31 -72 72 -72c26 0 53 16 71 59c2 4 5 6 8 6
s9 -3 17 -7l75 -37c4 -2 6 -5 6 -8c0 -4 -7 -17 -15 -30c-22 -36 -51 -65 -96 -79v-77c0 -24 16 -45 55 -50c6 -1 9 -4 9 -10zM170 296h119c7 0 11 4 11 9c0 12 -20 58 -70 58c-49 0 -71 -45 -71 -58c0 -5 4 -9 11 -9z" />
    <glyph glyph-name="gbreve" unicode="&#x11f;" horiz-adv-x="459" 
d="M315 -225h-128c-81 0 -144 44 -144 124v29c0 41 21 74 51 97c2 2 4 5 4 8c0 9 -19 19 -19 56c0 41 22 55 22 61c0 3 -1 5 -3 7c-33 32 -55 70 -55 121v14c0 104 82 166 187 166c16 0 36 -5 55 -13c7 -3 13 -7 18 -7s8 4 8 11c0 6 3 9 10 9h85c7 0 10 -3 10 -10v-165
c0 -104 -82 -173 -186 -173h-24c-10 0 -20 -11 -20 -28c0 -18 9 -30 22 -30h107c81 0 144 -43 144 -124v-29c0 -80 -63 -124 -144 -124zM301 278v14c0 40 -31 69 -71 69c-41 0 -72 -29 -72 -69v-14c0 -39 31 -65 72 -65c40 0 71 25 71 65zM187 -130h128c17 0 29 14 29 29v29
c0 17 -12 29 -29 29h-128c-17 0 -29 -12 -29 -29v-29c0 -15 12 -29 29 -29zM250 523h-43c-61 0 -100 39 -100 95v62c0 7 3 10 10 10h51c7 0 10 -3 10 -10v-43c0 -15 14 -28 29 -28h43c16 0 28 12 28 28v43c0 7 3 10 10 10h52c7 0 10 -3 10 -10v-62c0 -56 -39 -95 -100 -95z
" />
    <glyph glyph-name="gcircumflex" unicode="&#x11d;" horiz-adv-x="459" 
d="M315 -225h-128c-81 0 -144 44 -144 124v29c0 41 21 74 51 97c2 2 4 5 4 8c0 9 -19 19 -19 56c0 41 22 55 22 61c0 3 -1 5 -3 7c-33 32 -55 70 -55 121v14c0 104 82 166 187 166c16 0 36 -5 55 -13c7 -3 13 -7 18 -7s8 4 8 11c0 6 3 9 10 9h85c7 0 10 -3 10 -10v-165
c0 -104 -82 -173 -186 -173h-24c-10 0 -20 -11 -20 -28c0 -18 9 -30 22 -30h107c81 0 144 -43 144 -124v-29c0 -80 -63 -124 -144 -124zM301 278v14c0 40 -31 69 -71 69c-41 0 -72 -29 -72 -69v-14c0 -39 31 -65 72 -65c40 0 71 25 71 65zM187 -130h128c17 0 29 14 29 29v29
c0 17 -12 29 -29 29h-128c-17 0 -29 -12 -29 -29v-29c0 -15 12 -29 29 -29zM181 523h-81c-7 0 -11 3 -11 8c0 3 1 5 3 8l104 147c2 2 5 4 8 4h49c3 0 6 -2 8 -4l105 -147c2 -3 3 -6 3 -8c0 -5 -4 -8 -11 -8h-81c-3 0 -6 2 -8 5l-33 51c-2 4 -5 6 -8 6c-2 0 -5 -2 -7 -6
l-32 -51c-2 -3 -5 -5 -8 -5z" />
    <glyph glyph-name="gcommaaccent" unicode="&#x123;" horiz-adv-x="459" 
d="M315 -225h-128c-81 0 -144 44 -144 124v29c0 41 21 74 51 97c2 2 4 5 4 8c0 9 -19 19 -19 56c0 41 22 55 22 61c0 3 -1 5 -3 7c-33 32 -55 70 -55 121v14c0 104 82 166 187 166c16 0 36 -5 55 -13c7 -3 13 -7 18 -7s8 4 8 11c0 6 3 9 10 9h85c7 0 10 -3 10 -10v-165
c0 -104 -82 -173 -186 -173h-24c-10 0 -20 -11 -20 -28c0 -18 9 -30 22 -30h107c81 0 144 -43 144 -124v-29c0 -80 -63 -124 -144 -124zM301 278v14c0 40 -31 69 -71 69c-41 0 -72 -29 -72 -69v-14c0 -39 31 -65 72 -65c40 0 71 25 71 65zM187 -130h128c17 0 29 14 29 29v29
c0 17 -12 29 -29 29h-128c-17 0 -29 -12 -29 -29v-29c0 -15 12 -29 29 -29zM251 517h-84c-6 0 -9 2 -9 9v23c0 70 28 135 95 169c2 1 5 2 7 2c3 0 6 -2 8 -4l29 -47c1 -2 2 -4 2 -6c0 -3 -1 -6 -4 -8c-22 -33 -35 -58 -35 -107v-22c0 -7 -4 -9 -9 -9z" />
    <glyph glyph-name="gdotaccent" unicode="&#x121;" horiz-adv-x="459" 
d="M315 -225h-128c-81 0 -144 44 -144 124v29c0 41 21 74 51 97c2 2 4 5 4 8c0 9 -19 19 -19 56c0 41 22 55 22 61c0 3 -1 5 -3 7c-33 32 -55 70 -55 121v14c0 104 82 166 187 166c16 0 36 -5 55 -13c7 -3 13 -7 18 -7s8 4 8 11c0 6 3 9 10 9h85c7 0 10 -3 10 -10v-165
c0 -104 -82 -173 -186 -173h-24c-10 0 -20 -11 -20 -28c0 -18 9 -30 22 -30h107c81 0 144 -43 144 -124v-29c0 -80 -63 -124 -144 -124zM301 278v14c0 40 -31 69 -71 69c-41 0 -72 -29 -72 -69v-14c0 -39 31 -65 72 -65c40 0 71 25 71 65zM187 -130h128c17 0 29 14 29 29v29
c0 17 -12 29 -29 29h-128c-17 0 -29 -12 -29 -29v-29c0 -15 12 -29 29 -29zM291 595c0 -35 -27 -62 -62 -62s-62 27 -62 62s27 62 62 62s62 -27 62 -62z" />
    <glyph glyph-name="hbar" unicode="&#x127;" horiz-adv-x="483" 
d="M162 0h-94c-7 0 -10 3 -10 10v486c-1 4 -4 7 -10 7h-30c-6 0 -10 3 -10 10v49c0 7 4 9 10 9h30c6 0 10 5 10 12v37c0 7 3 10 10 10h94c7 0 10 -3 10 -10v-42c1 -5 5 -7 11 -7h86c6 0 9 -2 9 -9v-49c0 -7 -3 -10 -9 -10h-86c-6 0 -10 -3 -11 -7v-47c0 -7 3 -11 8 -11
c3 0 4 1 7 2c21 11 47 18 66 18c100 0 177 -72 177 -176v-272c0 -7 -3 -10 -10 -10h-95c-7 0 -10 3 -10 10v272c0 40 -31 71 -71 71s-72 -31 -72 -71v-272c0 -7 -3 -10 -10 -10z" />
    <glyph glyph-name="hcircumflex" unicode="&#x125;" horiz-adv-x="483" 
d="M162 0h-94c-7 0 -10 3 -10 10v610c0 7 3 10 10 10h94c7 0 10 -3 10 -10v-171c0 -7 3 -11 8 -11c3 0 4 1 7 2c21 11 47 18 66 18c100 0 177 -72 177 -176v-272c0 -7 -3 -10 -10 -10h-95c-7 0 -10 3 -10 10v272c0 40 -31 71 -71 71s-72 -31 -72 -71v-272
c0 -7 -3 -10 -10 -10zM73 692h-66c-5 0 -9 3 -9 6c0 2 1 5 3 7l92 127c3 4 6 6 12 6h35c6 0 9 -2 12 -6l92 -127c2 -2 2 -5 2 -7c0 -3 -3 -6 -8 -6h-66c-6 0 -10 3 -14 9l-30 50c-2 2 -4 4 -6 4s-4 -2 -5 -4l-30 -50c-4 -6 -8 -9 -14 -9z" />
    <glyph glyph-name="ibreve" unicode="&#x12d;" horiz-adv-x="230" 
d="M162 0h-94c-7 0 -10 3 -10 10v438c0 7 3 10 10 10h94c7 0 10 -3 10 -10v-438c0 -7 -3 -10 -10 -10zM136 523h-43c-61 0 -100 39 -100 95v62c0 7 3 10 10 10h51c7 0 10 -3 10 -10v-43c0 -15 14 -28 29 -28h43c16 0 28 12 28 28v43c0 7 3 10 10 10h52c7 0 10 -3 10 -10v-62
c0 -56 -39 -95 -100 -95z" />
    <glyph glyph-name="imacron" unicode="&#x12b;" horiz-adv-x="230" 
d="M162 0h-94c-7 0 -10 3 -10 10v438c0 7 3 10 10 10h94c7 0 10 -3 10 -10v-438c0 -7 -3 -10 -10 -10zM229 539h-228c-7 0 -10 3 -10 10v85c0 7 3 10 10 10h228c7 0 10 -3 10 -10v-85c0 -7 -3 -10 -10 -10z" />
    <glyph glyph-name="iogonek" unicode="&#x12f;" horiz-adv-x="230" 
d="M215 -138v-66c0 -6 -3 -10 -9 -10c-15 0 -47 8 -66 17c-51 25 -82 72 -82 125v119v2v399c0 7 3 10 10 10h94c7 0 10 -3 10 -10v-438c0 -7 -3 -10 -10 -10h-11v-78c0 -24 16 -45 55 -50c6 -1 9 -4 9 -10zM182 573c0 -36 -31 -67 -67 -67s-67 31 -67 67s31 67 67 67
s67 -31 67 -67z" />
    <glyph glyph-name="itilde" unicode="&#x129;" horiz-adv-x="230" 
d="M162 0h-94c-7 0 -10 3 -10 10v438c0 7 3 10 10 10h94c7 0 10 -3 10 -10v-438c0 -7 -3 -10 -10 -10zM-5 551l-34 25c-3 2 -4 4 -4 8s5 14 14 28c27 42 55 58 87 58c23 0 44 -9 68 -26l17 -12c8 -6 20 -11 28 -11c13 0 26 6 43 34c2 4 5 6 8 6c4 0 7 -3 11 -6l36 -29
c3 -2 4 -5 4 -8c0 -4 -7 -17 -18 -34c-26 -38 -54 -55 -84 -55c-22 0 -43 13 -69 29l-18 11c-8 5 -18 10 -26 10c-13 0 -25 -7 -41 -31c-2 -4 -5 -6 -8 -6s-8 4 -14 9z" />
    <glyph glyph-name="jcircumflex" unicode="&#x135;" horiz-adv-x="230" 
d="M-28 -225v85c0 6 3 10 9 10c52 4 77 35 77 71v507c0 7 3 10 10 10h94c7 0 10 -3 10 -10v-498c0 -74 -43 -137 -114 -167c-24 -10 -58 -18 -76 -18c-6 0 -10 3 -10 10zM67 523h-81c-7 0 -11 3 -11 8c0 3 1 5 3 8l104 147c2 2 5 4 8 4h49c3 0 6 -2 8 -4l105 -147
c2 -3 3 -6 3 -8c0 -5 -4 -8 -11 -8h-81c-3 0 -6 2 -8 5l-33 51c-2 4 -5 6 -8 6c-2 0 -5 -2 -7 -6l-32 -51c-2 -3 -5 -5 -8 -5z" />
    <glyph glyph-name="kcommaaccent" unicode="&#x137;" horiz-adv-x="449" 
d="M162 0h-94c-7 0 -10 3 -10 10v610c0 7 3 10 10 10h94c7 0 10 -3 10 -10v-274c0 -7 4 -11 9 -11c3 0 5 1 8 4l102 112c4 4 7 7 14 7h116c7 0 11 -3 11 -8c0 -3 -1 -6 -4 -9l-134 -137c-4 -5 -6 -8 -6 -12s2 -7 6 -14l159 -257c3 -5 6 -9 6 -13c0 -5 -4 -8 -11 -8h-117
c-4 0 -7 2 -9 5l-115 189c-2 4 -5 6 -8 6c-2 0 -5 -1 -8 -4l-14 -14c-4 -4 -5 -7 -5 -11v-161c0 -7 -3 -10 -10 -10zM183 -247l-28 46c-2 2 -2 5 -2 7c0 3 1 6 3 8l8 9c19 24 28 58 28 98v21c0 7 3 9 9 9h83c6 0 9 -2 9 -9v-22c0 -71 -27 -135 -95 -170c-2 -1 -4 -1 -6 -1
c-4 0 -7 1 -9 4z" />
    <glyph glyph-name="lacute" unicode="&#x13a;" horiz-adv-x="230" 
d="M162 0h-94c-7 0 -10 3 -10 10v610c0 7 3 10 10 10h94c7 0 10 -3 10 -10v-610c0 -7 -3 -10 -10 -10zM132 695h-59c-5 0 -9 2 -9 7c0 2 1 4 3 7l83 108c5 6 9 10 18 10h113c5 0 8 -4 8 -9c0 -2 -1 -5 -3 -7l-133 -109c-7 -6 -13 -7 -21 -7z" />
    </font>
</defs>
</svg>
