<?xml version="1.0" encoding="utf-8"?>
<!-- Generator: Adobe Illustrator 18.0.0, SVG Export Plug-In . SVG Version: 6.00 Build 0)  -->
<!DOCTYPE svg PUBLIC "-//W3C//DTD SVG 1.1//EN" "http://www.w3.org/Graphics/SVG/1.1/DTD/svg11.dtd">
<svg version="1.1" id="Layer_1" xmlns="http://www.w3.org/2000/svg" xmlns:xlink="http://www.w3.org/1999/xlink" x="0px" y="0px"
	 viewBox="0 0 200 60" enable-background="new 0 0 200 60" xml:space="preserve">
<g>
	<path fill="#FFFFFF" d="M198,2v56H2V2H198 M200,0H0v60h200V0L200,0z"/>
</g>
<path fill="#FFFFFF" d="M30.2,26H34l-0.4,4.2h-3.4v12.2h-5.1V30.2h-2.5V26h2.5v-2.5c0-1.8,0.4-3.2,1.3-4.1s2.2-1.4,4.2-1.4H34v4.2
	h-2.1c-0.4,0-0.7,0-0.9,0.1c-0.2,0.1-0.4,0.2-0.5,0.3c-0.1,0.2-0.2,0.3-0.2,0.5s0,0.4,0,0.7L30.2,26L30.2,26z"/>
<g>
	<path fill="#FFFFFF" d="M62.6,38.5c-0.2,0-0.3-0.1-0.3-0.3V21.2c0-0.2,0.1-0.3,0.3-0.3h1.3c0.1,0,0.2,0.1,0.3,0.2l4.6,10.6
		c0.1,0.2,0.3,0.9,0.4,1.1h0.1c0.1-0.2,0.3-0.9,0.4-1.1l4.5-10.7c0.1-0.1,0.1-0.2,0.3-0.2h1.3c0.2,0,0.3,0.1,0.3,0.3v17.1
		c0,0.2-0.1,0.3-0.3,0.3h-1.3c-0.2,0-0.3-0.1-0.3-0.3v-6.7c0-2.2,0.2-5.8,0.3-6.5l-0.1,0c-0.1,0.2-0.6,1.8-0.7,2l-3.9,8.7
		c-0.1,0.1-0.1,0.2-0.3,0.2h-0.6c-0.1,0-0.2-0.1-0.3-0.2L64.8,27c-0.1-0.3-0.6-1.8-0.7-2l-0.1,0c0.1,0.7,0.3,4.3,0.3,6.5v6.7
		c0,0.2-0.1,0.3-0.3,0.3H62.6z"/>
	<path fill="#FFFFFF" d="M88.2,36.1c0.1,0.1,0.2,0.1,0.2,0.3c0,0.1-0.3,0.5-0.6,0.9c-0.8,0.9-1.9,1.5-3.8,1.5c-3,0-4.8-1.9-4.8-4.6
		v-3.8c0-2.2,1.9-4.6,4.8-4.6c3,0,4.9,2.4,4.9,4.6v1.7c0,0.2-0.1,0.3-0.3,0.3h-7.3c-0.2,0-0.3,0.1-0.3,0.3v1.5c0,1.6,1.3,3,3,3
		c1,0,2-0.6,2.7-1.6c0.1-0.1,0.1-0.1,0.2-0.1s0.2,0.1,0.3,0.1L88.2,36.1z M86.7,31.1c0.2,0,0.3-0.1,0.3-0.3v-0.4c0-1.6-1.4-3-3-3
		c-1.7,0-3,1.3-3,3v0.4c0,0.2,0.1,0.3,0.3,0.3H86.7z"/>
	<path fill="#FFFFFF" d="M95.1,44.8c-2,0-3.5-1.2-3.5-3.2v-0.2c0-1,0.6-1.8,1.7-2.6c0.1-0.1,0.1-0.1,0.1-0.2c0-0.1-0.1-0.3-0.2-0.4
		c-0.3-0.4-0.4-0.8-0.4-1.3c0-0.5,0.1-1,0.4-1.4c0.1-0.1,0.3-0.4,0.3-0.5s-0.2-0.3-0.4-0.4c-1.1-1-1.6-2.1-1.6-3.5v-0.3
		c0-2.7,2.1-4.6,4.8-4.6c0.7,0,1.8,0.4,2.8,1.6c0.1,0.1,0.2,0.1,0.3,0.1c0.1,0,0.3-0.1,0.3-0.3v-1.2c0-0.2,0.1-0.3,0.3-0.3h1
		c0.2,0,0.3,0.1,0.3,0.3V31c0,2.7-2.2,4.6-4.9,4.6c-0.3,0-0.6,0-0.9-0.1c-0.5,0.2-1,0.8-1,1.3c0,0.6,0.4,1.2,1,1.3h3.6
		c2,0,3.6,1.2,3.6,3.2v0.2c0,2-1.6,3.2-3.6,3.2H95.1z M99.5,30.7c0-1.6-1.4-3-3-3c-1.7,0-3,1.3-3,3V31c0,1.6,1.3,3,3,3s3-1.4,3-3
		V30.7z M99.1,43.2c1,0,1.7-0.7,1.7-1.7v-0.2c0-0.9-0.8-1.6-1.7-1.6h-3.9c-0.9,0-1.7,0.6-1.7,1.6v0.2c0,1,0.7,1.7,1.7,1.7H99.1z"/>
	<path fill="#FFFFFF" d="M104,30.4c0-2.7,1.9-4.6,4.8-4.6c3,0,4.9,1.8,4.9,4.6v3.8c0,2.7-1.9,4.6-4.9,4.6c-3,0-4.8-1.9-4.8-4.6V30.4
		z M111.9,30.4c0-1.6-1.4-3-3-3c-1.7,0-3,1.3-3,3v3.8c0,1.6,1.3,3,3,3s3-1.4,3-3V30.4z"/>
	<path fill="#FFFFFF" d="M120.7,38.8c-1.9,0-3-0.7-3.8-1.5c-0.3-0.3-0.6-0.8-0.6-0.9c0-0.1,0.1-0.2,0.2-0.2l1-0.5
		c0.1-0.1,0.2-0.1,0.3-0.1s0.2,0.1,0.2,0.1c0.6,0.9,1.6,1.6,2.7,1.6h0.9c1.7,0,2.6-1.1,2.6-2.2c0-1.4-1.9-1.8-4-2.2
		c-1.8-0.4-3.8-0.8-3.8-3.2c0-2.5,2-3.9,4.3-3.9h0.9c1.8,0,2.9,0.6,3.7,1.4c0.3,0.4,0.6,0.8,0.6,0.9c0,0.1-0.1,0.2-0.2,0.3l-0.8,0.4
		c-0.1,0.1-0.3,0.1-0.3,0.1s-0.2-0.1-0.2-0.1c-0.6-0.9-1.7-1.5-2.7-1.5h-0.9c-1.8,0-2.5,0.8-2.5,1.9c0,1.5,1.9,1.8,3.9,2.3
		c1.8,0.4,3.9,0.9,3.9,3.2c0,2.2-1.5,4-4.5,4H120.7z"/>
	<path fill="#FFFFFF" d="M128.7,38.5c-0.2,0-0.3-0.1-0.3-0.2c0-0.1,0.1-0.4,0.3-0.5l5.5-9.6c0.1-0.1,0.1-0.1,0.1-0.2
		c0-0.1-0.1-0.2-0.3-0.2h-5.4c-0.2,0-0.3-0.1-0.3-0.3v-1c0-0.2,0.1-0.3,0.3-0.3h8.5c0.2,0,0.3,0.1,0.3,0.2c0,0.1-0.1,0.3-0.3,0.5
		l-5.6,9.6c-0.1,0.1-0.1,0.1-0.1,0.2c0,0.1,0.1,0.2,0.3,0.2h6c0.2,0,0.3,0.1,0.3,0.3v1c0,0.2-0.1,0.3-0.3,0.3H128.7z"/>
	<path fill="#FFFFFF" d="M146.2,38.5c0,0.2-0.1,0.3-0.3,0.3c-0.1,0-0.7-0.1-1.1-0.3c-2-0.6-3.1-2.2-3.1-4.3V28
		c0-0.2-0.1-0.3-0.3-0.3h-1.6c-0.2,0-0.3-0.1-0.3-0.3v-0.5l3.1-3.2c0.1-0.1,0.2-0.2,0.3-0.2h0.4c0.2,0,0.3,0.1,0.3,0.3v2.1
		c0,0.2,0.1,0.3,0.3,0.3h2c0.2,0,0.3,0.1,0.3,0.3v1c0,0.2-0.1,0.3-0.3,0.3h-2c-0.2,0-0.3,0.1-0.3,0.3v6.2c0,1.4,0.9,2.6,2.4,2.9
		c0.1,0,0.2,0.1,0.2,0.3V38.5z"/>
	<path fill="#FFFFFF" d="M151.6,38.5c-2,0-3.5-1.3-3.5-3.3v-0.2c0-2,1.6-3.2,3.5-3.2h3.7c0.2,0,0.3-0.1,0.3-0.3v-1.1
		c0-1.7-1.3-2.9-3-2.9c-0.9,0-2,0.5-2.6,1.5c-0.1,0.1-0.1,0.1-0.2,0.1s-0.2-0.1-0.3-0.1l-1-0.5c-0.1-0.1-0.2-0.1-0.2-0.2
		c0-0.1,0.3-0.6,0.5-0.8c0.8-0.9,1.9-1.6,3.8-1.6c3,0,4.9,1.8,4.9,4.5v7.8c0,0.2-0.1,0.3-0.3,0.3h-1c-0.2,0-0.3-0.1-0.3-0.3V37
		c0-0.2-0.1-0.3-0.3-0.3c-0.1,0-0.2,0.1-0.3,0.1c-0.8,1-1.9,1.7-2.7,1.7H151.6z M152.7,36.9c1.3,0,2.4-1.3,2.9-2.4v-1.1
		c0-0.2-0.1-0.3-0.3-0.3h-3.7c-0.9,0-1.7,0.7-1.7,1.7v0.4c0,0.9,0.8,1.7,1.7,1.7H152.7z M151.4,24.4c-0.2,0-0.3-0.1-0.3-0.2
		c0-0.1,0-0.1,0.1-0.2l1.9-2.9c0.1-0.1,0.2-0.2,0.3-0.2h1.8c0.2,0,0.3,0.1,0.3,0.3c0,0.1,0,0.1-0.1,0.2l-3.2,2.9
		c-0.1,0.1-0.2,0.1-0.3,0.1H151.4z"/>
	<path fill="#FFFFFF" d="M164.5,38.8c-1.9,0-3-0.7-3.8-1.5c-0.3-0.3-0.6-0.8-0.6-0.9c0-0.1,0.1-0.2,0.2-0.2l1-0.5
		c0.1-0.1,0.2-0.1,0.3-0.1s0.2,0.1,0.2,0.1c0.6,0.9,1.6,1.6,2.7,1.6h0.9c1.7,0,2.6-1.1,2.6-2.2c0-1.4-1.9-1.8-4-2.2
		c-1.8-0.4-3.8-0.8-3.8-3.2c0-2.5,2-3.9,4.3-3.9h0.9c1.8,0,2.9,0.6,3.7,1.4c0.3,0.4,0.6,0.8,0.6,0.9c0,0.1-0.1,0.2-0.2,0.3l-0.8,0.4
		c-0.1,0.1-0.3,0.1-0.3,0.1s-0.2-0.1-0.2-0.1c-0.6-0.9-1.7-1.5-2.7-1.5h-0.9c-1.8,0-2.5,0.8-2.5,1.9c0,1.5,1.9,1.8,3.9,2.3
		c1.8,0.4,3.9,0.9,3.9,3.2c0,2.2-1.5,4-4.5,4H164.5z"/>
</g>
</svg>
